<svg xmlns="http://www.w3.org/2000/svg" viewBox="0 0 39.55 41.79" xmlns:v="https://vecta.io/nano"><path d="M37.39 0v6.57h2.16V20.9H37.4v3.29h-2.18v2.23h-1.11v1.06h-6.59v14.31h-13.2v-4.37h-7.7V36.3H5.51v-2.18H4.39v-3.28H3.27v-2.23H2.21V27.5H0V22h4.37v-1.1H2.22V6.59h2.16V0h7.7v2.16H29.7V0zM12.08 30.83h-1.89c-.24 0-.31-.07-.29-.3s0-.4 0-.61 0-.21-.2-.21H9q-.2 0-.18-.18v-.65c0-.21-.07-.3-.29-.28s-.37 0-.55 0-.28-.05-.28-.27v-1.69c0-.17-.06-.23-.23-.22H7c-.34 0-.34 0-.34-.32v-.58c0-.19-.05-.22-.2-.21s-.47 0-.71 0-.21-.06-.2-.21 0-.47 0-.7 0-.21-.19-.21H2.4c-.14 0-.2 0-.19.19s0 .45 0 .68.07.25.25.24h1.65c.21 0 .31 0 .29.28s0 .43 0 .65 0 .19.19.18h.67c.21 0 .27.07.26.26v1.67c0 .18 0 .27.25.25s.39 0 .58 0 .3.06.3.29v2.74c0 .21.06.28.27.26s.34 0 .51 0 .3.05.29.28v1.74c0 .16.06.22.21.21s.46 0 .68 0 .24.07.23.24 0 .45 0 .68 0 .2.19.2h7.5v4.11c0 .22.07.3.29.3h8.11c.41 0 .41 0 .41-.41V25.77a1.92 1.92 0 0 0 0-.24c0-.15.06-.22.22-.22h6.04c.31 0 .32 0 .32-.31v-.58c0-.19.07-.23.22-.22h.56c.22 0 .3-.08.29-.3v-1.59c0-.23.09-.3.3-.29h1.6c.32 0 .33 0 .33-.35v-2.56c0-.38 0-.38.38-.38h1.52c.2 0 .29-.06.29-.28q0-4.68 0-9.36c0-.23-.09-.29-.31-.29h-1.53c-.35 0-.36 0-.36-.35V2.52a2.11 2.11 0 0 0-.05-.35h-3c-.2 0-.27.07-.27.27v1.64c0 .32 0 .32-.33.32H10.17c-.22 0-.28-.07-.27-.28V2.53c0-.36 0-.36-.34-.36H6.94c-.33 0-.33 0-.33.32v6.06c0 .19-.05.27-.25.26H4.62c-.18 0-.24.06-.24.24q0 4.73 0 9.45c0 .18 0 .24.24.24h1.74c.2 0 .26.07.26.27v2.75c0 .23.07.29.29.28h1.56c.32 0 .32 0 .32.31V24c0 .17.05.23.22.23h.89V25c0 .36 0 .36.35.36h6.23v4.4h-.79c-.2 0-.29.05-.27.26s0 .37 0 .56-.06.3-.29.3zm2.22-3.33h-2.2v1.08h2.2z" fill="#fff"/></svg>