<svg xmlns="http://www.w3.org/2000/svg" viewBox="0 0 1920 1080"><g id="b72d181e-e33d-478b-acf8-b2f8c383774c" data-name="Layer 2"><g id="fd82ee43-ffc0-4f33-b8a5-e3a134101551" data-name="Layer 1"><rect width="1920" height="1080" style="fill:#666"/><path d="M986.86,102.9V81.51h-3.51V79.33h-38.2v2.18h-3.51v33.4H938v3.82h-7.19v3.81h-6v3.82h-7.53v-3.82h-4.2v-3.82h-5.4V114.9h-3.45v19.7h3v3.81h4.2v3.82H915v4.36h4.83v3.72h5.07V159h8.47V156.2H928v-2.44h6.1v-3.82H938v3.82h2.48V159H949V156.2h-5.37V146.12h5.19V142.3h4.51v-7.88h3.6v-7.77h5.58v3.65h3.71v-8h-9.29v-9.86H975.5v-4.31H961.05V102.9ZM954.07,89h-4.5V84.93h4.5Z" style="fill:#b3b3b3;opacity:0.4"/><g style="opacity:0.4"><path id="a6107772-ca4d-4abd-a713-0f8b5ed4d9bf" data-name="path1614" d="M1236.68,955.26v-1.44h-2.88v-5.75h2.88v-2.88h2.88v-5.75h-2.88v-2.88h-2.88v-2.87h-2.87v-5.76h2.87v-2.87h8.63v2.87h5.76v2.88h2.87v2.88h8.63v-2.88h5.75v-2.88h8.63v-2.87h34.52v2.87h5.75v2.88h5.75v2.88H1323v2.87h2.87v8.63H1323v2.88h-2.88v2.87h-5.75v2.88h-8.63v2.88H1277v-2.88h-5.75v-2.88h-5.76v-2.87h-11.5v2.87h-2.88v2.88h-2.87v2.88h-11.51Zm60.4-2.88v-1.44H1300V933.69h-2.88v-5.76h-5.75v8.63h2.88v2.88h2.87v5.75h-2.87v-2.87h-8.63v2.87h-2.88v2.88h5.75v-2.88h5.76v5.75h-2.88v2.88h5.75ZM1277,945.19v-5.75h2.87v-8.63h2.88v2.88h2.88v-2.88h2.87v-2.88h-2.87v2.88h-2.88v-2.88h-8.63v2.88h-2.87v20.13H1277Zm-23-2.87v-5.76h-2.88v-2.87h-2.87v5.75h2.87v2.88h-2.87v5.75h5.75Zm11.5-7.19v-1.44h2.88v-2.88h-2.88v2.88h-2.87v2.87h2.87Zm-25.88-5.76v-1.44h-2.88v2.88h2.88Zm66.15,0v-1.44h-2.88v2.88h2.88Zm-120.8-23v-1.44H1182v-11.5h2.88v-2.88h2.87v-5.75h-2.87v-2.88H1182V879h-2.87v-8.63H1182v-2.88h11.51v2.88h5.75v2.88h2.88v2.87h14.38v-2.87h11.5v-2.88h5.75v-2.88h37.4v2.88h8.62v2.88h5.76v2.87h5.75V879h2.88v2.87h2.87v8.63h-2.87v2.88h-2.88v2.88h-5.75v2.87h-5.76v2.88h-8.62v2.87h-37.4v-2.87h-5.75v-2.88h-11.5V896.3h-8.63v2.87H1205v2.88h-8.63v2.87h-5.75v2.88h-5.75Zm74.78-5.75v-1.44h2.88v-5.75h-5.76v-5.75h2.88v-2.88h2.88V879h-2.88v-8.63h-8.63v11.5h2.88v5.76h-2.88v2.87h-5.75v2.88h-5.75v2.88h8.63v-2.88h2.87v2.88h2.88v2.87h-2.88v2.88h8.63Zm-5.75-5.75v-1.44h2.87v2.88h-2.87Zm-48.9,2.87V896.3h2.88V879h-5.75v-2.88h-2.88v8.63h2.88v5.75h-2.88v5.76h2.88v2.87H1205ZM1233.8,892v-7.19h2.88v-11.5h2.88v-2.88h-2.88v2.88h-8.63v25.88h5.75Zm-20.13-11.5V879h-2.88v2.87h2.88Zm5.75,0V879h2.88v-2.88h-2.88V879h-2.87v2.87h2.87Zm66.16-2.88v-1.44h-2.88V879h2.88Zm-20.14-2.88v-1.43h2.88v2.87h2.88v-2.87h-2.88v-2.88h-2.88v2.88h-2.87v2.87h2.87Zm11.51,0v-1.43h-2.88v2.87H1277Zm-31.64-2.87v-1.44h-2.88v2.88h2.88Z" style="fill:#b3b3b3"/><path id="a78b64ad-388a-48d4-89ef-1651909589fc" data-name="path1612" d="M1236.68,955.26v-1.44h-2.88v-5.75h2.88v-2.88h2.88v-5.75h-2.88v-2.88h-2.88v-2.87h-2.87v-5.76h2.87v-2.87h8.63v2.87h5.76v2.88h2.87v2.88h8.63v-2.88h5.75v-2.88h8.63v-2.87h34.52v2.87h5.75v2.88h5.75v2.88H1323v2.87h2.87v8.63H1323v2.88h-2.88v2.87h-5.75v2.88h-8.63v2.88H1277v-2.88h-5.75v-2.88h-5.76v-2.87h-11.5v2.87h-2.88v2.88h-2.87v2.88h-11.51Zm43.14-12.94V930.81h2.88v2.88h2.88v-2.88h2.87v8.63h2.88v2.88h-5.75v2.87h-2.88v2.88h5.75v-2.88h5.76v5.75h-2.88v2.88h5.75v-2.88h5.75V933.69H1300v-5.76h-14.38v2.88h-2.88v-2.88h-8.63v2.88h-8.63v2.88h-2.87v2.87h2.87v-2.87h2.88v8.63h2.88v8.62H1277v2.88h2.87Zm14.39,0v-2.88h2.87v5.75h-2.87Zm-43.15,7.19v-1.44h2.88v-2.88h2.87v-8.63h-5.75v-2.87h-2.87v-2.88h-2.88v8.63h2.88v2.88h-2.88v5.75h2.88v2.87h2.87Zm17.26-2.88v-1.44h-2.88v2.88h2.88Zm-28.76-17.26v-1.44h-2.88v2.88h2.88Zm66.15,0v-1.44h-2.88v2.88h2.88Zm-120.8-23v-1.44H1182v-11.5h2.88v-2.88h2.87v-5.75h-2.87v-2.88H1182V879h-2.87v-8.63H1182v-2.88h11.51v2.88h5.75v2.88h2.88v2.87h14.38v-2.87h11.5v-2.88h5.75v-2.88h37.4v2.88h8.62v2.88h5.76v2.87h5.75V879h2.88v2.87h2.87v8.63h-2.87v2.88h-2.88v2.88h-5.75v2.87h-5.76v2.88h-8.62v2.87h-37.4v-2.87h-5.75v-2.88h-11.5V896.3h-8.63v2.87H1205v2.88h-8.63v2.87h-5.75v2.88h-5.75Zm54.65-5.75v-1.44h-2.88v-11.5h2.88V870.41h-5.76v2.88h-5.75v2.87h-2.87v8.63h2.87v2.88h-2.87v2.87h2.87v8.63h5.75v2.88h5.76Zm20.13,0v-1.44h5.75v-5.75h-2.87v-8.63h2.87V879h-2.87v-2.88h2.87v-2.87h2.88v2.87h2.88v-2.87h-2.88v-2.88h-2.88v2.88h-2.87v-2.88h-14.38v14.38h2.87v5.75h-5.75v2.88h-5.75v2.88h8.63v-2.88h2.87v2.88h2.88v2.87h-2.88v2.88h8.63Zm-5.75-5.75v-1.44h2.87v-5.75h2.88v5.75h-2.88v2.88h-2.87Zm-48.9,2.87V896.3h2.88v-8.63h2.87v-5.76h2.88V879h-11.5v-2.88h-5.76v8.63h2.88v5.75h-2.88v5.76h2.88v2.87H1205Zm14.38-17.25V879h2.88v-2.88h-2.88V879h-2.87v2.87h2.87Zm66.16-2.88v-1.44h-2.88V879h2.88Zm-8.63-2.88v-1.43h-2.88v2.87H1277Zm-31.64-2.87v-1.44h-2.88v2.88h2.88Z" style="fill:#b3b3b3"/><path id="b9bcec65-60b5-4d14-8260-d1b9767c150d" data-name="path1610" d="M1236.68,955.26v-1.44h-2.88v-5.75h2.88v-2.88h2.88v-5.75h-2.88v-2.88h-2.88v-2.87h-2.87v-5.76h2.87v-2.87h8.63v2.87h5.76v2.88h2.87v2.88h8.63v-2.88h5.75v-2.88h8.63v-2.87h34.52v2.87h5.75v2.88h5.75v2.88H1323v2.87h2.87v8.63H1323v2.88h-2.88v2.87h-5.75v2.88h-8.63v2.88H1277v-2.88h-5.75v-2.88h-5.76v-2.87h-11.5v2.87h-2.88v2.88h-2.87v2.88h-11.51Zm8.63-2.88v-1.44h5.75v-2.87h2.88v-2.88h11.5v2.88h2.88v-5.75h2.88v8.62H1277v2.88h11.5v-2.88h-8.63v-8.62h2.88v5.75h8.63v-2.88h2.88v5.75h-2.88v2.88h5.75v-2.88H1300v2.88h5.75v-2.88h8.63v-2.87h5.75v-2.88H1323v-8.63h-2.88v-2.87h-5.75v-2.88h-5.75v-2.88h-34.52v2.88h-8.63v2.88h-5.75v2.87h-8.63v-2.87h-2.87v-2.88h-5.76v-2.88h-5.75v2.88h-2.88v2.88h2.88v2.87h5.75v2.88h2.88v2.88h-2.88v5.75h-5.75v2.87h5.75v2.88h2.88Zm48.9-10.06v-2.88h2.87v5.75h-2.87Zm14.38-2.88v-2.88h5.75v5.76h-5.75Zm-71.91-7.19v-1.44h2.88v2.88h-2.88Zm-51.77-25.89v-1.44H1182v-11.5h2.88v-2.88h2.87v-5.75h-2.87v-2.88H1182V879h-2.87v-8.63H1182v-2.88h11.51v2.88h5.75v2.88h2.88v2.87h14.38v-2.87h11.5v-2.88h5.75v-2.88h37.4v2.88h8.62v2.88h5.76v2.87h5.75V879h2.88v2.87h2.87v8.63h-2.87v2.88h-2.88v2.88h-5.75v2.87h-5.76v2.88h-8.62v2.87h-37.4v-2.87h-5.75v-2.88h-11.5V896.3h-8.63v2.87H1205v2.88h-8.63v2.87h-5.75v2.88h-5.75Zm5.75-2.87v-1.44h5.75v-2.88H1205V896.3h2.88v-8.63h2.87v5.75h5.76v2.88h8.63v-5.76h2.87v8.63h5.75v2.88h14.39v-2.88h-11.51v-8.63h5.75v2.88h-2.87v2.88h14.38v2.87h-2.88v2.88h8.63v-2.88h2.88v2.88h8.63v-2.88h8.62V896.3h5.76v-2.88h5.75v-5.75h2.88v-5.76h-2.88V879h-5.75v-2.88h-5.76v-2.87h-8.62v-2.88h-37.4v2.88h-5.75v2.87h-11.5V879h-14.38v-2.88h-2.88v-2.87h-5.75v-2.88h-5.76v2.88H1182v2.87h5.75V879h-2.87v2.87h8.63v2.88h-2.88v2.88h2.88v2.87h-5.76v2.88h2.88v2.88h-5.75v2.87h5.75v2.88h-5.75v2.87h5.75Zm63.28-8.63v-1.44h2.87v-5.75h2.88v5.75h-2.88v2.88h-2.87Zm-28.76-8.63v-1.44h2.87v2.88h-2.87Zm51.77,0v-1.44h-2.88v-2.88H1277V879h5.75v5.75h-2.88v2.88H1277Z" style="fill:#666"/><path id="a02e1a20-0149-4a93-b8dd-9b67e2f37baa" data-name="path1608" d="M1236.68,955.26v-1.44h-2.88v-5.75h2.88v-2.88h2.88v-5.75h-2.88v-2.88h-2.88v-2.87h-2.87v-5.76h2.87v-2.87h8.63v2.87h5.76v2.88h2.87v2.88h8.63v-2.88h5.75v-2.88h8.63v-2.87h34.52v2.87h5.75v2.88h5.75v2.88H1323v2.87h2.87v8.63H1323v2.88h-2.88v2.87h-5.75v2.88h-8.63v2.88H1277v-2.88h-5.75v-2.88h-5.76v-2.87h-11.5v2.87h-2.88v2.88h-2.87v2.88h-11.51Zm8.63-2.88v-1.44h5.75v-2.87h2.88v-2.88h11.5v2.88h2.88v-5.75h2.88v8.62H1277v2.88h11.5v-2.88h2.88v2.88h5.75v-2.88H1300v2.88h5.75v-2.88h8.63v-2.87h5.75v-2.88H1323v-8.63h-2.88v-2.87h-5.75v-2.88h-5.75v-2.88h-34.52v2.88h-8.63v2.88h-5.75v2.87h-8.63v-2.87h-2.87v-2.88h-5.76v-2.88h-8.63v5.76h2.88v2.87h2.88v2.88h2.87v5.75h-2.87v2.88h-2.88v5.75h8.63Zm63.28-12.94v-2.88h5.75v5.76h-5.75Zm-123.68-33.08v-1.44H1182v-11.5h2.88v-2.88h2.87v-5.75h-2.87v-2.88H1182V879h-2.87v-8.63H1182v-2.88h11.51v2.88h5.75v2.88h2.88v2.87h14.38v-2.87h11.5v-2.88h5.75v-2.88h37.4v2.88h8.62v2.88h5.76v2.87h5.75V879h2.88v2.87h2.87v8.63h-2.87v2.88h-2.88v2.88h-5.75v2.87h-5.76v2.88h-8.62v2.87h-37.4v-2.87h-5.75v-2.88h-11.5V896.3h-8.63v2.87H1205v2.88h-8.63v2.87h-5.75v2.88h-5.75Zm5.75-2.87v-1.44h5.75v-2.88H1205V896.3h2.88v-8.63h2.87v5.75h5.76v2.88h8.63v-5.76h2.87v8.63h5.75v2.88h14.39v-2.88h2.87v2.88h8.63v-2.88h2.88v2.88h8.63v-2.88h8.62V896.3h5.76v-2.88h5.75v-5.75h2.88v-5.76h-2.88V879h-5.75v-2.88h-5.76v-2.87h-8.62v-2.88h-37.4v2.88h-5.75v2.87h-11.5V879h-14.38v-2.88h-2.88v-2.87h-5.75v-2.88H1182V879h2.88v2.87h2.87v2.88h2.88v5.75h-2.88v2.88h-2.87v11.5h5.75Zm34.52-17.26v-1.44h2.87v2.88h-2.87Zm51.77,0v-1.44h-2.88v-2.88H1277V879h5.75v5.75h-2.88v2.88H1277Z" style="fill:#b3b3b3"/><polygon points="1276.95 879.04 1276.95 881.91 1274.07 881.91 1274.07 884.79 1276.95 884.79 1276.95 887.67 1279.83 887.67 1279.83 884.79 1282.7 884.79 1282.7 879.04 1276.95 879.04" style="fill:#666"/><rect x="1308.59" y="936.56" width="5.75" height="5.75" style="fill:#666"/><polygon points="1210.79 884.79 1209.45 877.6 1217.36 877.6 1218.49 874.01 1224.3 874.72 1225.18 880.48 1221.08 884.79 1210.79 884.79" style="fill:#b3b3b3"/><polygon points="1236.68 873.28 1236.68 869.17 1248.19 869.17 1246.91 873.28 1236.68 873.28" style="fill:#b3b3b3"/><polygon points="1261.6 876.92 1262.57 870.41 1266.12 869.17 1269.19 870.41 1272.41 871.85 1278.39 873.05 1281.3 874.72 1284.85 875.47 1285.58 876.16 1285.58 879.04 1282.7 879.04 1261.6 876.92" style="fill:#b3b3b3"/><polygon points="1240.61 930.81 1236.68 930.81 1236.68 927.93 1241.58 927.93 1240.61 930.81" style="fill:#b3b3b3"/><polygon points="1261.6 937.46 1261.6 932.94 1265.44 932.25 1265.44 930.81 1268.32 930.81 1268.32 936.56 1261.6 937.46" style="fill:#b3b3b3"/><polygon points="1282.7 933.69 1282.7 928.59 1284.14 927.93 1288.45 927.93 1288.45 934.14 1282.7 933.69" style="fill:#b3b3b3"/><polygon points="1299.96 926.65 1306.48 927.93 1307.13 931.04 1302.84 930.81 1299.96 926.65" style="fill:#b3b3b3"/></g><g style="opacity:0.8"><rect id="b29f281b-2b37-4b0c-9c25-a584aae4f9a2" data-name="rect5811-7-6-1" x="690.92" y="870.92" width="6.58" height="3.29" style="fill:#b3b3b3;opacity:0.5"/><rect id="a3c54ec4-c9d5-454c-9662-cd70f29fa802" data-name="rect5813-8-1-9" x="687.63" y="874.2" width="3.29" height="36.19" style="fill:#b3b3b3;opacity:0.5"/><rect id="b40ecef5-0773-440c-b454-aaae890fa543" data-name="rect5815-8-5-5" x="697.5" y="874.2" width="3.29" height="29.61" style="fill:#b3b3b3;opacity:0.5"/><rect id="b76fe80e-96a7-481f-b007-870c00d31d39" data-name="rect5817-6-8-7" x="700.79" y="887.36" width="6.58" height="3.29" style="fill:#b3b3b3;opacity:0.5"/><rect id="f01c5b6b-1890-4c9c-adb0-8a894086d130" data-name="rect5819-0-8-3" x="707.37" y="890.65" width="3.29" height="13.16" style="fill:#b3b3b3;opacity:0.5"/><rect id="b6ea9f1e-66c7-4d2d-a496-db1061389878" data-name="rect5821-8-6-5" x="710.66" y="890.65" width="6.58" height="3.29" style="fill:#b3b3b3;opacity:0.5"/><rect id="bfcd05ad-0435-4713-8d52-1cd4d609efb4" data-name="rect5823-1-3-1" x="717.24" y="893.94" width="6.58" height="3.29" style="fill:#b3b3b3;opacity:0.5"/><rect id="a3fcacf1-cc41-40d2-bab4-17124d0bd098" data-name="rect5825-0-0-8" x="717.24" y="897.23" width="3.29" height="9.87" style="fill:#b3b3b3;opacity:0.5"/><rect id="aa417e8b-7559-4ac8-a7a7-b546caa2a744" data-name="rect5827-5-1-5" x="723.82" y="897.23" width="3.29" height="3.29" style="fill:#b3b3b3;opacity:0.5"/><rect id="a553d9bf-01c5-4281-9adc-d192dc8f9c91" data-name="rect5829-2-9-1" x="727.11" y="900.52" width="3.29" height="23.03" style="fill:#b3b3b3;opacity:0.5"/><rect id="a7154765-02d0-4669-a5ae-4620aab0418a" data-name="rect5831-72-0-2" x="681.05" y="903.81" width="3.29" height="3.29" style="fill:#b3b3b3;opacity:0.5"/><rect id="b1041934-f0b6-4363-8c29-e4c8cada19da" data-name="rect5833-45-19-4" x="671.18" y="900.52" width="9.87" height="3.29" style="fill:#b3b3b3;opacity:0.5"/><rect id="b2259ce2-2693-4232-b372-96f438661794" data-name="rect5835-7-6-5" x="671.18" y="903.81" width="3.29" height="6.58" style="fill:#b3b3b3;opacity:0.5"/><rect id="bcb8efd1-1a4b-4672-97f5-1ebdb6780e2e" data-name="rect5837-3-9-4" x="674.47" y="910.39" width="3.29" height="3.29" style="fill:#b3b3b3;opacity:0.5"/><rect id="eae60c1f-671f-4a87-ae24-c2717160da24" data-name="rect5839-5-8-1" x="677.76" y="913.68" width="3.29" height="3.29" style="fill:#b3b3b3;opacity:0.5"/><rect id="a21e9f3d-f107-4ae7-9abb-fd3bb39e7563" data-name="rect5841-0-8-0" x="681.05" y="916.97" width="3.29" height="6.58" style="fill:#b3b3b3;opacity:0.5"/><rect id="fa72caee-9c97-4b20-a319-c5ad381399a1" data-name="rect5843-6-9-0" x="684.34" y="923.55" width="3.29" height="6.58" style="fill:#b3b3b3;opacity:0.5"/><rect id="a3ed454a-4f09-4c16-985c-3bab0b55a7e5" data-name="rect5847-2-2-6" x="690.92" y="933.42" width="29.61" height="3.29" style="fill:#b3b3b3;opacity:0.5"/><rect id="fb9917d5-b464-470d-b32c-3678bff3d4a6" data-name="rect5851-6-7-4" x="723.82" y="923.55" width="3.29" height="6.58" style="fill:#b3b3b3;opacity:0.5"/><rect id="e6dad2c1-e2d8-4e6c-a230-ee495ad541e4" data-name="rect6728-5-8" x="684.34" y="907.1" width="3.29" height="3.29" style="fill:#b3b3b3;opacity:0.5"/><rect id="a1b61cc8-b9c4-4142-bdf9-cbf566207cb3" data-name="rect6730-5-5" x="687.63" y="930.13" width="3.29" height="3.29" style="fill:#b3b3b3;opacity:0.5"/><rect id="fb9c3964-9d0d-433d-93a7-9c4f0f9116c4" data-name="rect7152-17-4" x="720.53" y="930.13" width="3.29" height="3.29" style="fill:#b3b3b3;opacity:0.5"/><rect id="bfcec1ab-da63-45d4-b115-a66d9b852062" data-name="rect12006" x="670.39" y="864.78" width="9.87" height="3.29" style="fill:#b3b3b3;opacity:0.5"/><rect id="a1d51e73-f493-4e6a-81a6-fc1ae18f770a" data-name="rect12008" x="676.97" y="868.07" width="3.29" height="6.58" style="fill:#b3b3b3;opacity:0.5"/><rect id="b25bdbb6-7a60-4e59-97d7-7f40987c723b" data-name="rect12010" x="673.68" y="868.07" width="3.29" height="3.29" style="fill:#b3b3b3;opacity:0.5"/><rect id="b8279458-718d-4434-baa7-0e20f87e3a0b" data-name="rect12012" x="670.39" y="871.36" width="3.29" height="3.29" style="fill:#b3b3b3;opacity:0.5"/><rect id="a2e08c4f-de39-45ce-876d-232a2a6a59fd" data-name="rect12016" x="663.81" y="877.94" width="3.29" height="3.29" style="fill:#b3b3b3;opacity:0.5"/><rect id="a04545b6-9124-4c35-850b-9a860f6dab12" data-name="rect12018" x="657.24" y="877.94" width="3.29" height="6.58" style="fill:#b3b3b3;opacity:0.5"/><rect id="a625432c-5d46-4be3-899d-2cc5357e7e00" data-name="rect12020" x="660.53" y="881.23" width="3.29" height="3.29" style="fill:#b3b3b3;opacity:0.5"/><rect id="f84af960-b76d-49ab-90a3-797e252b664b" data-name="rect12022" x="657.24" y="884.52" width="9.87" height="3.29" style="fill:#b3b3b3;opacity:0.5"/></g><g style="opacity:0.4"><path d="M198.61,300.14h5.18v5.17h10.4V321H209v5.2H198.61v10.44h-5.16V320.94h5.16c1.54,0,3.08,0,4.61,0,.46,0,.62-.15.61-.6,0-1,0-1.91,0-2.87,0-1.75,0-1.75,1.72-1.75,1,0,1.91,0,2.86,0,.48,0,.64-.15.63-.63,0-1.26-.05-2.52,0-3.78,0-.69-.22-.82-.85-.82-3.19,0-6.38,0-9.57,0v-10.4Z" style="fill:#b3b3b3"/><path d="M172.58,331.38V326.2H167.4V321h-5.21V300.14h5.18v15.64h5.24V321h5.14v10.39h-5.16Z" style="fill:#b3b3b3"/><path d="M193.4,357.41v5.2h-5.19v5.17H157v-5.16h26v-5.21H193.4Z" style="fill:#b3b3b3"/><path d="M141.34,347h-5.17V321h10.36v5.18l0,0h-5.22V347Z" style="fill:#b3b3b3"/><path d="M157,362.62H146.55v-5.19h-5.21V347h5.24v5.22h5.2v5.2H157v5.2Z" style="fill:#b3b3b3"/><path d="M172.58,294.93v-5.17H193.4v5.17H172.58Z" style="fill:#b3b3b3"/><path d="M198.61,336.59h5.16V352.2h-5.15V336.58Z" style="fill:#b3b3b3"/><path d="M157,331.38h15.62v5.17H157v-5.17Z" style="fill:#b3b3b3"/><path d="M146.53,326.18H157v5.2h-10.4v-5.21Z" style="fill:#b3b3b3"/><path d="M167.37,300.14v-5.21h5.2v5.2h-5.21Z" style="fill:#b3b3b3"/><path d="M193.4,294.93h5.21v5.21h-5.2v-5.21Z" style="fill:#b3b3b3"/><path d="M198.61,352.2v5.21h-5.2v-5.21h5.2Z" style="fill:#b3b3b3"/><path d="M198.62,352.21h-5.21v5.21H183v5.21H157v-5.2h-5.18v-5.2h-5.2V347h-5.24V326.16h5.22v5.21H157v5.17h15.61v-5.17h5.17V321H172.6v-5.2h-5.24V300.12h5.21v-5.2h20.84v5.21h5.21v10.4c0,3.47,0,6.94,0,10.41h-5.16v15.64h5.17ZM183,347h5.17V341.8H183v-5.16h-5.15v5.15H183c0,1.74,0,3.48,0,5.22h-5.21v5.2H162.16V347H157v-5.15H151.8V347H157v5.21h5.21v5.17h15.61V352.2H183Zm10.36-36.48V305.4h-5.09v5.11Z" style="fill:#666"/><path d="M198.61,320.94c0-3.47,0-6.94,0-10.41,3.19,0,6.38,0,9.57,0,.63,0,.88.13.85.82-.06,1.26,0,2.52,0,3.78,0,.48-.15.65-.63.63-1,0-1.91,0-2.86,0-1.72,0-1.72,0-1.72,1.75,0,1,0,1.91,0,2.87,0,.45-.15.61-.61.6C201.69,320.94,200.15,321,198.61,320.94Z" style="fill:gray"/><path d="M162.16,352.21h15.62v5.17H162.17V352.2Z" style="fill:#b3b3b3"/><path d="M193.34,310.51h-5.09V305.4h5.09Z" style="fill:#b3b3b3"/><path d="M183,341.79h-5.16v-5.15H183v5.16Z" style="fill:#b3b3b3"/><path d="M157,347H151.8v-5.14H157V347Z" style="fill:#b3b3b3"/><path d="M183,341.8h5.17V347H183l0,0c0-1.74,0-3.48,0-5.22Z" style="fill:#b3b3b3"/><path d="M183,347v5.21h-5.19V347H183Z" style="fill:#b3b3b3"/><path d="M162.17,352.2H157V347h5.2v5.21Z" style="fill:#b3b3b3"/></g><g style="opacity:0.4"><path d="M1462.11,217.42h0v0h0Z" style="fill:#b3b3b3"/><path d="M1534.37,192.24V184h-8.06v8.3H1422.76c-.27,0-.55,0-.82-.06a3.81,3.81,0,0,0-.07.59q0,7.75,0,15.53c0,.2,0,.4.05.7H1430v8.36h8v8.27h24.14v-8.22l-3.85-.08h-4.16V209h8v-8.32h7.94V209h8.1v-8.33h8V209h8v8.36h8v8.24h24v-8.2l-7-.06h-1V209h7.92q0-3.63,0-7.27v-1h8.05V209h8V192.24Z" style="fill:#b3b3b3"/><path d="M1421,183.89c-2.1,0-4.19,0-6.29,0a5.31,5.31,0,0,1-.8-.11v8.48c2,0,3.9,0,5.84,0,.73,0,1.47-.05,2.21-.08v-8.28Z" style="fill:#b3b3b3"/><path d="M1421.92,192.17v0h0v0Z" style="fill:#b3b3b3"/><path d="M1413.85,183.77h0v0Z" style="fill:#b3b3b3"/><path d="M1526.3,217.4h8.06V209h-8.06Z" style="fill:#b3b3b3"/><path d="M1526.3,209v0h0v0Z" style="fill:#b3b3b3"/><path d="M1526.29,217.41h0Z" style="fill:#b3b3b3"/><path d="M1534.36,209h0v0h0Z" style="fill:#b3b3b3"/><path d="M1413.85,183.78l0,0h0Z" style="fill:#b3b3b3"/><path d="M1405.8,175.63v8.2a2.61,2.61,0,0,0,.42.07h7.06a3,3,0,0,0,.57-.14v-8.13Z" style="fill:#b3b3b3"/><path d="M1462.14,217.4H1470V209h-7.9Z" style="fill:#b3b3b3"/><path d="M1470,209h0v0h0Z" style="fill:#b3b3b3"/><path d="M1462.13,209v0h0v0Z" style="fill:#b3b3b3"/><path d="M1526.27,175.61h-7.91v8.25h7.91Z" style="fill:#b3b3b3"/></g><g style="opacity:0.25"><rect x="191.32" y="777.83" width="5.41" height="5.41" style="fill:#b3b3b3"/><rect x="196.74" y="777.83" width="5.41" height="5.41" style="fill:#b3b3b3"/><polygon points="212.75 815.31 212.75 820.72 207.38 820.72 207.38 826.1 201.94 826.1 201.94 831.49 191.53 831.49 191.53 826.1 186.09 826.1 186.09 820.72 180.72 820.72 180.72 815.33 175.28 815.33 175.28 809.92 169.84 809.92 169.84 804.53 164.4 804.53 164.4 799.28 158.99 799.28 158.99 783.15 164.35 783.15 164.35 777.83 169.76 777.83 169.76 772.42 169.79 772.42 169.79 767.07 185.88 767.07 185.88 772.46 191.29 772.46 191.29 777.87 185.88 777.87 185.88 772.49 169.81 772.49 169.81 777.83 164.4 777.83 164.4 783.15 169.76 783.15 169.76 793.87 175.11 793.87 175.11 799.12 180.55 799.12 180.55 804.51 185.99 804.51 185.99 809.92 191.43 809.92 191.43 815.31 196.87 815.31 196.87 820.7 207.34 820.7 207.34 815.31 212.75 815.31" style="fill:#b3b3b3"/><rect x="212.78" y="809.92" width="5.41" height="5.41" style="fill:#b3b3b3"/><polygon points="223.6 783.09 223.6 793.79 218.19 793.79 218.19 788.5 212.88 788.5 212.88 777.73 218.29 777.73 218.29 783.09 223.6 783.09" style="fill:#b3b3b3"/><rect x="218.22" y="804.51" width="5.41" height="5.41" style="fill:#b3b3b3"/><polygon points="234.49 777.83 234.49 799.28 229.07 799.28 229.07 804.53 223.66 804.53 223.66 799.12 229.07 799.12 229.07 777.83 223.66 777.83 223.66 772.49 207.6 772.49 207.6 777.87 202.18 777.87 202.18 772.46 207.6 772.46 207.6 767.07 223.69 767.07 223.69 772.42 229.07 772.42 229.07 777.83 234.49 777.83" style="fill:#b3b3b3"/><polygon points="169.76 777.83 175.18 777.83 175.18 772.49 185.88 772.49 185.88 777.87 191.29 777.87 191.29 783.24 202.15 783.24 202.15 777.87 207.6 777.87 207.6 772.49 223.69 772.49 223.69 777.83 229.07 777.83 229.07 799.28 223.66 799.28 223.66 804.53 218.22 804.53 218.22 809.92 212.78 809.92 212.78 815.33 207.34 815.33 207.34 820.7 196.83 820.7 196.83 815.31 191.43 815.31 191.43 809.92 185.99 809.92 185.99 804.51 180.55 804.51 180.55 799.12 175.11 799.12 175.11 793.87 169.76 793.87 169.76 777.83" style="fill:#ccc"/><rect x="207.34" y="815.31" width="5.41" height="5.41" style="fill:#b3b3b3"/><rect x="212.78" y="809.92" width="5.41" height="5.41" style="fill:#b3b3b3"/><rect x="196.53" y="826.08" width="5.41" height="5.41" style="fill:#b3b3b3"/><rect x="201.97" y="820.69" width="5.41" height="5.41" style="fill:#b3b3b3"/><rect x="218.22" y="804.51" width="5.41" height="5.41" style="fill:#b3b3b3"/><rect x="196.74" y="777.83" width="5.41" height="5.41" style="fill:#b3b3b3"/><rect x="202.18" y="772.45" width="5.41" height="5.41" style="fill:#b3b3b3"/><rect x="223.66" y="799.12" width="5.41" height="5.41" style="fill:#b3b3b3"/><rect x="229.07" y="793.87" width="5.41" height="5.41" style="fill:#b3b3b3"/><rect x="229.07" y="788.56" width="5.41" height="5.41" style="fill:#b3b3b3"/><rect x="229.07" y="783.15" width="5.41" height="5.41" style="fill:#b3b3b3"/><rect x="229.07" y="777.83" width="5.41" height="5.41" style="fill:#b3b3b3"/><rect x="212.88" y="783.09" width="5.41" height="5.41" style="fill:#666"/><rect x="212.88" y="777.73" width="5.41" height="5.41" style="fill:#666"/><rect x="218.19" y="783.09" width="5.41" height="5.41" style="fill:#666"/><rect x="218.19" y="788.38" width="5.41" height="5.41" style="fill:#666"/><rect x="223.66" y="772.42" width="5.41" height="5.41" style="fill:#b3b3b3"/><rect x="212.92" y="767.07" width="5.41" height="5.41" style="fill:#b3b3b3"/><rect x="207.6" y="767.07" width="5.41" height="5.41" style="fill:#b3b3b3"/><rect x="218.27" y="767.07" width="5.41" height="5.41" style="fill:#b3b3b3"/><rect x="180.72" y="815.31" width="5.41" height="5.41" style="fill:#b3b3b3"/><rect x="175.28" y="809.92" width="5.41" height="5.41" style="fill:#b3b3b3"/><rect x="191.53" y="826.08" width="5.41" height="5.41" style="fill:#b3b3b3"/><rect x="186.09" y="820.69" width="5.41" height="5.41" style="fill:#b3b3b3"/><rect x="169.84" y="804.51" width="5.41" height="5.41" style="fill:#b3b3b3"/><rect x="191.32" y="777.83" width="5.41" height="5.41" style="fill:#b3b3b3"/><rect x="185.88" y="772.45" width="5.41" height="5.41" style="fill:#b3b3b3"/><rect x="164.4" y="799.12" width="5.41" height="5.41" style="fill:#b3b3b3"/><rect x="186.11" y="815.31" width="5.41" height="5.41" style="fill:#999"/><rect x="180.67" y="809.92" width="5.41" height="5.41" style="fill:#999"/><rect x="191.48" y="820.69" width="5.41" height="5.41" style="fill:#999"/><rect x="175.23" y="804.51" width="5.41" height="5.41" style="fill:#999"/><rect x="169.79" y="799.12" width="5.41" height="5.41" style="fill:#999"/><rect x="158.99" y="793.87" width="5.41" height="5.41" style="fill:#b3b3b3"/><rect x="158.99" y="788.56" width="5.41" height="5.41" style="fill:#b3b3b3"/><rect x="158.99" y="783.15" width="5.41" height="5.41" style="fill:#b3b3b3"/><rect x="158.99" y="777.83" width="5.36" height="5.32" style="fill:#b3b3b3"/><polygon points="164.4 777.83 164.4 783.24 158.99 783.24 158.99 783.15 164.35 783.15 164.35 777.83 164.4 777.83" style="fill:#b3b3b3"/><rect x="164.4" y="772.42" width="5.36" height="5.41" style="fill:#b3b3b3"/><polygon points="169.81 772.42 169.81 777.83 164.4 777.83 164.4 777.83 169.76 777.83 169.76 772.42 169.81 772.42" style="fill:#b3b3b3"/><rect x="164.35" y="793.87" width="5.41" height="5.41" style="fill:#999"/><rect x="191.46" y="815.31" width="5.41" height="5.41" style="fill:#999"/><rect x="186.02" y="809.92" width="5.41" height="5.41" style="fill:#999"/><rect x="196.83" y="820.69" width="5.41" height="5.41" style="fill:#999"/><rect x="180.57" y="804.51" width="5.41" height="5.41" style="fill:#999"/><rect x="175.14" y="799.12" width="5.41" height="5.41" style="fill:#999"/><rect x="169.7" y="793.87" width="5.41" height="5.41" style="fill:#999"/><rect x="164.35" y="788.56" width="5.41" height="5.41" style="fill:#999"/><rect x="164.35" y="783.15" width="5.41" height="5.41" style="fill:#999"/><rect x="164.4" y="777.83" width="5.36" height="5.31" style="fill:#b3b3b3"/><polygon points="164.4 777.83 164.4 783.15 169.76 783.15 169.76 783.24 164.35 783.24 164.35 777.83 169.76 777.83 169.76 777.83 164.4 777.83" style="fill:#999"/><rect x="169.81" y="772.48" width="5.36" height="5.35" style="fill:#b3b3b3"/><polygon points="175.18 772.42 175.18 772.49 169.81 772.49 169.81 777.83 169.76 777.83 169.76 772.42 175.18 772.42" style="fill:#999"/><rect x="175.14" y="767.07" width="5.41" height="5.41" style="fill:#b3b3b3"/><rect x="180.47" y="767.07" width="5.41" height="5.41" style="fill:#b3b3b3"/><rect x="169.79" y="767.07" width="5.41" height="5.41" style="fill:#b3b3b3"/></g><g style="opacity:0.4"><path d="M1631.34,381.24V368.13H1627v-4.36h-4.37v-4.36h-8.74v-4.34h-17.48v4.35h-8.74v4.39h-4.32v4.36H1592v4.33h4.34v13.12h-4.3V390h-8.75v-4.34h-4.39v-4.4h-4.32v34.93H1579v-4.34h4.37v-4.3h4.38v4.31c1.29,0,2.51,0,3.73,0,.48,0,.65.11.63.61,0,1.24,0,2.47,0,3.73h8.73v-8.65h8.75v8.65h8.75v-4.35h4.37V407.5H1627v4.34h4.37v4.32h4.32V381.24Zm-8.73,4.36h-4.32V390h-8.76v-4.34h-4.34v-4.36h8.67v-8.75h-4.31v-4.34h8.72v4.34h4.34Z" style="fill:#b3b3b3"/><path d="M1583.35,368.2h0v0h0v0Z" style="fill:#b3b3b3"/><path d="M1587.66,381.24v-8.7h-4.33V368.2H1579v13l7.31,0Z" style="fill:#b3b3b3"/><path d="M1579,381.22h0Z" style="fill:#b3b3b3"/></g><g style="opacity:0.4"><path d="M1437.87,743.89v-4.54h4.5V734.8h18.14l0,0v4.54H1465v4.5h4.51v-4.5h4.52v-4.52h13.6v4.43h4.52l.1.1q0,11,0,21.93a5.4,5.4,0,0,1-.08.69h-4.38c0,.28,0,.46-.06.64,0,1,0,1.92,0,2.87,0,.34-.06.68-.09,1v4.54h-4.53v4.53h-4.52v4.54h-4.53v4.52h-4.53v4.54H1465v-4.51h-4.53v-9.07H1465v4.49h4.52v-9H1474V766.5h-9V762h4.48v-4.53H1465v-4.54h-4.52V748.4H1456v-9h-9.06v4.5h-9Z" style="fill:#999"/><path d="M1496.7,739.34h4.5V762h-4.5V739.35Z" style="fill:#b3b3b3"/><path d="M1460.51,734.82h-18.16v-4.49h18.16Z" style="fill:#b3b3b3"/><path d="M1487.64,734.83H1474v-4.5h18.14v4.49l0,0Z" style="fill:#b3b3b3"/><path d="M1465,739.34h-4.54V734.8H1465Z" style="fill:#b3b3b3"/><path d="M1474.05,734.8v4.54h-4.54V734.8Z" style="fill:#b3b3b3"/><path d="M1492.26,739.36l-.1-.1v-4.43l0,0h4.52v4.53h-4.44Z" style="fill:#b3b3b3"/><path d="M1469.53,739.33v4.5H1465v-4.5Z" style="fill:#999"/><path d="M1437.86,743.88v4.49h-4.5v-4.48h4.5Z" style="fill:#999"/><path d="M1451.44,748.4h-4.52v-4.54h4.52v4.53Z" style="fill:#999"/><path d="M1446.91,748.4v4.49h-4.5v-4.48h4.5Z" style="fill:#999"/><path d="M1456,752.92h-4.52V748.4H1456v4.53Z" style="fill:#999"/><path d="M1433.3,753v4.45h-4.48V753Z" style="fill:#999"/><path d="M1460.49,757.45H1456v-4.53h4.52v4.54Z" style="fill:#999"/><path d="M1442.4,762h-4.51v-4.48h4.5V762Z" style="fill:#999"/><path d="M1446.92,762v-4.49h4.48V762h-4.48Z" style="fill:#999"/><path d="M1465,762h-4.53v-4.52H1465V762Z" style="fill:#999"/><path d="M1446.91,762v4.53h-4.52c0-1.52,0-3,0-4.55h4.51Z" style="fill:#999"/><path d="M1496.7,762v4.52h-4.54V762h4.52Z" style="fill:#b3b3b3"/><path d="M1442.38,766.5V771h-4.49v-4.49h4.49Z" style="fill:#999"/><path d="M1456,771h-4.49v-4.49H1456V771Z" style="fill:#999"/><path d="M1460.49,771v-4.52H1465V771h-4.51Z" style="fill:#999"/><path d="M1487.65,771.05c0-1.51,0-3,0-4.54h4.53v4.54Z" style="fill:#b3b3b3"/><path d="M1456,771h4.53v4.54H1456V771Z" style="fill:#999"/><path d="M1483.12,775.57V771h4.54v4.53Z" style="fill:#b3b3b3"/><path d="M1456,775.55v4.5h-4.49v-4.49H1456Z" style="fill:#999"/><path d="M1442.37,734.8v4.55h-4.5V734.8Z" style="fill:#b3b3b3"/><path d="M1478.6,780.1v-4.54h4.53v4.54Z" style="fill:#b3b3b3"/><path d="M1474.07,784.63v-4.54h4.54v4.54Z" style="fill:#b3b3b3"/><path d="M1469.55,789.15v-4.54h4.53v4.54Z" style="fill:#b3b3b3"/><path d="M1465,789.13h4.54v4.49H1465Z" style="fill:#b3b3b3"/><path d="M1496.69,762h-4.52a5.4,5.4,0,0,0,.08-.69q0-11,0-21.93h4.43Z" style="fill:gray"/><path d="M1492.16,766.5h-4.52c0-.34.08-.68.09-1,0-1,0-1.91,0-2.87,0-.18,0-.36.06-.64h4.38C1492.17,763.49,1492.16,765,1492.16,766.5Z" style="fill:gray"/><path d="M1492.16,734.83v4.43h-4.52v-4.43Z" style="fill:gray"/></g><g style="opacity:0.4"><path d="M397.1,154.49l-.07.07a4,4,0,0,0-.48-.07q-1.74,0-3.48,0a2.29,2.29,0,0,0-.4.06v4.37h0a2.31,2.31,0,0,0-.08.43V176.2a3.18,3.18,0,0,0,.06.47H397v.38c0,1.14,0,2.28,0,3.42a5.35,5.35,0,0,0,.07.56l-.26,0H379.75a3.73,3.73,0,0,1-.41,0v-4.33h-4.41a1.56,1.56,0,0,1,.34-.09h4.16l.7,0h7.48l.54,0a2.25,2.25,0,0,0,.06-.36V159.36c0-.13,0-.27,0-.44h-4.39v-4.41h-4.42v-4.42h-4.43v-4.4h-4.4v-31H405.9v31h-4.44v4.44a.13.13,0,0,1,0,.06.83.83,0,0,0-.21-.06h-4.19A42.31,42.31,0,0,0,397.1,154.49ZM383.82,128v4.43h4.4v13.24h4.39v-22h-4.4V128ZM375,119.17v22h4.34v-22Z" style="fill:#999"/><polygon points="405.9 145.69 405.9 145.69 405.9 145.69 405.9 145.69" style="fill:#b3b3b3"/><path d="M426.43,119.13H414.8a1.08,1.08,0,0,1,0-.19c0-2.89,0-5.78,0-8.67H366.12c0,.16,0,.32,0,.49v8.38H352.84v17.69h4.4v4.42h8.87v8.86h4.41v4.42h4.42v4.39h8.85v-4.41h-4.42v-4.42h-4.43v-4.4h-4.4v-31H410.3v31h-4.4V150c-.2,0-.35,0-.51,0H402a4.88,4.88,0,0,0-.52.06.13.13,0,0,1,0,.06v4.3H397.1l-.07.07c0,1.34,0,2.68.05,4,0,.12,0,.25,0,.37h8.82V154.5h4.43v-4.43h4.42v-8.83h8.84v-4.43H428V119.14ZM366.07,136.8h-4.39v-4.4h-4.41v-8.81h8.8Zm57.49-4.4h-4.39v4.39h-4.38V123.6h8.77Z" style="fill:#b3b3b3"/><path d="M402.86,176.62c-.47,0-.93,0-1.39,0h-.63l.59.08V181H397.1l-.26,0H379.75a3.73,3.73,0,0,1-.41,0v-4.33h-4.41v8.75h30.95v-8.8Z" style="fill:#b3b3b3"/><polygon points="392.67 158.92 392.67 158.92 392.67 158.92 392.67 158.92" style="fill:#b3b3b3"/><path d="M397,172.23V158.92h-4.37c0,.3,0,.6,0,.9V176c0,.17,0,.34,0,.52a.78.78,0,0,0,.23.06h8.56c0-1.46,0-2.91,0-4.36Z" style="fill:#b3b3b3"/><path d="M387.61,176.62l.54,0V159H383.8c0,.14,0,.28,0,.42v12.8h-.53l-3.83,0v4.37l.7,0Z" style="fill:#b3b3b3"/><path d="M401.46,172.23H397V158.92h-4.37v-4.37a2.29,2.29,0,0,1,.4-.06q1.74,0,3.48,0a4,4,0,0,1,.48.07c0,1.34,0,2.68.05,4,0,.12,0,.25,0,.37v13.18c.19,0,.35,0,.5,0H401A3.32,3.32,0,0,1,401.46,172.23Z" style="fill:gray"/><path d="M388.15,176.59V159H383.8l0-.07h4.4c0,.17,0,.31,0,.44v16.87A2.25,2.25,0,0,1,388.15,176.59Z" style="fill:#b3b3b3"/><path d="M379.43,172.23v4.37h-.09c0-1.32,0-2.65,0-4A2.79,2.79,0,0,1,379.43,172.23Z" style="fill:#b3b3b3"/><path d="M405.9,145.69v-31h4.4v31Z" style="fill:gray"/><path d="M401.46,150.13v-4.44h4.44V150c-.2,0-.35,0-.51,0H402A4.88,4.88,0,0,0,401.46,150.13Z" style="fill:gray"/><path d="M397.1,154.49a42.31,42.31,0,0,1-.05-4.36h4.19a.83.83,0,0,1,.21.06v4.3Z" style="fill:gray"/><path d="M383.82,128h4.39v-4.35h4.4v22h-4.39V132.39h-4.4Z" style="fill:#666"/><path d="M375,119.17h4.34v22H375Z" style="fill:#ccc"/><path d="M392.67,158.92c0,.3,0,.6,0,.9V176c0,.17,0,.34,0,.52a.78.78,0,0,0,.23.06h7.93l.59.08V181H397.1a5.35,5.35,0,0,1-.07-.56c0-1.14,0-2.28,0-3.42v-.38h-4.38a3.18,3.18,0,0,1-.06-.47V159.35A2.31,2.31,0,0,1,392.67,158.92Z" style="fill:#b3b3b3"/></g><path d="M1816.54,727.37v6.18h-12.29v6.16h-6.16v6.14h-36.94v-6.12H1755v-55.4h12.24v24.56h-6.12v18.49h18.45V708.92h-6.1V684.33h30.75V696.6h18.44v30.78h-6.15a5.32,5.32,0,0,0,.06-.56v-24h-12.3v24.61l.37,0h11.52A2.46,2.46,0,0,0,1816.54,727.37Z" style="fill:#b3b3b3;opacity:0.4"/><g style="opacity:0.4"><path d="M96.69,539.24v.06H79.44v-.08Z" style="fill:#fefefe"/><path d="M96.76,578.24a3.58,3.58,0,0,1-.43.08H92.5c0,.18,0,.33,0,.47,0,1.13,0,2.26,0,3.39a2.26,2.26,0,0,1-.07.43v-4.26H83.81v4.25a3,3,0,0,1-.07-.43v-3.38c0-.14,0-.27,0-.44l-.43,0H79.88a3,3,0,0,1-.43-.07h4.29V574h-4.3v-8.67H83.8V561h8.59v-4.31l.07,0v4.29h4.23l.06.09H92.47v4.28h4.29V574H92.5v4.29Z" style="fill:#ccc"/><path d="M96.79,543.67l-.1,0a2.17,2.17,0,0,0-.43-.08H80a2.26,2.26,0,0,0-.44.08l-.07.06v-4.36H96.69a1.78,1.78,0,0,1,.07.39c0,1.2,0,2.4,0,3.6a1.34,1.34,0,0,0,.1.38Z" style="fill:#b3b3b3"/><path d="M62.11,548v-4.31h8.68V548Z" style="fill:#ccc"/><path d="M109.79,556.66h4.26v4.28h-4.26Z" style="fill:#666"/><path d="M75.16,565.3c0,2.88,0,5.76,0,8.65a3.06,3.06,0,0,1-.07-.4V565.7A1.77,1.77,0,0,1,75.16,565.3Z" style="fill:#9a9a9a"/><path d="M75.13,547.88v-4.21h4.25a4.11,4.11,0,0,1-.47.07H75.72l-.47,0c0,.19,0,.34,0,.5,0,1.18,0,2.35,0,3.53a.29.29,0,0,1,0,.09Z" style="fill:#b3b3b3"/><path d="M96.69,560.92H92.46v-4.29a3.81,3.81,0,0,1,.07.47c0,1.08,0,2.16,0,3.25,0,.14,0,.29,0,.47.17,0,.32,0,.46,0h3.22A3.56,3.56,0,0,1,96.69,560.92Z" style="fill:#404040"/><path d="M79.51,543.62a2.26,2.26,0,0,1,.44-.08H96.26a2.17,2.17,0,0,1,.43.08l-.34,0H79.86Z" style="fill:#b3b3b3"/><polygon points="79.44 573.95 79.44 573.96 79.44 573.96 79.44 573.95" style="fill:#b3b3b3"/><polygon points="96.76 573.96 96.77 573.96 96.77 573.95 96.76 573.96" style="fill:#b3b3b3"/><polygon points="96.77 565.29 96.77 565.29 96.76 565.29 96.77 565.29" style="fill:#b3b3b3"/><path d="M118.45,591.27V587h4.3V552.89c0-.16,0-.32,0-.48a1.31,1.31,0,0,0-.38-.09h-3.95V548H101.12v-4.25c-.07,0-.08-.07-.1-.07H96.79l0,3.81V548H79.44v-4.27h-.06a4.11,4.11,0,0,1-.47.07H75.72l-.47,0c0,.19,0,.34,0,.5,0,1.18,0,2.35,0,3.53a.29.29,0,0,1,0,.09l-.06,0a.91.91,0,0,1-.31.09h-17v4.32l-.43,0h-3.5c-.14,0-.27,0-.41,0V587h4.29c0,.12,0,.21,0,.3,0,1.26,0,2.53,0,3.8a.71.71,0,0,1,0,.2Zm-8.66-34.61h4.26v4.28h-4.26Zm-34.71,9a1.77,1.77,0,0,1,.08-.4h4.28V561h4.34v-4.34h8.61l.07,0a3.81,3.81,0,0,1,.07.47c0,1.08,0,2.16,0,3.25,0,.14,0,.29,0,.47.17,0,.32,0,.46,0h3.22a3.56,3.56,0,0,1,.44.06l.06.09c0,1.42,0,2.85,0,4.28h4.3V574h-4.3c0,1.42,0,2.85,0,4.28a3.58,3.58,0,0,1-.43.08H92.5c0,.18,0,.33,0,.47,0,1.13,0,2.26,0,3.39a2.26,2.26,0,0,1-.07.43H83.81a3,3,0,0,1-.07-.43v-3.38c0-.14,0-.27,0-.44l-.43,0H79.88a3,3,0,0,1-.43-.07c0-1.43,0-2.86,0-4.28H75.15a3.06,3.06,0,0,1-.07-.4Z" style="fill:#b3b3b3"/><polygon points="79.44 565.29 79.44 565.29 79.44 565.29 79.44 565.29" style="fill:#b3b3b3"/></g><g style="opacity:0.4"><path d="M1266.42,297.86l-.7,4.36H1099.87V307l-4.89.34c-.09,1.59-.17,3-.25,4.6l-4.67.27c-.07,1.55-.13,3-.21,4.7h-9.55c-.08,1.71-.15,3.16-.24,4.78h-19.21v-4.55l4.63-.25c.08-1.55.16-3,.24-4.63l4.58-.28v-9.58h-38.75c-.23-1.68-.43-3.1-.62-4.52l0,0a12.52,12.52,0,0,1,2.16-.37q22.71,0,45.42,0c.47,0,1,.07,1.54.12v9.4l-4.52.26V312H1085c.07-1.44.14-2.88.22-4.62l4.68-.26.24-4.62,4.72-.22v-4.62c1.1-.06,2-.14,2.84-.14h165.88a23.93,23.93,0,0,1,2.9.36Z" style="fill:#b3b3b3"/><path d="M1031.16,243.88l.22-4.84h234.44v4.66H1034.3c-1.06,0-2.13.08-3.2.12Z" style="fill:#b3b3b3"/><path d="M1270.43,249l5.08-.52v43.94h-4.61v-2.63q0-19,0-38a19.7,19.7,0,0,0-.41-2.83Z" style="fill:#b3b3b3"/><path d="M1026,292.93l-4.23-.57V248.79h4.43l0,0c.07.81.21,1.62.21,2.43q0,19.56,0,39.14A18.12,18.12,0,0,1,1026,293Z" style="fill:#b3b3b3"/><path d="M1026.18,248.79l.4-4.91h4.58l-.06-.06v4.57l-5,.36Z" style="fill:#b3b3b3"/><path d="M1026,293l5.4-.43c-.17,2.06-.31,3.72-.45,5.39l0,0-4.24-.67c-.23-1.4-.46-2.85-.7-4.3Z" style="fill:#b3b3b3"/><path d="M1266.45,297.89c-.17-1.65-.34-3.3-.53-5.12h4.79v4.43l-4.3.66Z" style="fill:#b3b3b3"/><path d="M1270.47,249l-4.31-.67V244H1271c-.18,1.74-.36,3.39-.53,5.05Z" style="fill:#b3b3b3"/><path d="M1058.72,278.66V276.3h-2.36v-2.37H1054v-7.08h2.36v-2.37h2.36v-2.36h9.45v2.36h2.37v2.37h-4.73v-2.37h-4.72v2.37h-2.37v7.08h2.37v2.37h4.72v-2.37h4.73v2.37h-2.37v2.36Z" style="fill:#b3b3b3"/><path d="M1075.26,278.66V276.3h-2.36V264.48h2.36v-2.36h11.82v2.36h2.36V276.3h-2.36v2.36Zm2.37-2.36h7.08V264.48h-7.08Z" style="fill:#b3b3b3"/><path d="M1091.8,278.66V262.12h11.81v2.36H1106v2.37h2.36v7.08H1106v2.37h-2.37v2.36Zm4.73-2.36h4.72v-2.37h2.36v-7.08h-2.36v-2.37h-4.72Z" style="fill:#b3b3b3"/><path d="M1110.7,278.66V262.12h16.54v2.36h-11.81v4.73h9.45v2.36h-9.45v4.73h11.81v2.36Z" style="fill:#b3b3b3"/><path d="M1139.06,269.21v-2.36h16.54v2.36Zm0,4.72v-2.36h16.54v2.36Z" style="fill:#b3b3b3"/><path d="M1169.77,278.66V262.12h4.73V276.3H1184v2.36Z" style="fill:#b3b3b3"/><path d="M1188.67,278.66V276.3h-2.36V264.48h2.36v-2.36h11.82v2.36h2.36V276.3h-2.36v2.36Zm2.37-2.36h7.09V264.48H1191Z" style="fill:#b3b3b3"/><path d="M1212.3,278.66V276.3h-2.36v-2.37h-2.36v-2.36h-2.37v-9.45h4.73v7.09h2.36v2.36h2.37v-2.36H1217v-7.09h4.72v9.45h-2.36v2.36H1217v2.37h-2.36v2.36Z" style="fill:#b3b3b3"/><path d="M1224.12,278.66V262.12h16.53v2.36h-11.81v4.73h9.45v2.36h-9.45v4.73h11.81v2.36Z" style="fill:#b3b3b3"/></g><g style="opacity:0.8"><path d="M990.6,797.73v22.56h-5.46v5.49h-5.76v5.76H956.84v-5.78h22.52v-5.51h5.72V797.76h-5.76V792H957.51l-.67,0V786.5h22.51v5.44h5.77v5.79Z" style="fill:#b3b3b3;opacity:0.5"/><polygon points="951.37 797.78 951.37 820.28 956.83 820.28 956.83 825.75 951.34 825.75 951.34 820.32 945.56 820.32 945.56 797.75 951.3 797.75 951.3 791.97 956.83 791.97 956.83 797.78 951.37 797.78" style="fill:#b3b3b3;opacity:0.5"/><rect x="934.41" y="825.96" width="5.4" height="5.49" style="fill:#b3b3b3;opacity:0.5"/><rect x="939.95" y="831.6" width="5.48" height="5.48" style="fill:#b3b3b3;opacity:0.5"/><path d="M951.09,837.24v5.6c-.27,0-.54-.07-.82-.07h-4.69v-5.53Z" style="fill:#b3b3b3;opacity:0.5"/><path d="M984.86,842.83v5.51H951.19c0-.21,0-.4,0-.59v-4.34a5.62,5.62,0,0,0-.06-.56l.62,0h33.14Z" style="fill:#b3b3b3;opacity:0.5"/><rect x="985.03" y="837.24" width="5.44" height="5.5" style="fill:#b3b3b3;opacity:0.5"/><rect x="990.65" y="831.59" width="5.49" height="5.49" style="fill:#b3b3b3;opacity:0.5"/><rect x="996.29" y="825.95" width="5.48" height="5.48" style="fill:#b3b3b3;opacity:0.5"/><rect x="1001.91" y="792.22" width="5.5" height="33.58" style="fill:#b3b3b3;opacity:0.5"/><rect x="996.28" y="786.6" width="5.5" height="5.48" style="fill:#b3b3b3;opacity:0.5"/><rect x="990.66" y="780.99" width="5.49" height="5.47" style="fill:#b3b3b3;opacity:0.5"/><rect x="985.04" y="775.31" width="5.44" height="5.49" style="fill:#b3b3b3;opacity:0.5"/><path d="M984.87,769.69v5.49l-.59,0H951.62c-.18,0-.35,0-.52,0,0-.57,0-1.14.06-1.72,0-1.06,0-2.11,0-3.18,0-.18,0-.37,0-.59Z" style="fill:#b3b3b3;opacity:0.5"/><path d="M951.08,775.2v5.59h-5.5v-5.48c.21,0,.41,0,.62,0h4.28A4.09,4.09,0,0,0,951.08,775.2Z" style="fill:#b3b3b3;opacity:0.5"/><rect x="939.95" y="780.98" width="5.48" height="5.44" style="fill:#b3b3b3;opacity:0.5"/><rect x="934.4" y="786.6" width="5.42" height="5.48" style="fill:#b3b3b3;opacity:0.5"/><rect x="928.77" y="792.23" width="5.46" height="33.6" style="fill:#b3b3b3;opacity:0.5"/><polygon points="979.34 809 979.34 814.5 962.59 814.5 962.59 797.77 968.09 797.77 968.09 809 979.34 809" style="fill:#b3b3b3;opacity:0.5"/></g><g style="opacity:0.4"><path d="M1819.48,215.87h-43V157.66h43v15.76c0,.21,0,.41,0,.62a5.34,5.34,0,0,0,.53.09l3.12,0v3.72h-3.72v3.77h-3.79V161.46h-35.39v50.59h35.39V200.76a1.88,1.88,0,0,0-.45-.12H1812v-3.77h3.78v-3.76h3.75l0,3.8v18.35C1819.52,215.46,1819.49,215.67,1819.48,215.87Z" style="fill:#b3b3b3"/><path d="M1834.71,174.13v7.51h-3.79q0-3.75,0-7.5v0Z" style="fill:#666"/><path d="M1834.71,174.13l-3.77,0,0-.14h3.74Z" style="fill:#969696"/><path d="M1815.71,200.76v11.29h-35.39V161.46h35.39v20.18h-3.21a3.91,3.91,0,0,0-.58.1,5.43,5.43,0,0,0-.06.55c0,1,0,2.06,0,3.09h-3.16a3.9,3.9,0,0,0-.57.13v3.73h0l-3.74,0a2.9,2.9,0,0,0-.12.57c0,1,0,2.1,0,3.15l-.73,0-2.92.07a3.09,3.09,0,0,0-.09.53c0,1.09,0,2.18,0,3.27l-3.64,0-.09.09v7.51h-11.36v3.78h22.71V204.5l.12,0h3.63a2.27,2.27,0,0,0,.12-.5c0-1.07,0-2.15,0-3.23Zm-30.32-34.25v3.76h25.24v-3.76Zm25.25,12.61V175.4h-25.26v3.72Z" style="fill:#ccc"/><path d="M1819.5,193.11h-3.75v3.76H1812v3.77h0l-3.86.06h-3.79v-3.93l0-3.64h3.75v-3.88H1812V185.5h0l3.65,0,.09-.09,0-3.64v-.12h3.78v-3.77h7.63v3.9l0,3.62-.11.09h-3.65v3.84s0,0,0,.05h0l-.09-.06h-3.68V193a.08.08,0,0,0,0,.1h0A.06.06,0,0,0,1819.5,193.11Z" style="fill:gray"/><path d="M1827.09,185.39c0-1.21,0-2.42,0-3.62l3.72,0h0c0,1.2,0,2.41,0,3.62H1829l-1.66.09-.1,0h-.12Z" style="fill:#666"/><path d="M1830.83,185.38c0-1.21,0-2.42,0-3.62h.13c0,1.08,0,2.16,0,3.24a2.92,2.92,0,0,1-.12.49A.38.38,0,0,0,1830.83,185.38Z" style="fill:#b3b3b3"/><path d="M1830.84,174.09l.1,0,0,7.5,0,0,0,0h-3.72v-3.76h-3.79v-3.74h0c.21,0,.41,0,.62,0Z" style="fill:#e6e6e6"/><path d="M1808.1,204.5v3.78h-22.71V204.5h11.36V197l.09-.09,3.64,0h0c0,.21,0,.41,0,.62v7h7.57Z" style="fill:#666"/><path d="M1785.39,166.51h25.24v3.76h-25.24Z" style="fill:#b3b3b3"/><path d="M1810.64,179.12h-25.26V175.4h25.26Z" style="fill:#b3b3b3"/><path d="M1796.84,196.9l-.09.09Z" style="fill:#1f1202"/><path d="M1796.72,208.28h0Z" style="fill:#c6c0b7"/><path d="M1808.13,200.85l0,3.66h-7.58v-7c0-.21,0-.41,0-.62h.12l3.63,0a.12.12,0,0,0,.1,0v3.81h3.79Z" style="fill:#e6e6e6"/><path d="M1804.34,193.13V193l0-3.63h3.73v3.76Z" style="fill:#666"/><path d="M1827.08,189.24l-3.2,0a5.43,5.43,0,0,0-.55.06v-3.84H1827l.12,0h0Z" style="fill:#666"/><path d="M1811.84,185.49h.14v3.76h-3.76v-3.74Z" style="fill:#666"/><path d="M1804.23,196.86l-3.63,0v-3.73l3.75,0,0,3.64Z" style="fill:#666"/><path d="M1812,185.51c0-1.26,0-2.51,0-3.76h3.72l0,3.64-.09.09Z" style="fill:#666"/><path d="M1823.25,189.31c0,1.23,0,2.46,0,3.68l-3.64,0v-3.72Z" style="fill:#666"/><path d="M1808.13,200.85v-.16l3.86-.06-.09.11c0,1.21,0,2.42-.05,3.64h-3.62c0-1,0-2,0-3A3.35,3.35,0,0,0,1808.13,200.85Z" style="fill:#666"/><path d="M1827.1,185.51l-.12,0,.11-.09Z" style="fill:#e68a0f"/><path d="M1804.23,196.86l.1-.1v.12A.12.12,0,0,1,1804.23,196.86Z" style="fill:#1f1202"/><path d="M1815.61,185.48l.09-.09Z" style="fill:#1f1202"/><path d="M1830.84,174.09H1824c-.21,0-.41,0-.62,0V174l0-3.63h7.48Z" style="fill:#666"/></g><g style="opacity:0.8"><path d="M370.78,1003v-4.9h0c.22,0,.44-.06.66-.06h28.37c.22,0,.44,0,.66.06h0v4.9Z" style="fill:#b3b3b3;opacity:0.4"/><path d="M352.53,979.87h-4.9V950.19h4.89c0,.26.05.53.06.8,0,1.37,0,2.74.05,4.11,0,.27-.05.54-.05.81V979c0,.29,0,.58-.06.88Z" style="fill:#b3b3b3;opacity:0.4"/><path d="M370.78,932v-4.86h29.69v4.84c-.22,0-.44.06-.65.06H371.43c-.22,0-.43,0-.65-.06Z" style="fill:#b3b3b3;opacity:0.4"/><path d="M418.71,950.19h4.86v29.68h-4.84c0-.3-.06-.59-.06-.88V955.91c0-.27,0-.54-.05-.81s0-.58.05-.87l.06-4Z" style="fill:#b3b3b3;opacity:0.4"/><path d="M362.49,937v-5h8.29v0l0,5-3.26,0-5,0Z" style="fill:#b3b3b3;opacity:0.4"/><path d="M400.47,932h8.29v5h0l-5,0-3.27,0,0-5Z" style="fill:#b3b3b3;opacity:0.4"/><path d="M352.54,950.19V941.9h5v0l0,5,0,3.27-5,0Z" style="fill:#b3b3b3;opacity:0.4"/><path d="M413.67,941.9h5v8.29h0l-5,0,0-3.27,0-5Z" style="fill:#b3b3b3;opacity:0.4"/><path d="M418.72,979.87v8.31h-5v-8.31h5Z" style="fill:#b3b3b3;opacity:0.4"/><path d="M408.77,993.08v5h-8.3v-5h8.3Z" style="fill:#b3b3b3;opacity:0.4"/><path d="M357.58,941.9V937h4.88v4.91h-4.9Z" style="fill:#b3b3b3;opacity:0.4"/><path d="M408.76,937h4.91v4.88h-4.9V937Z" style="fill:#b3b3b3;opacity:0.4"/><path d="M413.68,988.18v4.9h-4.89v-4.89h4.89Z" style="fill:#b3b3b3;opacity:0.4"/><path d="M370.78,998.12h-8.3v-5h8.3v5Z" style="fill:#b3b3b3;opacity:0.4"/><path d="M352.6,980.19l-.07-.32h5v8.31h0l-4.89-.07c0-1.78,0-3.57,0-5.36C352.67,981.9,352.63,981,352.6,980.19Z" style="fill:#b3b3b3;opacity:0.4"/><path d="M362.48,993.08h-4.91v-4.9h4.89v4.89Z" style="fill:#b3b3b3;opacity:0.4"/><path d="M352.6,980.19c0,.85.07,1.71.08,2.56,0,1.79,0,3.58,0,5.36,0-.05-.11-.11-.11-.17Z" style="fill:#060605;opacity:0.4"/><path d="M362.46,993.08v-4.89h-4.89v-8.31h-5.05c0-.3.06-.59.06-.88V955.91c0-.27,0-.54.05-.81h4.91v-4.93c0-1.09,0-2.18,0-3.27h4.89v-5h5V937l3.26,0,20.62,0,9.12,0,3.27,0v4.89h5v5h4.89c0,1.09,0,2.18,0,3.27v4.93h4.91c0,.27.05.54.05.81V979c0,.29,0,.58.06.88h-5.05v8.31h-4.89v4.89h-8.32v5c-.22,0-.44-.06-.66-.06H371.44c-.22,0-.44,0-.66.06v-5Zm1.61-39.65,10,0v9.9H379v-9.88H374v-4.88h-10v4.86h-4.85v9.88h4.9c0-2.42,0-4.8,0-7.17C364.13,955.25,364.1,954.34,364.07,953.43Zm43.08,0v-4.89h-9.94v4.91h-4.93v9.87h4.91v-9.89l10,0c0,.27-.06.54-.06.81v9.12H412v-9.91Zm-13.37,39.6a3.7,3.7,0,0,0,.13-.74c0-1.37,0-2.74,0-4.16h4.95v-4.92h1.63l3.22-.1a2.68,2.68,0,0,0,.11-.55V968.93a5.07,5.07,0,0,0-.05-.56H367.46c0,.17,0,.29,0,.41v13.87a2.08,2.08,0,0,0,.11.48,6.9,6.9,0,0,0,.78.09h4.12v5h4.89c0,1.36,0,2.66,0,4a5.31,5.31,0,0,0,.13.89,2.23,2.23,0,0,0,.36.05h15.59A2.23,2.23,0,0,0,393.78,993.05Z" style="fill:#999;opacity:0.4"/><path d="M357.54,950.17v4.93h-4.91c0-1.37,0-2.74-.05-4.11,0-.27,0-.54-.06-.8Z" style="fill:#ccc;opacity:0.4"/><path d="M400.49,937l-9.12,0-20.62,0,0-5c.22,0,.43.06.65.06h28.39c.21,0,.43,0,.65-.06Z" style="fill:#ccc;opacity:0.4"/><path d="M418.62,955.1h-4.91v-4.93l5,0-.06,4C418.66,954.52,418.64,954.81,418.62,955.1Z" style="fill:#ccc;opacity:0.4"/><path d="M367.49,937v4.89h-5V937Z" style="fill:#ccc;opacity:0.4"/><path d="M408.78,941.89h-5V937l5,0Z" style="fill:#ccc;opacity:0.4"/><path d="M362.48,941.88v5h-4.89c0-1.68,0-3.35,0-5Z" style="fill:#ccc;opacity:0.4"/><path d="M413.66,946.9h-4.89v-5h4.91Z" style="fill:#ccc;opacity:0.4"/><path d="M367.54,983.13a2.08,2.08,0,0,1-.11-.48V968.78c0-.12,0-.24,0-.41h36.31a5.07,5.07,0,0,1,.05.56v13.65a2.68,2.68,0,0,1-.11.55h-4.82l-.06-8.29v-1.49H372.42v2l-.06,7.77Z" style="fill:#b3b3b3;opacity:0.4"/><path d="M393.78,993.05a2.23,2.23,0,0,1-.36.05H377.83a2.23,2.23,0,0,1-.36-.05c0-1.61,0-3.23,0-4.84.27,0,.54-.05.81-.05H391.8l2,.05Z" style="fill:#ccc;opacity:0.4"/><path d="M374,953.47H379v9.88h-4.91v-9.88Z" style="fill:#ccc;opacity:0.4"/><path d="M397.19,953.45v9.89h-4.91v-9.87h4.93Z" style="fill:#ccc;opacity:0.4"/><path d="M407.16,953.45H412v9.91h-4.9v-9.12c0-.27,0-.54.06-.81Z" style="fill:#ccc;opacity:0.4"/><path d="M397.21,953.47v-4.91h9.94v4.89l0,0-10,0Z" style="fill:#ccc;opacity:0.4"/><path d="M364.09,953.45v-4.86h10v4.86l-10,0Z" style="fill:#ccc;opacity:0.4"/><path d="M364.07,953.43c0,.91.06,1.82.07,2.73,0,2.37,0,4.75,0,7.17h-4.9v-9.88h4.85Z" style="fill:#ccc;opacity:0.4"/><path d="M377.46,988.21c0,1.61,0,3.23,0,4.84a5.31,5.31,0,0,1-.13-.89c0-1.3,0-2.6,0-4h-4.89v-5h-4.12a6.9,6.9,0,0,1-.78-.09h9.84c0,.56,0,1,0,1.38C377.4,985.75,377.43,987,377.46,988.21Z" style="fill:#ccc;opacity:0.4"/><path d="M393.78,993.05c0-1.61,0-3.23,0-4.84v-5.08h9.92l-3.22.1h-1.63v4.92h-4.95c0,1.42,0,2.79,0,4.16A3.7,3.7,0,0,1,393.78,993.05Z" style="fill:#ccc;opacity:0.4"/><path d="M398.89,983.13h-5.1v5.08l-2-.05H378.27c-.27,0-.54,0-.81.05,0-1.23-.06-2.46-.08-3.7,0-.41,0-.82,0-1.38h-5l.06-7.77v-2h26.41v1.49Z" style="fill:#666;opacity:0.4"/></g><g style="opacity:0.4"><path d="M1799.36,942.25a2.29,2.29,0,0,1-1.07-2.19q0-23.1,0-46.18c0-1.76.47-2.22,2.24-2.22h27.18c1.74,0,2.23.49,2.23,2.25v7.21h7.18c1.81,0,2.3.5,2.3,2.31V930.5c0,1.79-.5,2.28-2.33,2.28H1830v5.66c0,.6,0,1.19,0,1.78a2.35,2.35,0,0,1-1,2Zm27.33-37.88H1811v25.15h15.65Zm-25.15,0v6.2h6.17v-6.2Zm15.63-3.26V894.9H1811v6.19Zm-15.64,0h6.18v-6.16h-6.18Zm6.19,38v-6.2h-6.15v6.2Zm3.32-6.22V939h6.16v-6.19Zm19-28.47v6.17h6.18v-6.17Zm-22.27,19h-6.21v6.16h6.21Zm22.26,6.16h6.16v-6.16H1830ZM1807.7,920v-6.15h-6.16V920Zm28.49-6.15H1830V920h6.15ZM1820.52,901h6.15v-6.15h-6.15Zm6.15,38v-6.15h-6.13V939Z" style="fill:#b3b3b3"/><path d="M1685.28,923.33h-6.86c-2.32,0-2.64-.33-2.64-2.69V913.9h-6.28v26c0,1.92-.44,2.37-2.32,2.37h-8.4c-1.39,0-2-.58-2-2q0-23.29,0-46.6c0-1.46.57-2,2-2q4.31,0,8.61,0c1.47,0,2,.54,2,2,0,2.44,0,4.89,0,7.45h7.16c1.87,0,2.33.47,2.33,2.37v7.05h6.29V893.94c0-1.79.46-2.25,2.2-2.25q4.2,0,8.4,0c1.49,0,2,.53,2,2v46.6c0,1.46-.55,2-2,2h-8.5c-1.61,0-2.1-.5-2.1-2.15,0-5.21,0-10.42,0-15.63Zm3.25-28.45v6.2h6.14v-6.2Zm6.2,38h-6.19V939h6.19Zm-6.21-9.5v6.18h6.16v-6.18Zm-22.29,6.2v-6.16h-6.17v6.16Zm-6.14,3.29V939h6.15v-6.17Zm0-31.77h6.16v-6.18h-6.16Zm0,3.31v6.15h6.18v-6.15Zm34.65,6.18v-6.17h-6.18v6.17Zm-25.13-6.2v6.16h6.12v-6.16Zm25.11,15.67V913.9h-6.15v6.16Zm-9.46-6.14h-6.15v6.13h6.15Zm-19,0h-6.2V920h6.2Z" style="fill:#b3b3b3"/><path d="M1737.45,902.79c-.27-.46-.43-1.15-.83-1.34a1.23,1.23,0,0,1-.76-1.38c0-1.7,0-3.4,0-5.15h6.28c0,2,0,3.92,0,5.86,0,.15-.22.3-.34.45l-1.23,1.55Z" style="fill:#666"/><path d="M1790.4,897.12a1.84,1.84,0,0,0-1.57,2.21c.05.55,0,1.1,0,1.72h-6.23v-6.17h7.79Z" style="fill:#666"/><path d="M1782.61,910.54v-6.18h6.16v6.18Z" style="fill:#666"/><path d="M1788.77,939h-6.15v-6.19h6.15Z" style="fill:#666"/><path d="M1779.32,894.9v6.16h-6.16V894.9Z" style="fill:#666"/><path d="M1760.31,901.07h-6.17v-6.15h6.17Z" style="fill:#666"/><path d="M1760.32,904.38v6.15h-6.19v-6.15Z" style="fill:#666"/><path d="M1773.13,929.51v-6.13h6.18v6.13Z" style="fill:#666"/><path d="M1760.31,929.53h-6.16v-6.14h6.16Z" style="fill:#666"/><path d="M1760.3,939h-6.15v-6.15h6.15Z" style="fill:#666"/><path d="M1754.16,913.87h6.12V920h-6.12Z" style="fill:#666"/><path d="M1779.32,913.9V920h-6.18V913.9Z" style="fill:#666"/><path d="M1782.59,920v-6.11h6.19V920Z" style="fill:#666"/><path d="M1763.67,894.89h6.12v6.16h-6.12Z" style="fill:#666"/><path d="M1763.66,913.89h6.13V920h-6.13Z" style="fill:#666"/><path d="M1801.54,904.35h6.17v6.2h-6.17Z" style="fill:#666"/><path d="M1817.17,901.09H1811V894.9h6.14Z" style="fill:#666"/><path d="M1801.53,901.07v-6.16h6.18v6.16Z" style="fill:#666"/><path d="M1807.72,939.05h-6.15v-6.2h6.15Z" style="fill:#666"/><path d="M1811,932.83h6.16V939H1811Z" style="fill:#666"/><path d="M1830,904.36h6.18v6.17H1830Z" style="fill:#666"/><path d="M1807.74,923.36v6.16h-6.21v-6.16Z" style="fill:#666"/><path d="M1830,929.52v-6.16h6.16v6.16Z" style="fill:#666"/><path d="M1807.7,920h-6.16v-6.15h6.16Z" style="fill:#666"/><path d="M1836.19,913.88V920H1830v-6.15Z" style="fill:#666"/><path d="M1820.52,901v-6.15h6.15V901Z" style="fill:#666"/><path d="M1826.67,939h-6.13v-6.15h6.13Z" style="fill:#666"/><path d="M1713.64,901.11h-6.19v-6.17h6.19Z" style="fill:#666"/><path d="M1717,894.9h6.13v6.2H1717Z" style="fill:#666"/><path d="M1713.62,939.05h-6.15V932.9h6.15Z" style="fill:#666"/><path d="M1716.94,932.86h6.16V939h-6.16Z" style="fill:#666"/><path d="M1713.66,923.43v6.12h-6.2v-6.12Z" style="fill:#666"/><path d="M1707.43,910.55v-6.12h6.2v6.12Z" style="fill:#666"/><path d="M1726.42,901.07v-6.15h6.15v6.15Z" style="fill:#666"/><path d="M1735.93,932.87h6.18V939h-6.18Z" style="fill:#666"/><path d="M1723.1,920.06H1717V914h6.14Z" style="fill:#666"/><path d="M1732.59,932.9V939h-6.12V932.9Z" style="fill:#666"/><path d="M1707.46,920v-6.1h6.16V920Z" style="fill:#666"/><path d="M1726.46,913.92h6.12V920h-6.12Z" style="fill:#666"/><path d="M1688.53,894.88h6.14v6.2h-6.14Z" style="fill:#666"/><path d="M1694.73,932.88V939h-6.19v-6.13Z" style="fill:#666"/><path d="M1688.52,923.38h6.16v6.18h-6.16Z" style="fill:#666"/><path d="M1666.23,929.58h-6.17v-6.16h6.17Z" style="fill:#666"/><path d="M1660.09,932.87h6.15V939h-6.15Z" style="fill:#666"/><path d="M1660.05,901.1v-6.18h6.16v6.18Z" style="fill:#666"/><path d="M1660.05,904.41h6.18v6.15h-6.18Z" style="fill:#666"/><path d="M1694.7,910.59h-6.18v-6.17h6.18Z" style="fill:#666"/><path d="M1669.57,904.39h6.12v6.16h-6.12Z" style="fill:#666"/><path d="M1694.68,920.06h-6.15V913.9h6.15Z" style="fill:#666"/><path d="M1685.22,913.92v6.13h-6.15v-6.13Z" style="fill:#666"/><path d="M1666.25,913.91V920h-6.2v-6.13Z" style="fill:#666"/><path d="M1743.05,929.63H1717v-6.3h16.75c1.62,0,2.15-.53,2.16-2.13,0-2.77,0-5.53,0-8.29,0-1.8-.49-2.28-2.33-2.28H1717v-6.28h18.42a5,5,0,0,0,.59,0l0,0h6.47c.4,0,.87,0,1.45-.05,1-.08,1.42-.75,1.42-2.29v-8.18c0-1.62-.53-2.15-2.13-2.15h-36.93c-1.54,0-2.06.53-2.06,2.08q0,23.24,0,46.48c0,1.49.53,2,2,2h37c1.53,0,2.07-.55,2.08-2.09V931.9C1745.35,930.08,1744.89,929.63,1743.05,929.63Zm-16.59-15.71h6.12V920h-6.12Zm-9.5,0h6.14v6.11H1717Zm18.91-19h6.28c0,2,0,3.92,0,5.86,0,.1-.09.19-.19.29h-5.85a1.5,1.5,0,0,1-.24-1C1735.89,898.37,1735.87,896.67,1735.87,894.92Zm-9.45,0h6.15v6.15h-6.15Zm-9.47,0h6.13v6.2H1717Zm-9.5,0h6.19v6.17h-6.19Zm0,9.49h6.2v6.12h-6.2Zm0,9.49h6.16V920h-6.16Zm6.16,25.13h-6.15V932.9h6.15Zm0-9.5h-6.2v-6.12h6.2Zm9.44,9.47h-6.16v-6.16h6.16Zm9.49,0h-6.12V932.9h6.12Zm9.52,0h-6.18v-6.15h6.18Z" style="fill:#b3b3b3"/><path d="M1792,931.89c0-1.86-.44-2.3-2.26-2.31h-7.15v-6.27h7.15c1.76,0,2.26-.5,2.26-2.23V899.39c0-.13,0-.24,0-.35h0v-5.79h0a1.34,1.34,0,0,0,0-.2c-.12-.91-.8-1.38-2-1.39h-36.83c-1.8,0-2.27.47-2.27,2.31q0,23,0,46a2.44,2.44,0,0,0,1,2.32h10.71a2.8,2.8,0,0,0,1-2.46c0-5.45,0-10.9,0-16.42h6.28c0,2.35,0,4.68,0,7,0,2,.44,2.4,2.4,2.4h7.09c0,2.5,0,4.91,0,7.31a2.12,2.12,0,0,0,1.12,2.16H1791a2.29,2.29,0,0,0,1.07-2.19C1792,937.34,1792,934.61,1792,931.89Zm-37.88-37h6.17v6.15h-6.17Zm6.16,44.1h-6.15v-6.15h6.15Zm0-9.49h-6.16v-6.14h6.16Zm-6.15-9.51v-6.15h6.12V920Zm6.16-9.49h-6.19v-6.15h6.19Zm3.35-15.64h6.12v6.16h-6.12Zm6.12,25.13h-6.13v-6.13h6.13Zm-6.16-9.47v-6.18h15.66v6.18Zm15.68,19h-6.18v-6.13h6.18Zm0-9.52h-6.18V913.9h6.18Zm0-18.93h-6.16V894.9h6.16Zm3.29-6.18h6.23v3.85a3,3,0,0,0,0,.6c0,.1,0,.21,0,.31v1.41h-6.23Zm6.16,9.48v6.18h-6.16v-6.18Zm-6.18,9.55h6.19V920h-6.19Zm6.18,25.11h-6.15v-6.19h6.15Z" style="fill:#b3b3b3"/></g><g style="opacity:0.8"><path d="M715.66,212.61H711c0-.18,0-.36,0-.53V166.26c0-.15,0-.3,0-.45h4.63Z" style="fill:gray;opacity:0.5"/><path d="M715.66,165.81H711a6.49,6.49,0,0,0-.09.74v45c0,.15,0,.3,0,.44,0,.39-.14.53-.52.52-1,0-2,0-3,0h-75a7.29,7.29,0,0,1-.79-.08h78.35a3.39,3.39,0,0,0,.45,0,.48.48,0,0,0,.49-.52V166.66c0-.14,0-.27,0-.4,0-.33-.13-.45-.45-.45h-3.52c-.37,0-.51.15-.48.51,0,.14,0,.29,0,.44v40.39a6.2,6.2,0,0,1-.08.74V166.4c0-.67,0-.68-.66-.67H697l0-.11V161l5,0h8.32c.74,0,.74,0,.74.72v3.38c0,.61,0,.61.63.61h4Z" style="fill:#b3b3b3;opacity:0.5"/><path d="M706.32,207.89a6.2,6.2,0,0,0,.08-.74V166.76c0-.15,0-.3,0-.44,0-.36.11-.52.48-.51h3.52c.32,0,.47.12.45.45,0,.13,0,.26,0,.4v45.23a.48.48,0,0,1-.49.52,3.39,3.39,0,0,1-.45,0H631.56a8,8,0,0,1-.08-.84v-44.9a2.17,2.17,0,0,0,0-.36c0-.38.13-.53.52-.52h3.42c.58,0,.6,0,.6.61v.45q0,20.13,0,40.28a6.2,6.2,0,0,0,.08.74h32c.72,0,.72,0,.72-.75V166.69c0-.16,0-.33,0-.49s.12-.4.4-.4h3.91c.29,0,.41.13.4.4s0,.33,0,.49v40.38c0,.1,0,.21,0,.31,0,.38.12.52.51.52Z" style="fill:#b3b3b3;opacity:0.5"/><path d="M711,212.6c0,1.35,0,2.7,0,4.05,0,.66,0,.66-.64.66H678.84c-.62,0-.62,0-.62.63v4h-14c0-.19,0-.36,0-.53,0-1.22,0-2.43,0-3.65,0-.32-.09-.47-.43-.44a2.67,2.67,0,0,1-.4,0H632c-.64,0-.64,0-.64-.66,0-1.35,0-2.7,0-4.05h0l.09,0H711Z" style="fill:gray;opacity:0.5"/><path d="M631.39,212.6c-1.39,0-2.79,0-4.18,0-.44,0-.54-.14-.54-.56,0-7.45,0-14.9,0-22.36q0-11.92,0-23.87h4.52a8,8,0,0,1,.08.83q0,22.47,0,44.93c0,.25.05.5.07.75v.28Z" style="fill:gray;opacity:0.5"/><path d="M668.84,161.1v4.53H632.11c-.61,0-.63,0-.63-.62,0-1.08,0-2.16,0-3.24,0-.67,0-.67.67-.67Z" style="fill:#b3b3b3;opacity:0.5"/><path d="M697,193.84h-4.71V168.59h0a6,6,0,0,0,.07-.61c0-1.29,0-2.58,0-3.87,0-.36.1-.52.45-.52,1.39,0,2.78,0,4.17,0l0,5v25.25Z" style="fill:#666;opacity:0.5"/><path d="M692.24,165.74H674.09c-.53,0-.56-.05-.55-.59,0-1.15,0-2.31,0-3.46,0-.53.07-.66.57-.66h17.8l.4,0v4.59Z" style="fill:#b3b3b3;opacity:0.5"/><path d="M692.25,170.43v4.73H679.09c-.89,0-.89,0-.89-.91v-3.16c0-.61,0-.64.66-.64Z" style="fill:#b3b3b3;opacity:0.5"/><path d="M692.25,179.78v4.72H678.82c-.61,0-.62,0-.62-.62v-3.51c0-.56.07-.6.63-.55a5.7,5.7,0,0,0,.71,0c3.8,0,7.59,0,11.38,0C691.37,179.85,691.81,179.8,692.25,179.78Z" style="fill:#b3b3b3;opacity:0.5"/><path d="M692.25,189.2v4.63l-1.28,0H678.89c-.69.06-.69.06-.69-.65s0-1.6,0-2.4c0-.37,0-.74,0-1.11s.11-.52.48-.5.77,0,1.16,0Z" style="fill:#b3b3b3;opacity:0.5"/><path d="M692.27,168.17q0-3.57,0-7.14H697c0,2.38,0,4.76,0,7.15a1.69,1.69,0,0,1-.42.13h-3.85A1.39,1.39,0,0,1,692.27,168.17Z" style="fill:#666;opacity:0.5"/><path d="M697,175.16v-4.72c1.37,0,2.73,0,4.09,0,.42,0,.57.14.56.57q0,1.81,0,3.63c0,.39-.13.53-.52.53C699.73,175.14,698.35,175.15,697,175.16Z" style="fill:#b3b3b3;opacity:0.5"/><path d="M697,184.5v-4.72l4.26,0c.27,0,.38.09.38.35,0,1.32,0,2.64,0,4,0,.37-.23.39-.5.39Z" style="fill:#b3b3b3;opacity:0.5"/><path d="M697,193.84V189.2l2.66,0,1.55,0c.3,0,.42.13.42.43,0,1.25,0,2.51,0,3.77,0,.35-.16.45-.48.45H697Z" style="fill:#b3b3b3;opacity:0.5"/><path d="M668.84,161.1H632.15c-.67,0-.67,0-.67.67,0,1.08,0,2.16,0,3.24,0,.6,0,.62.63.62h36.73a3.55,3.55,0,0,1-.64.1H636.89c-.79,0-.79,0-.79.77v41.39a6.2,6.2,0,0,1-.08-.74q0-20.15,0-40.28v-.45c0-.58,0-.6-.6-.61H632c-.39,0-.55.14-.52.52a2.17,2.17,0,0,1,0,.36v44.9a8,8,0,0,0,.08.84h0l-.09.16-.09,0v-.28c0-.17,0-.33,0-.49q0-17.94,0-35.88c0-3.38,0-6.76,0-10.14v-.1c0-1.41,0-2.82,0-4.22,0-.37.13-.52.5-.5s.68,0,1,0h35.22A6.06,6.06,0,0,1,668.84,161.1Z" style="fill:#b3b3b3;opacity:0.5"/><path d="M631.39,165.72v.1h-4.69a3.45,3.45,0,0,1,.54-.11Z" style="fill:gray;opacity:0.5"/><path d="M631.47,212.59l.09-.16a7.29,7.29,0,0,0,.79.08h75c1,0,2,0,3,0,.38,0,.56-.13.52-.52,0-.14,0-.29,0-.44v-45a6.49,6.49,0,0,1,.09-.74c0,.15,0,.3,0,.45v45.82c0,.17,0,.35,0,.53H631.47Z" style="fill:#b5b5b5;opacity:0.5"/><path d="M652.52,170.44h11c.64,0,.66,0,.66.64v3.47c0,.55,0,.6-.57.6H641.27c-.41,0-.55-.13-.54-.54,0-1.2,0-2.4,0-3.6,0-.56,0-.58.58-.58Z" style="fill:#b3b3b3;opacity:0.5"/><path d="M652.43,203.26H641.36c-.62,0-.63,0-.63-.62,0-1.19,0-2.37,0-3.56,0-.41.13-.54.54-.54q11.21,0,22.41,0c.41,0,.54.14.54.54,0,1.17,0,2.34,0,3.51,0,.61-.07.67-.67.67Z" style="fill:#b3b3b3;opacity:0.5"/><path d="M652.47,184.5H641.36c-.62,0-.62,0-.63-.62,0-1.17,0-2.34,0-3.51,0-.4.07-.63.55-.53a3.18,3.18,0,0,0,.62,0h20.94a5.85,5.85,0,0,0,.84,0c.39-.07.52.11.52.46,0,.62,0,1.24,0,1.86s0,1.25,0,1.87c0,.36-.13.5-.5.49H652.47Z" style="fill:#b3b3b3;opacity:0.5"/><path d="M652.49,189.2h11c.63,0,.69.06.7.68v3.24c0,.72,0,.73-.71.73H644.69q-1.71,0-3.42.06c-.42,0-.55-.15-.54-.55,0-1.17,0-2.34,0-3.51,0-.64,0-.65.64-.65Z" style="fill:#b3b3b3;opacity:0.5"/><path d="M689.92,203.26h-11c-.73,0-.73,0-.73-.75v-3.34c0-.61,0-.62.62-.62h22.37c.31,0,.42.13.42.43,0,1.32,0,2.64,0,4,0,.1-.15.24-.26.3a1.06,1.06,0,0,1-.4,0Z" style="fill:#b3b3b3;opacity:0.5"/><path d="M631.21,165.82h.17c0,3.38,0,6.76,0,10.14q0,17.94,0,35.88c0,.16,0,.32,0,.49,0-.25-.07-.5-.07-.75q0-22.46,0-44.93A8,8,0,0,0,631.21,165.82Z" style="fill:#555;opacity:0.5"/></g></g></g></svg>