<svg xmlns="http://www.w3.org/2000/svg" xmlns:xlink="http://www.w3.org/1999/xlink" viewBox="0 0 1920 1080" xmlns:v="https://vecta.io/nano"><style><![CDATA[.a{fill:#b3b3b3}.b{opacity:.5}.c{opacity:.4}.d{fill:#666}.e{fill:#999}.f{fill:gray}.g{fill:#ccc}]]></style><path d="M0 0h1920v1080H0z" class="d"/><path d="M986.86 102.9V81.51h-3.51v-2.18h-38.2v2.18h-3.51v33.4H938v3.82h-7.19v3.81h-6v3.82h-7.53v-3.82h-4.2v-3.82h-5.4v-3.82h-3.45v19.7h3v3.81h4.2v3.82H915v4.36h4.83v3.72h5.07V159h8.47v-2.8H928v-2.44h6.1v-3.82h3.9v3.82h2.48V159H949v-2.8h-5.37v-10.08h5.19v-3.82h4.51v-7.88h3.6v-7.77h5.58v3.65h3.71v-8h-9.29v-9.86h18.57v-4.31h-14.45v-5.23zM954.07 89h-4.5v-4.07h4.5z" class="a c"/><g class="c"><g class="a"><path d="M1236.68 955.26v-1.44h-2.88v-5.75h2.88v-2.88h2.88v-5.75h-2.88v-2.88h-2.88v-2.87h-2.87v-5.76h2.87v-2.87h8.63v2.87h5.76v2.88h2.87v2.88h8.63v-2.88h5.75v-2.88h8.63v-2.87h34.52v2.87h5.75v2.88h5.75v2.88h2.91v2.87h2.87v8.63H1323v2.88h-2.88v2.87h-5.75v2.88h-8.63v2.88H1277v-2.88h-5.75v-2.88h-5.76v-2.87h-11.5v2.87h-2.88v2.88h-2.87v2.88h-11.51zm60.4-2.88v-1.44h2.92v-17.25h-2.88v-5.76h-5.75v8.63h2.88v2.88h2.87v5.75h-2.87v-2.87h-8.63v2.87h-2.88v2.88h5.75v-2.88h5.76v5.75h-2.88v2.88h5.75zm-20.08-7.19v-5.75h2.87v-8.63h2.88v2.88h2.88v-2.88h2.87v-2.88h-2.87v2.88h-2.88v-2.88h-8.63v2.88h-2.87v20.13h5.75zm-23-2.87v-5.76h-2.88v-2.87h-2.87v5.75h2.87v2.88h-2.87v5.75h5.75zm11.5-7.19v-1.44h2.88v-2.88h-2.88v2.88h-2.87v2.87h2.87zm-25.88-5.76v-1.44h-2.88v2.88h2.88zm66.15 0v-1.44h-2.88v2.88h2.88zm-120.8-23v-1.44H1182v-11.5h2.88v-2.88h2.87v-5.75h-2.87v-2.88H1182V879h-2.87v-8.63h2.87v-2.88h11.51v2.88h5.75v2.88h2.88v2.87h14.38v-2.87h11.5v-2.88h5.75v-2.88h37.4v2.88h8.62v2.88h5.76v2.87h5.75V879h2.88v2.87h2.87v8.63h-2.87v2.88h-2.88v2.88h-5.75v2.87h-5.76v2.88h-8.62v2.87h-37.4v-2.87h-5.75v-2.88h-11.5v-2.83h-8.63v2.87H1205v2.88h-8.63v2.87h-5.75v2.88h-5.75zm74.78-5.75v-1.44h2.88v-5.75h-5.76v-5.75h2.88v-2.88h2.88V879h-2.88v-8.63h-8.63v11.5h2.88v5.76h-2.88v2.87h-5.75v2.88h-5.75v2.88h8.63v-2.88h2.87v2.88h2.88v2.87h-2.88v2.88h8.63zm-5.75-5.75v-1.44h2.87v2.88H1254zm-48.9 2.87v-1.44h2.88V879h-5.75v-2.88h-2.88v8.63h2.88v5.75h-2.88v5.76h2.88v2.87h2.77zm28.7-5.74v-7.19h2.88v-11.5h2.88v-2.88h-2.88v2.88h-8.63v25.88h5.75zm-20.13-11.5V879h-2.88v2.87h2.88zm5.75 0V879h2.88v-2.88h-2.88V879h-2.87v2.87h2.87zm66.16-2.88v-1.44h-2.88V879h2.88zm-20.14-2.88v-1.43h2.88v2.87h2.88v-2.87h-2.88v-2.88h-2.88v2.88h-2.87v2.87h2.87zm11.51 0v-1.43h-2.88v2.87h2.93zm-31.64-2.87v-1.44h-2.88v2.88h2.88z"/><path d="M1236.68,955.26v-1.44h-2.88v-5.75h2.88v-2.88h2.88v-5.75h-2.88v-2.88h-2.88v-2.87h-2.87v-5.76h2.87v-2.87h8.63v2.87h5.76v2.88h2.87v2.88h8.63v-2.88h5.75v-2.88h8.63v-2.87h34.52v2.87h5.75v2.88h5.75v2.88H1323v2.87h2.87v8.63H1323v2.88h-2.88v2.87h-5.75v2.88h-8.63v2.88H1277v-2.88h-5.75v-2.88h-5.76v-2.87h-11.5v2.87h-2.88v2.88h-2.87v2.88h-11.51Zm43.14-12.94V930.81h2.88v2.88h2.88v-2.88h2.87v8.63h2.88v2.88h-5.75v2.87h-2.88v2.88h5.75v-2.88h5.76v5.75h-2.88v2.88h5.75v-2.88h5.75V933.69H1300v-5.76h-14.38v2.88h-2.88v-2.88h-8.63v2.88h-8.63v2.88h-2.87v2.87h2.87v-2.87h2.88v8.63h2.88v8.62H1277v2.88h2.87Zm14.39,0v-2.88h2.87v5.75h-2.87Zm-43.15,7.19v-1.44h2.88v-2.88h2.87v-8.63h-5.75v-2.87h-2.87v-2.88h-2.88v8.63h2.88v2.88h-2.88v5.75h2.88v2.87h2.87Zm17.26-2.88v-1.44h-2.88v2.88h2.88Zm-28.76-17.26v-1.44h-2.88v2.88h2.88Zm66.15,0v-1.44h-2.88v2.88h2.88Zm-120.8-23v-1.44H1182v-11.5h2.88v-2.88h2.87v-5.75h-2.87v-2.88H1182V879h-2.87v-8.63H1182v-2.88h11.51v2.88h5.75v2.88h2.88v2.87h14.38v-2.87h11.5v-2.88h5.75v-2.88h37.4v2.88h8.62v2.88h5.76v2.87h5.75V879h2.88v2.87h2.87v8.63h-2.87v2.88h-2.88v2.88h-5.75v2.87h-5.76v2.88h-8.62v2.87h-37.4v-2.87h-5.75v-2.88h-11.5V896.3h-8.63v2.87H1205v2.88h-8.63v2.87h-5.75v2.88h-5.75Zm54.65-5.75v-1.44h-2.88v-11.5h2.88V870.41h-5.76v2.88h-5.75v2.87h-2.87v8.63h2.87v2.88h-2.87v2.87h2.87v8.63h5.75v2.88h5.76Zm20.13,0v-1.44h5.75v-5.75h-2.87v-8.63h2.87V879h-2.87v-2.88h2.87v-2.87h2.88v2.87h2.88v-2.87h-2.88v-2.88h-2.88v2.88h-2.87v-2.88h-14.38v14.38h2.87v5.75h-5.75v2.88h-5.75v2.88h8.63v-2.88h2.87v2.88h2.88v2.87h-2.88v2.88h8.63Zm-5.75-5.75v-1.44h2.87v-5.75h2.88v5.75h-2.88v2.88h-2.87Zm-48.9,2.87V896.3h2.88v-8.63h2.87v-5.76h2.88V879h-11.5v-2.88h-5.76v8.63h2.88v5.75h-2.88v5.76h2.88v2.87H1205Zm14.38-17.25V879h2.88v-2.88h-2.88V879h-2.87v2.87h2.87Zm66.16-2.88v-1.44h-2.88V879h2.88Zm-8.63-2.88v-1.43h-2.88v2.87H1277Zm-31.64-2.87v-1.44h-2.88v2.88h2.88Z"/></g><path d="M1236.68 955.26v-1.44h-2.88v-5.75h2.88v-2.88h2.88v-5.75h-2.88v-2.88h-2.88v-2.87h-2.87v-5.76h2.87v-2.87h8.63v2.87h5.76v2.88h2.87v2.88h8.63v-2.88h5.75v-2.88h8.63v-2.87h34.52v2.87h5.75v2.88h5.75v2.88h2.91v2.87h2.87v8.63H1323v2.88h-2.88v2.87h-5.75v2.88h-8.63v2.88H1277v-2.88h-5.75v-2.88h-5.76v-2.87h-11.5v2.87h-2.88v2.88h-2.87v2.88h-11.51zm8.63-2.88v-1.44h5.75v-2.87h2.88v-2.88h11.5v2.88h2.88v-5.75h2.88v8.62h5.8v2.88h11.5v-2.88h-8.63v-8.62h2.88v5.75h8.63v-2.88h2.88v5.75h-2.88v2.88h5.75v-2.88h2.87v2.88h5.75v-2.88h8.63v-2.87h5.75v-2.88h2.87v-8.63h-2.88v-2.87h-5.75v-2.88h-5.75v-2.88h-34.52v2.88h-8.63v2.88h-5.75v2.87h-8.63v-2.87h-2.87v-2.88h-5.76v-2.88h-5.75v2.88h-2.88v2.88h2.88v2.87h5.75v2.88h2.88v2.88h-2.88v5.75h-5.75v2.87h5.75v2.88h2.88zm48.9-10.06v-2.88h2.87v5.75h-2.87zm14.38-2.88v-2.88h5.75v5.76h-5.75zm-71.91-7.19v-1.44h2.88v2.88h-2.88zm-51.77-25.89v-1.44H1182v-11.5h2.88v-2.88h2.87v-5.75h-2.87v-2.88H1182V879h-2.87v-8.63h2.87v-2.88h11.51v2.88h5.75v2.88h2.88v2.87h14.38v-2.87h11.5v-2.88h5.75v-2.88h37.4v2.88h8.62v2.88h5.76v2.87h5.75V879h2.88v2.87h2.87v8.63h-2.87v2.88h-2.88v2.88h-5.75v2.87h-5.76v2.88h-8.62v2.87h-37.4v-2.87h-5.75v-2.88h-11.5v-2.83h-8.63v2.87H1205v2.88h-8.63v2.87h-5.75v2.88h-5.75zm5.75-2.87v-1.44h5.75v-2.88h8.59v-2.87h2.88v-8.63h2.87v5.75h5.76v2.88h8.63v-5.76h2.87v8.63h5.75v2.88h14.39v-2.88h-11.51v-8.63h5.75v2.88h-2.87v2.88h14.38v2.87h-2.88v2.88h8.63v-2.88h2.88v2.88h8.63v-2.88h8.62v-2.87h5.76v-2.88h5.75v-5.75h2.88v-5.76h-2.88V879h-5.75v-2.88h-5.76v-2.87h-8.62v-2.88h-37.4v2.88h-5.75v2.87h-11.5V879h-14.38v-2.88h-2.88v-2.87h-5.75v-2.88h-5.76v2.88H1182v2.87h5.75V879h-2.87v2.87h8.63v2.88h-2.88v2.88h2.88v2.87h-5.76v2.88h2.88v2.88h-5.75v2.87h5.75v2.88h-5.75v2.87h5.75zm63.28-8.63v-1.44h2.87v-5.75h2.88v5.75h-2.88v2.88h-2.87zm-28.76-8.63v-1.44h2.87v2.88h-2.87zm51.77 0v-1.44h-2.88v-2.88h2.93V879h5.75v5.75h-2.88v2.88H1277z" class="d"/><path d="M1236.68 955.26v-1.44h-2.88v-5.75h2.88v-2.88h2.88v-5.75h-2.88v-2.88h-2.88v-2.87h-2.87v-5.76h2.87v-2.87h8.63v2.87h5.76v2.88h2.87v2.88h8.63v-2.88h5.75v-2.88h8.63v-2.87h34.52v2.87h5.75v2.88h5.75v2.88h2.91v2.87h2.87v8.63H1323v2.88h-2.88v2.87h-5.75v2.88h-8.63v2.88H1277v-2.88h-5.75v-2.88h-5.76v-2.87h-11.5v2.87h-2.88v2.88h-2.87v2.88h-11.51zm8.63-2.88v-1.44h5.75v-2.87h2.88v-2.88h11.5v2.88h2.88v-5.75h2.88v8.62h5.8v2.88h11.5v-2.88h2.88v2.88h5.75v-2.88h2.87v2.88h5.75v-2.88h8.63v-2.87h5.75v-2.88h2.87v-8.63h-2.88v-2.87h-5.75v-2.88h-5.75v-2.88h-34.52v2.88h-8.63v2.88h-5.75v2.87h-8.63v-2.87h-2.87v-2.88h-5.76v-2.88h-8.63v5.76h2.88v2.87h2.88v2.88h2.87v5.75h-2.87v2.88h-2.88v5.75h8.63zm63.28-12.94v-2.88h5.75v5.76h-5.75zm-123.68-33.08v-1.44H1182v-11.5h2.88v-2.88h2.87v-5.75h-2.87v-2.88H1182V879h-2.87v-8.63h2.87v-2.88h11.51v2.88h5.75v2.88h2.88v2.87h14.38v-2.87h11.5v-2.88h5.75v-2.88h37.4v2.88h8.62v2.88h5.76v2.87h5.75V879h2.88v2.87h2.87v8.63h-2.87v2.88h-2.88v2.88h-5.75v2.87h-5.76v2.88h-8.62v2.87h-37.4v-2.87h-5.75v-2.88h-11.5v-2.83h-8.63v2.87H1205v2.88h-8.63v2.87h-5.75v2.88h-5.75zm5.75-2.87v-1.44h5.75v-2.88h8.59v-2.87h2.88v-8.63h2.87v5.75h5.76v2.88h8.63v-5.76h2.87v8.63h5.75v2.88h14.39v-2.88h2.87v2.88h8.63v-2.88h2.88v2.88h8.63v-2.88h8.62v-2.87h5.76v-2.88h5.75v-5.75h2.88v-5.76h-2.88V879h-5.75v-2.88h-5.76v-2.87h-8.62v-2.88h-37.4v2.88h-5.75v2.87h-11.5V879h-14.38v-2.88h-2.88v-2.87h-5.75v-2.88H1182V879h2.88v2.87h2.87v2.88h2.88v5.75h-2.88v2.88h-2.87v11.5h5.75zm34.52-17.26v-1.44h2.87v2.88h-2.87zm51.77 0v-1.44h-2.88v-2.88h2.93V879h5.75v5.75h-2.88v2.88H1277z" class="a"/><g class="d"><path d="M1276.95 879.04v2.87h-2.88v2.88h2.88v2.88h2.88v-2.88h2.87v-5.75h-5.75zm31.64 57.52h5.75v5.75h-5.75z"/></g><g class="a"><path d="M1210.79 884.79l-1.34-7.19h7.91l1.13-3.59 5.81.71.88 5.76-4.1 4.31h-10.29zm25.89-11.51v-4.11h11.51l-1.28 4.11h-10.23zm24.92 3.64l.97-6.51 3.55-1.24 3.07 1.24 3.22 1.44 5.98 1.2 2.91 1.67 3.55.75.73.69v2.88h-2.88l-21.1-2.12zm-20.99 53.89h-3.93v-2.88h4.9l-.97 2.88zm20.99 6.65v-4.52l3.84-.69v-1.44h2.88v5.75l-6.72.9zm21.1-3.77v-5.1l1.44-.66h4.31v6.21l-5.75-.45zm17.26-7.04l6.52 1.28.65 3.11-4.29-.23-2.88-4.16z"/></g></g><g opacity=".8" class="a"><path d="M690.92 870.92h6.58v3.29h-6.58z" class="b"/><path d="M687.63 874.2h3.29v36.19h-3.29zm9.87 0h3.29v29.61h-3.29z" class="b"/><path d="M700.79 887.36h6.58v3.29h-6.58z" class="b"/><path d="M707.37 890.65h3.29v13.16h-3.29z" class="b"/><path d="M710.66 890.65h6.58v3.29h-6.58z" class="b"/><path d="M717.24 893.94h6.58v3.29h-6.58z" class="b"/><path d="M717.24 897.23h3.29v9.87h-3.29zm6.58 0h3.29v3.29h-3.29z" class="b"/><path d="M727.11 900.52h3.29v23.03h-3.29zm-46.06 3.29h3.29v3.29h-3.29z" class="b"/><path d="M671.18 900.52h9.87v3.29h-9.87z" class="b"/><path d="M671.18 903.81h3.29v6.58h-3.29z" class="b"/><path d="M674.47 910.39h3.29v3.29h-3.29z" class="b"/><path d="M677.76 913.68h3.29v3.29h-3.29z" class="b"/><path d="M681.05 916.97h3.29v6.58h-3.29z" class="b"/><path d="M684.34 923.55h3.29v6.58h-3.29zm6.58 9.87h29.61v3.29h-29.61zm32.9-9.87h3.29v6.58h-3.29zm-39.48-16.45h3.29v3.29h-3.29z" class="b"/><path d="M687.63 930.13h3.29v3.29h-3.29zm32.9 0h3.29v3.29h-3.29zm-50.14-65.35h9.87v3.29h-9.87z" class="b"/><path d="M676.97 868.07h3.29v6.58h-3.29z" class="b"/><path d="M673.68 868.07h3.29v3.29h-3.29z" class="b"/><path d="M670.39 871.36h3.29v3.29h-3.29zm-6.58 6.58h3.29v3.29h-3.29zm-6.57 0h3.29v6.58h-3.29z" class="b"/><path d="M660.53 881.23h3.29v3.29h-3.29z" class="b"/><path d="M657.24 884.52h9.87v3.29h-9.87z" class="b"/></g><g class="c"><g class="a"><path d="M198.61 300.14h5.18v5.17h10.4V321H209v5.2h-10.39v10.44h-5.16v-15.7h5.16 4.61c.46 0 .62-.15.61-.6v-2.87c0-1.75 0-1.75 1.72-1.75h2.86c.48 0 .64-.15.63-.63v-3.78c0-.69-.22-.82-.85-.82h-9.57v-10.4zm-26.03 31.24v-5.18h-5.18V321h-5.21v-20.86h5.18v15.64h5.24V321h5.14v10.39h-5.16zm20.82 26.03v5.2h-5.19v5.17H157v-5.16h26v-5.21h10.4zM141.34 347h-5.17v-26h10.36v5.18h0-5.22V347z"/><path d="M157 362.62h-10.45v-5.19h-5.21V347h5.24v5.22h5.2v5.2H157v5.2zm15.58-67.69v-5.17h20.82v5.17h-20.82zm26.03 41.66h5.16v15.61h-5.15v-15.62zM157 331.38h15.62v5.17H157v-5.17z"/><path d="M146.53 326.18H157v5.2h-10.4v-5.21zm20.84-26.04v-5.21h5.2v5.2h-5.21zm26.03-5.21h5.21v5.21h-5.2v-5.21zm5.21 57.27v5.21h-5.2v-5.21h5.2z"/></g><path d="M198.62 352.21h-5.21v5.21H183v5.21h-26v-5.2h-5.18v-5.2h-5.2V347h-5.24v-20.84h5.22v5.21H157v5.17h15.61v-5.17h5.17V321h-5.18v-5.2h-5.24v-15.68h5.21v-5.2h20.84v5.21h5.21v10.4 10.41h-5.16v15.64h5.17zM183 347h5.17v-5.2H183v-5.16h-5.15v5.15H183v5.22h-5.21v5.2h-15.63V347H157v-5.15h-5.2V347h5.2v5.21h5.21v5.17h15.61v-5.18H183zm10.36-36.48v-5.12h-5.09v5.11z" class="d"/><path d="M198.61 320.94v-10.41h9.57c.63 0 .88.13.85.82v3.78c0 .48-.15.65-.63.63h-2.86c-1.72 0-1.72 0-1.72 1.75v2.87c0 .45-.15.61-.61.6-1.52-.04-3.06.02-4.6-.04z" class="f"/><g class="a"><path d="M162.16 352.21h15.62v5.17h-15.61v-5.18zm31.18-41.7h-5.09v-5.11h5.09zM183 341.79h-5.16v-5.15H183v5.16zM157 347h-5.2v-5.14h5.2V347z"/><path d="M183 341.8h5.17v5.2H183h0v-5.22z"/><path d="M183 347v5.21h-5.19V347H183zm-20.83 5.2H157V347h5.2v5.21z"/></g><g class="a"><path d="M1462.11 217.42h0 0 0zm72.26-25.18V184h-8.06v8.3h-103.55c-.27 0-.55 0-.82-.06a3.81 3.81 0 0 0-.07.59q0 7.75 0 15.53a3.8 3.8 0 0 0 .05.7h8.08v8.36h8v8.27h24.14v-8.22l-3.85-.08h-4.16V209h8v-8.32h7.94V209h8.1v-8.33h8V209h8v8.36h8v8.24h24v-8.2l-7-.06h-1V209h7.92q0-3.63 0-7.27v-1h8.05V209h8v-16.76z"/><path d="M1421 183.89h-6.29a5.31 5.31 0 0 1-.8-.11v8.48h5.84l2.21-.08v-8.28z"/><path d="M1421.92 192.17h0 0 0zm-8.07-8.4h0 0zm112.45 33.63h8.06V209h-8.06z"/><path d="M1526.3 209h0 0 0zm-.01 8.41h0zm8.07-8.41h0 0 0zm-120.51-25.22h0 0z"/><path d="M1405.8 175.63v8.2a2.61 2.61 0 0 0 .42.07h7.06a3 3 0 0 0 .57-.14v-8.13zm56.34 41.77h7.86V209h-7.9z"/><path d="M1470 209h0 0 0zm-7.87 0h0 0 0zm64.14-33.39h-7.91v8.25h7.91z"/></g></g><g opacity=".25"><g class="a"><use xlink:href="#B"/><use xlink:href="#B" x="5.42"/><path d="M212.75 815.31v5.41h-5.37v5.38h-5.44v5.39h-10.41v-5.39h-5.44v-5.38h-5.37v-5.39h-5.44v-5.41h-5.44v-5.39h-5.44v-5.25h-5.41v-16.13h5.36v-5.32h5.41v-5.41h.03v-5.35h16.09v5.39h5.41v5.41h-5.41v-5.38h-16.07v5.34h-5.41v5.32h5.36v10.72h5.35v5.25h5.44v5.39h5.44v5.41h5.44v5.39h5.44v5.39h10.47v-5.39h5.41z"/><use xlink:href="#B" x="21.46" y="32.09"/><path d="M223.6 783.09v10.7h-5.41v-5.29h-5.31v-10.77h5.41v5.36h5.31z"/><use xlink:href="#B" x="26.9" y="26.68"/><path d="M234.49 777.83v21.45h-5.42v5.25h-5.41v-5.41h5.41v-21.29h-5.41v-5.34H207.6v5.38h-5.42v-5.41h5.42v-5.39h16.09v5.35h5.38v5.41h5.42z"/></g><path d="M169.76 777.83h5.42v-5.34h10.7v5.38h5.41v5.37h10.86v-5.37h5.45v-5.38h16.09v5.34h5.38v21.45h-5.41v5.25h-5.44v5.39h-5.44v5.41h-5.44v5.37h-10.51v-5.39h-5.4v-5.39h-5.44v-5.41h-5.44v-5.39h-5.44v-5.25h-5.35v-16.04z" class="g"/><g class="a"><use xlink:href="#B" x="16.02" y="37.48"/><use xlink:href="#B" x="21.46" y="32.09"/><use xlink:href="#B" x="5.21" y="48.25"/><use xlink:href="#B" x="10.65" y="42.86"/><use xlink:href="#B" x="26.9" y="26.68"/><use xlink:href="#B" x="5.42"/><use xlink:href="#B" x="10.86" y="-5.38"/><use xlink:href="#B" x="32.34" y="21.29"/><use xlink:href="#B" x="37.75" y="16.04"/><use xlink:href="#B" x="37.75" y="10.73"/><use xlink:href="#B" x="37.75" y="5.32"/><use xlink:href="#B" x="37.75"/></g><g class="d"><use xlink:href="#B" x="21.56" y="5.26"/><use xlink:href="#B" x="21.56" y="-0.1"/><use xlink:href="#B" x="26.87" y="5.26"/><use xlink:href="#B" x="26.87" y="10.55"/></g><g class="a"><use xlink:href="#B" x="32.34" y="-5.41"/><use xlink:href="#B" x="21.6" y="-10.76"/><use xlink:href="#B" x="16.28" y="-10.76"/><use xlink:href="#B" x="26.95" y="-10.76"/><use xlink:href="#B" x="-10.6" y="37.48"/><use xlink:href="#B" x="-16.04" y="32.09"/><use xlink:href="#B" x="0.21" y="48.25"/><use xlink:href="#B" x="-5.23" y="42.86"/><use xlink:href="#B" x="-21.48" y="26.68"/><use xlink:href="#B"/><use xlink:href="#B" x="-5.44" y="-5.38"/><use xlink:href="#B" x="-26.92" y="21.29"/></g><g class="e"><use xlink:href="#B" x="-5.21" y="37.48"/><use xlink:href="#B" x="-10.65" y="32.09"/><use xlink:href="#B" x="0.16" y="42.86"/><use xlink:href="#B" x="-16.09" y="26.68"/><use xlink:href="#B" x="-21.53" y="21.29"/></g><g class="a"><use xlink:href="#B" x="-32.33" y="16.04"/><use xlink:href="#B" x="-32.33" y="10.73"/><use xlink:href="#B" x="-32.33" y="5.32"/><path d="M158.99 777.83h5.36v5.32h-5.36z"/><path d="M164.4 777.83v5.41h-5.41v-.09h5.36v-5.32h.05z"/><path d="M164.4 772.42h5.36v5.41h-5.36z"/><path d="M169.81 772.42v5.41h-5.41 0 5.36v-5.41h.05z"/></g><g class="e"><use xlink:href="#B" x="-26.97" y="16.04"/><use xlink:href="#B" x="0.14" y="37.48"/><use xlink:href="#B" x="-5.3" y="32.09"/><use xlink:href="#B" x="5.51" y="42.86"/><use xlink:href="#B" x="-10.75" y="26.68"/><use xlink:href="#B" x="-16.18" y="21.29"/><use xlink:href="#B" x="-21.62" y="16.04"/><use xlink:href="#B" x="-26.97" y="10.73"/><use xlink:href="#B" x="-26.97" y="5.32"/></g><path d="M164.4 777.83h5.36v5.31h-5.36z" class="a"/><path d="M164.4 777.83v5.32h5.36v.09h-5.41v-5.41h5.41 0-5.36z" class="e"/><path d="M169.81 772.48h5.36v5.35h-5.36z" class="a"/><path d="M175.18 772.42v.07h-5.37v5.34h-.05v-5.41h5.42z" class="e"/><g class="a"><use xlink:href="#B" x="-16.18" y="-10.76"/><use xlink:href="#B" x="-10.85" y="-10.76"/><use xlink:href="#B" x="-21.53" y="-10.76"/></g></g><g class="a c"><path d="M1631.34 381.24v-13.11H1627v-4.36h-4.37v-4.36h-8.74v-4.34h-17.48v4.35h-8.74v4.39h-4.32v4.36h8.65v4.33h4.34v13.12h-4.3V390h-8.75v-4.34h-4.39v-4.4h-4.32v34.93h4.42v-4.34h4.37v-4.3h4.38v4.31h3.73c.48 0 .65.11.63.61v3.73h8.73v-8.65h8.75v8.65h8.75v-4.35h4.37v-4.35h4.29v4.34h4.37v4.32h4.32v-34.92zm-8.73 4.36h-4.32v4.4h-8.76v-4.34h-4.34v-4.36h8.67v-8.75h-4.31v-4.34h8.72v4.34h4.34zm-39.26-17.4h0 0 0 0zm4.31 13.04v-8.7h-4.33v-4.34H1579v13h7.31zm-8.66-.02h0z"/></g><g class="c"><path d="M1437.87 743.89v-4.54h4.5v-4.55h18.14 0v4.54h4.49v4.5h4.51v-4.5h4.52v-4.52h13.6v4.43h4.52l.1.1q0 11 0 21.93a5.4 5.4 0 0 1-.08.69h-4.38c0 .28 0 .46-.06.64v2.87c0 .34-.06.68-.09 1v4.54h-4.53v4.53h-4.52v4.54h-4.53v4.52h-4.53v4.54H1465v-4.51h-4.53v-9.07h4.53v4.49h4.52v-9h4.48v-4.56h-9V762h4.48v-4.53H1465v-4.54h-4.52v-4.53H1456v-9h-9.06v4.5h-9z" class="e"/><g class="a"><path d="M1496.7 739.34h4.5V762h-4.5v-22.65zm-36.19-4.52h-18.16v-4.49h18.16zm27.13.01H1474v-4.5h18.14v4.49h0z"/><path d="M1465 739.34h-4.54v-4.54h4.54zm9.05-4.54v4.54h-4.54v-4.54zm18.21 4.56l-.1-.1v-4.43h0 4.52v4.53h-4.44z"/></g><g class="e"><path d="M1469.53 739.33v4.5H1465v-4.5zm-31.67 4.55v4.49h-4.5v-4.48h4.5zm13.58 4.52h-4.52v-4.54h4.52v4.53z"/><path d="M1446.91 748.4v4.49h-4.5v-4.48h4.5zm9.09 4.52h-4.52v-4.52h4.52v4.53zm-22.7.08v4.45h-4.48V753z"/><path d="M1460.49 757.45H1456v-4.53h4.52v4.54zM1442.4 762h-4.51v-4.48h4.5V762zm4.52 0v-4.49h4.48V762h-4.48zm18.08 0h-4.53v-4.52h4.53V762z"/><path d="M1446.91 762v4.53h-4.52v-4.55h4.51z"/></g><path d="M1496.7,762v4.52h-4.54V762h4.52Z" class="a"/><g class="e"><path d="M1442.38 766.5v4.5h-4.49v-4.49h4.49zM1456 771h-4.49v-4.49h4.49V771zm4.49 0v-4.52h4.51V771h-4.51z"/></g><path d="M1487.65 771.05v-4.54h4.53v4.54z" class="a"/><path d="M1456,771h4.53v4.54H1456V771Z" class="e"/><path d="M1483.12,775.57V771h4.54v4.53Z" class="a"/><path d="M1456,775.55v4.5h-4.49v-4.49H1456Z" class="e"/><g class="a"><path d="M1442.37 734.8v4.55h-4.5v-4.55zm36.23 45.3v-4.54h4.53v4.54z"/><path d="M1474.07,784.63v-4.54h4.54v4.54Z"/><path d="M1469.55,789.15v-4.54h4.53v4.54Z"/><path d="M1465,789.13h4.54v4.49H1465Z"/></g><g class="f"><path d="M1496.69,762h-4.52a5.4,5.4,0,0,0,.08-.69q0-11,0-21.93h4.43Z"/><path d="M1492.16 766.5h-4.52c0-.34.08-.68.09-1v-2.87c0-.18 0-.36.06-.64h4.38l-.01 4.51zm0-31.67v4.43h-4.52v-4.43z"/></g><path d="M397.1 154.49l-.07.07a4 4 0 0 0-.48-.07q-1.74 0-3.48 0a2.29 2.29 0 0 0-.4.06v4.37h0a2.31 2.31 0 0 0-.08.43v16.85a3.18 3.18 0 0 0 .06.47H397v.38 3.42a5.35 5.35 0 0 0 .07.56h-.26-17.06a3.73 3.73 0 0 1-.41 0v-4.33h-4.41a1.56 1.56 0 0 1 .34-.09h4.16.7 7.48.54a2.25 2.25 0 0 0 .06-.36v-16.89-.44h-4.39v-4.41h-4.42v-4.42h-4.43v-4.4h-4.4v-31h35.33v31h-4.44v4.44a.13.13 0 0 1 0 .06.83.83 0 0 0-.21-.06h-4.19a42.31 42.31 0 0 0 .04 4.36zM383.82 128v4.43h4.4v13.24h4.39v-22h-4.4V128zm-8.82-8.83v22h4.34v-22z" class="e"/><g class="a"><path d="M405.9 145.69h0 0 0z"/><path d="M426.43 119.13H414.8a1.08 1.08 0 0 1 0-.19v-8.67h-48.68v.49 8.38h-13.28v17.69h4.4v4.42h8.87v8.86h4.41v4.42h4.42v4.39h8.85v-4.41h-4.42v-4.42h-4.43v-4.4h-4.4v-31h39.76v31h-4.4V150h-.51H402a4.88 4.88 0 0 0-.52.06.13.13 0 0 1 0 .06v4.3h-4.38l-.07.07.05 4v.37h8.82v-4.36h4.43v-4.43h4.42v-8.83h8.84v-4.43H428v-17.67zm-60.36 17.67h-4.39v-4.4h-4.41v-8.81h8.8zm57.49-4.4h-4.39v4.39h-4.38V123.6h8.77zm-20.7 44.22h-1.39-.63l.59.08v4.3h-4.33-.26-17.09a3.73 3.73 0 0 1-.41 0v-4.33h-4.41v8.75h30.95v-8.8zm-10.19-17.7h0 0 0z"/><path d="M397 172.23v-13.31h-4.37v.9V176v.52a.78.78 0 0 0 .23.06h8.56v-4.36zm-9.39 4.39h.54V159h-4.35v.42 12.8h-.53-3.83v4.37h.7z"/></g><path d="M401.46 172.23H397v-13.31h-4.37v-4.37a2.29 2.29 0 0 1 .4-.06q1.74 0 3.48 0a4 4 0 0 1 .48.07l.05 4v.37 13.18h.5H401a3.32 3.32 0 0 1 .46.12z" class="f"/><g class="a"><path d="M388.15 176.59V159h-4.35v-.07h4.4v.44 16.87a2.25 2.25 0 0 1-.05.35zm-8.72-4.36v4.37h-.09v-4a2.79 2.79 0 0 1 .09-.37z"/></g><g class="f"><path d="M405.9,145.69v-31h4.4v31Z"/><path d="M401.46 150.13v-4.44h4.44V150h-.51H402a4.88 4.88 0 0 0-.54.13zm-4.36 4.36a42.31 42.31 0 0 1-.05-4.36h4.19a.83.83 0 0 1 .21.06v4.3z"/></g><path d="M383.82,128h4.39v-4.35h4.4v22h-4.39V132.39h-4.4Z" class="d"/><path d="M375,119.17h4.34v22H375Z" class="g"/><path d="M392.67 158.92v.9V176v.52a.78.78 0 0 0 .23.06h7.93l.59.08V181h-4.32a5.35 5.35 0 0 1-.07-.56v-3.42-.38h-4.38a3.18 3.18 0 0 1-.06-.47v-16.82a2.31 2.31 0 0 1 .08-.43z" class="a"/><path d="M1816.54 727.37v6.18h-12.29v6.16h-6.16v6.14h-36.94v-6.12H1755v-55.4h12.24v24.56h-6.12v18.49h18.45v-18.46h-6.1v-24.59h30.75v12.27h18.44v30.78h-6.15a5.32 5.32 0 0 0 .06-.56v-24h-12.3v24.61h.37 11.52a2.46 2.46 0 0 0 .38-.06z" class="a"/><path d="M96.69,539.24v.06H79.44v-.08Z" fill="#fefefe"/><path d="M96.76 578.24a3.58 3.58 0 0 1-.43.08H92.5v.47 3.39a2.26 2.26 0 0 1-.07.43v-4.26h-8.62v4.25a3 3 0 0 1-.07-.43v-3.38-.44h-.43-3.43a3 3 0 0 1-.43-.07h4.29V574h-4.3v-8.67h4.36V561h8.59v-4.31h.07v4.29h4.23l.06.09h-4.28v4.28h4.29V574H92.5v4.29z" class="g"/><path d="M96.79 543.67h-.1a2.17 2.17 0 0 0-.43-.08H80a2.26 2.26 0 0 0-.44.08l-.07.06v-4.36h17.2a1.78 1.78 0 0 1 .07.39v3.6a1.34 1.34 0 0 0 .1.38z" class="a"/><path d="M62.11,548v-4.31h8.68V548Z" class="g"/><path d="M109.79,556.66h4.26v4.28h-4.26Z" class="d"/><path d="M75.16 565.3v8.65a3.06 3.06 0 0 1-.07-.4v-7.85a1.77 1.77 0 0 1 .07-.4z" fill="#9a9a9a"/><path d="M75.13 547.88v-4.21h4.25a4.11 4.11 0 0 1-.47.07h-3.19-.47v.5 3.53a.29.29 0 0 1 0 .09z" class="a"/><path d="M96.69 560.92h-4.23v-4.29a3.81 3.81 0 0 1 .07.47v3.25.47h.46 3.22a3.56 3.56 0 0 1 .48.1z" fill="#404040"/><g class="a"><path d="M79.51 543.62a2.26 2.26 0 0 1 .44-.08h16.31a2.17 2.17 0 0 1 .43.08h-.34-16.49zm-.07 30.33v.01h0v-.01zm17.32.01h.01v-.01l-.01.01zm.01-8.67h0-.01.01z"/><path d="M118.45 591.27V587h4.3v-34.11-.48a1.31 1.31 0 0 0-.38-.09h-3.95V548h-17.3v-4.25c-.07 0-.08-.07-.1-.07h-4.23v3.81.51H79.44v-4.27h-.06a4.11 4.11 0 0 1-.47.07h-3.19-.47v.5 3.53a.29.29 0 0 1 0 .09h-.06a.91.91 0 0 1-.31.09h-17v4.32h-.43-3.5-.41V587h4.29v.3 3.8a.71.71 0 0 1 0 .2zm-8.66-34.61h4.26v4.28h-4.26zm-34.71 9a1.77 1.77 0 0 1 .08-.4h4.28V561h4.34v-4.34h8.61.07a3.81 3.81 0 0 1 .07.47v3.25.47h.46 3.22a3.56 3.56 0 0 1 .44.06l.06.09v4.28h4.3V574h-4.3v4.28a3.58 3.58 0 0 1-.43.08H92.5v.47 3.39a2.26 2.26 0 0 1-.07.43h-8.62a3 3 0 0 1-.07-.43v-3.38-.44h-.43-3.43a3 3 0 0 1-.43-.07v-4.28h-4.3a3.06 3.06 0 0 1-.07-.4zm4.36-.37h0 0 0z"/></g><g class="a"><path d="M1266.42 297.86l-.7 4.36h-165.85V307l-4.89.34-.25 4.6-4.67.27-.21 4.7h-9.55l-.24 4.78h-19.21v-4.55l4.63-.25.24-4.63 4.58-.28v-9.58h-38.75l-.62-4.52h0a12.52 12.52 0 0 1 2.16-.37q22.71 0 45.42 0c.47 0 1 .07 1.54.12v9.4l-4.52.26V312h9.47l.22-4.62 4.68-.26.24-4.62 4.72-.22v-4.62l2.84-.14h165.88a23.93 23.93 0 0 1 2.9.36zm-235.26-53.98l.22-4.84h234.44v4.66H1034.3l-3.2.12zm239.27 5.12l5.08-.52v43.94h-4.61v-2.63q0-19 0-38a19.7 19.7 0 0 0-.41-2.83zM1026 292.93l-4.23-.57v-43.57h4.43 0l.21 2.43q0 19.56 0 39.14a18.12 18.12 0 0 1-.41 2.64z"/><path d="M1026.18 248.79l.4-4.91h4.58l-.06-.06v4.57l-5 .36zM1026 293l5.4-.43-.45 5.39h0l-4.24-.67-.7-4.3zm240.45 4.89l-.53-5.12h4.79v4.43l-4.3.66zm4.02-48.89l-4.31-.67V244h4.84l-.53 5.05zm-211.75 29.66v-2.36h-2.36v-2.37H1054v-7.08h2.36v-2.37h2.36v-2.36h9.45v2.36h2.37v2.37h-4.73v-2.37h-4.72v2.37h-2.37v7.08h2.37v2.37h4.72v-2.37h4.73v2.37h-2.37v2.36zm16.54 0v-2.36h-2.36v-11.82h2.36v-2.36h11.82v2.36h2.36v11.82h-2.36v2.36zm2.37-2.36h7.08v-11.82h-7.08zm14.17 2.36v-16.54h11.81v2.36h2.39v2.37h2.36v7.08H1106v2.37h-2.37v2.36zm4.73-2.36h4.72v-2.37h2.36v-7.08h-2.36v-2.37h-4.72zm14.17 2.36v-16.54h16.54v2.36h-11.81v4.73h9.45v2.36h-9.45v4.73h11.81v2.36zm28.36-9.45v-2.36h16.54v2.36zm0 4.72v-2.36h16.54v2.36zm30.71 4.73v-16.54h4.73v14.18h9.5v2.36zm18.9 0v-2.36h-2.36v-11.82h2.36v-2.36h11.82v2.36h2.36v11.82h-2.36v2.36zm2.37-2.36h7.09v-11.82H1191zm21.26 2.36v-2.36h-2.36v-2.37h-2.36v-2.36h-2.37v-9.45h4.73v7.09h2.36v2.36h2.37v-2.36h2.33v-7.09h4.72v9.45h-2.36v2.36H1217v2.37h-2.36v2.36zm11.82 0v-16.54h16.53v2.36h-11.81v4.73h9.45v2.36h-9.45v4.73h11.81v2.36z"/></g></g><g opacity=".8" class="a"><path d="M990.6 797.73v22.56h-5.46v5.49h-5.76v5.76h-22.54v-5.78h22.52v-5.51h5.72v-22.49h-5.76V792h-21.81-.67v-5.5h22.51v5.44h5.77v5.79z" class="b"/><path d="M951.37 797.78v22.5h5.46v5.47h-5.49v-5.43h-5.78v-22.57h5.74v-5.78h5.53v5.81h-5.46zm-16.96 28.18h5.4v5.49h-5.4zm5.54 5.64h5.48v5.48h-5.48zm11.14 5.64v5.6c-.27 0-.54-.07-.82-.07h-4.69v-5.53zm33.77 5.59v5.51h-33.67v-.59-4.34a5.62 5.62 0 0 0-.06-.56h.62 33.14zm.17-5.59h5.44v5.5h-5.44zm5.62-5.65h5.49v5.49h-5.49zm5.64-5.64h5.48v5.48h-5.48zm5.62-33.73h5.5v33.58h-5.5zm-5.63-5.62h5.5v5.48h-5.5zm-5.62-5.61h5.49v5.47h-5.49zm-5.62-5.68h5.44v5.49h-5.44zm-.17-5.62v5.49h-.59-32.66-.52l.06-1.72v-3.18-.59zm-33.79 5.51v5.59h-5.5v-5.48h.62 4.28a4.09 4.09 0 0 0 .6-.11zm-11.13 5.78h5.48v5.44h-5.48zm-5.55 5.62h5.42v5.48h-5.42zm-5.63 5.63h5.46v33.6h-5.46zM979.34 809v5.5h-16.75v-16.73h5.5V809h11.25z" class="b"/></g><g class="c"><path d="M1819.48 215.87h-43v-58.21h43v15.76.62a5.34 5.34 0 0 0 .53.09h3.12v3.72h-3.72v3.77h-3.79v-20.16h-35.39v50.59h35.39v-11.29a1.88 1.88 0 0 0-.45-.12H1812v-3.77h3.78v-3.76h3.75v3.8 18.35l-.05.61z" class="a"/><path d="M1834.71,174.13v7.51h-3.79q0-3.75,0-7.5v0Z" class="d"/><path d="M1834.71 174.13h-3.77v-.14h3.74z" fill="#969696"/><path d="M1815.71 200.76v11.29h-35.39v-50.59h35.39v20.18h-3.21a3.91 3.91 0 0 0-.58.1 5.43 5.43 0 0 0-.06.55v3.09h-3.16a3.9 3.9 0 0 0-.57.13v3.73h0-3.74a2.9 2.9 0 0 0-.12.57v3.15h-.73l-2.92.07a3.09 3.09 0 0 0-.09.53v3.27h-3.64l-.09.09v7.51h-11.36v3.78h22.71v-3.71h.12 3.63a2.27 2.27 0 0 0 .12-.5v-3.23zm-30.32-34.25v3.76h25.24v-3.76zm25.25 12.61v-3.72h-25.26v3.72z" class="g"/><path d="M1819.5 193.11h-3.75v3.76H1812v3.77h0l-3.86.06h-3.79v-3.93-3.64h3.75v-3.88h3.9v-3.75h0 3.65l.09-.09v-3.64-.12h3.78v-3.77h7.63v3.9 3.62l-.11.09h-3.65v3.84.05h0l-.09-.06h-3.68V193a.08.08 0 0 0 0 .1h0a.06.06 0 0 0-.12.01z" class="f"/><path d="M1827.09 185.39v-3.62h3.72 0v3.62H1829l-1.66.09h-.1-.12z" class="d"/><path d="M1830.83 185.38v-3.62h.13V185a2.92 2.92 0 0 1-.12.49.38.38 0 0 0-.01-.11z" class="a"/><path d="M1830.84 174.09h.1v7.5h0 0-3.72v-3.76h-3.79v-3.74h0 .62z" fill="#e6e6e6"/><path d="M1808.1 204.5v3.78h-22.71v-3.78h11.36V197l.09-.09h3.64 0v.62 7h7.57z" class="d"/><g class="a"><path d="M1785.39 166.51h25.24v3.76h-25.24zm25.25 12.61h-25.26v-3.72h25.26z"/></g><path d="M1796.84,196.9l-.09.09Z" fill="#1f1202"/><path d="M1796.72,208.28h0Z" fill="#c6c0b7"/><path d="M1808.13 200.85v3.66h-7.58v-7-.62h.12 3.63a.12.12 0 0 0 .1 0v3.81h3.79z" fill="#e6e6e6"/><g class="d"><path d="M1804.34 193.13V193v-3.63h3.73v3.76zm22.74-3.89h-3.2a5.43 5.43 0 0 0-.55.06v-3.84h3.67.12 0zm-15.24-3.75h.14v3.76h-3.76v-3.74z"/><path d="M1804.23 196.86h-3.63v-3.73h3.75v3.64zm7.77-11.35v-3.76h3.72v3.64l-.09.09zm11.25 3.8v3.68h-3.64v-3.72zm-15.12 11.54v-.16l3.86-.06-.09.11-.05 3.64h-3.62v-3a3.35 3.35 0 0 0-.1-.53z"/></g><path d="M1827.1 185.51h-.12l.11-.09z" fill="#e68a0f"/><g fill="#1f1202"><path d="M1804.23 196.86l.1-.1v.12a.12.12 0 0 1-.1-.02zm11.38-11.38l.09-.09z"/></g><path d="M1830.84 174.09H1824h-.62V174v-3.63h7.48z" class="d"/></g><g opacity=".8"><g class="a"><path d="M370.78 1003v-4.9h0c.22 0 .44-.06.66-.06h28.37c.22 0 .44 0 .66.06h0v4.9zm-18.25-23.13h-4.9v-29.68h4.89c0 .26.05.53.06.8l.05 4.11c0 .27-.05.54-.05.81V979c0 .29 0 .58-.06.88zM370.78 932v-4.86h29.69v4.84c-.22 0-.44.06-.65.06h-28.39c-.22 0-.43 0-.65-.06zm47.93 18.19h4.86v29.68h-4.84c0-.3-.06-.59-.06-.88v-23.08c0-.27 0-.54-.05-.81s0-.58.05-.87l.06-4z" class="c"/><path d="M362.49 937v-5h8.29 0v5h-3.26-5zm37.98-5h8.29v5h0-5-3.27v-5zm-47.93 18.19v-8.29h5 0v5 3.27h-5zm61.13-8.29h5v8.29h0-5v-3.27-5zm5.05 37.97v8.31h-5v-8.31h5zm-9.95 13.21v5h-8.3v-5h8.3zm-51.19-51.18V937h4.88v4.91h-4.9z" class="c"/><path d="M408.76 937h4.91v4.88h-4.9V937zm4.92 51.18v4.9h-4.89v-4.89h4.89zm-42.9 9.94h-8.3v-5h8.3v5zm-18.18-17.93l-.07-.32h5v8.31h0l-4.89-.07v-5.36c.03-.85-.01-1.75-.04-2.56zm9.88 12.89h-4.91v-4.9h4.89v4.89z" class="c"/></g><path d="M352.6 980.19l.08 2.56v5.36c0-.05-.11-.11-.11-.17z" fill="#060605" class="c"/><path d="M362.46 993.08v-4.89h-4.89v-8.31h-5.05c0-.3.06-.59.06-.88v-23.09c0-.27 0-.54.05-.81h4.91v-4.93-3.27h4.89v-5h5V937h3.26 20.62 9.12 3.27v4.89h5v5h4.89v3.27 4.93h4.91c0 .27.05.54.05.81V979c0 .29 0 .58.06.88h-5.05v8.31h-4.89v4.89h-8.32v5c-.22 0-.44-.06-.66-.06h-28.25c-.22 0-.44 0-.66.06v-5zm1.61-39.65h10v9.9H379v-9.88h-5v-4.88h-10v4.86h-4.85v9.88h4.9v-7.17c.08-.89.05-1.8.02-2.71zm43.08 0v-4.89h-9.94v4.91h-4.93v9.87h4.91v-9.89h10c0 .27-.06.54-.06.81v9.12H412v-9.91zm-13.37 39.6a3.7 3.7 0 0 0 .13-.74v-4.16h4.95v-4.92h1.63l3.22-.1a2.68 2.68 0 0 0 .11-.55v-13.63a5.07 5.07 0 0 0-.05-.56h-36.31v.41 13.87a2.08 2.08 0 0 0 .11.48 6.9 6.9 0 0 0 .78.09h4.12v5h4.89v4a5.31 5.31 0 0 0 .13.89 2.23 2.23 0 0 0 .36.05h15.59a2.23 2.23 0 0 0 .34-.11z" class="c e"/><g class="g"><path d="M357.54 950.17v4.93h-4.91l-.05-4.11c0-.27 0-.54-.06-.8zM400.49 937h-9.12-20.62v-5c.22 0 .43.06.65.06h28.39c.21 0 .43 0 .65-.06zm18.13 18.1h-4.91v-4.93h5l-.06 4c.01.35-.01.64-.03.93zM367.49 937v4.89h-5V937zm41.29 4.89h-5V937h5z" class="c"/><path d="M362.48 941.88v5h-4.89v-5zm51.18 5.02h-4.89v-5h4.91z" class="c"/></g><path d="M367.54 983.13a2.08 2.08 0 0 1-.11-.48v-13.87-.41h36.31a5.07 5.07 0 0 1 .05.56v13.65a2.68 2.68 0 0 1-.11.55h-4.82l-.06-8.29v-1.49h-26.38v2l-.06 7.77z" class="a c"/><g class="g"><path d="M393.78 993.05a2.23 2.23 0 0 1-.36.05h-15.59a2.23 2.23 0 0 1-.36-.05v-4.84c.27 0 .54-.05.81-.05h13.52l2 .05zM374 953.47h5v9.88h-4.91v-9.88zm23.19-.02v9.89h-4.91v-9.87h4.93zm9.97 0H412v9.91h-4.9v-9.12c0-.27 0-.54.06-.81z" class="c"/><path d="M397.21 953.47v-4.91h9.94v4.89h0-10zm-33.12-.02v-4.86h10v4.86h-10z" class="c"/><path d="M364.07 953.43l.07 2.73v7.17h-4.9v-9.88h4.85zm13.39 34.78v4.84a5.31 5.31 0 0 1-.13-.89v-4h-4.89v-5h-4.12a6.9 6.9 0 0 1-.78-.09h9.84v1.38l.08 3.76zm16.32 4.84v-4.84-5.08h9.92l-3.22.1h-1.63v4.92h-4.95v4.16a3.7 3.7 0 0 1-.12.74z" class="c"/></g><path d="M398.89 983.13h-5.1v5.08l-2-.05h-13.52c-.27 0-.54 0-.81.05l-.08-3.7v-1.38h-5l.06-7.77v-2h26.41v1.49z" class="c d"/></g><g class="c"><g class="a"><path d="M1799.36 942.25a2.29 2.29 0 0 1-1.07-2.19q0-23.1 0-46.18c0-1.76.47-2.22 2.24-2.22h27.18c1.74 0 2.23.49 2.23 2.25v7.21h7.18c1.81 0 2.3.5 2.3 2.31v27.07c0 1.79-.5 2.28-2.33 2.28H1830v5.66 1.78a2.35 2.35 0 0 1-1 2zm27.33-37.88H1811v25.15h15.65zm-25.15 0v6.2h6.17v-6.2zm15.63-3.26v-6.21H1811v6.19zm-15.64 0h6.18v-6.16h-6.18zm6.19 38v-6.2h-6.15v6.2zm3.32-6.22V939h6.16v-6.19zm19-28.47v6.17h6.18v-6.17zm-22.27 19h-6.21v6.16h6.21zm22.26 6.16h6.16v-6.16H1830zM1807.7 920v-6.15h-6.16V920zm28.49-6.15H1830V920h6.15zM1820.52 901h6.15v-6.15h-6.15zm6.15 38v-6.15h-6.13V939zm-141.39-15.67h-6.86c-2.32 0-2.64-.33-2.64-2.69v-6.74h-6.28v26c0 1.92-.44 2.37-2.32 2.37h-8.4c-1.39 0-2-.58-2-2q0-23.29 0-46.6c0-1.46.57-2 2-2q4.31 0 8.61 0c1.47 0 2 .54 2 2v7.45h7.16c1.87 0 2.33.47 2.33 2.37v7.05h6.29v-16.6c0-1.79.46-2.25 2.2-2.25q4.2 0 8.4 0c1.49 0 2 .53 2 2v46.6c0 1.46-.55 2-2 2h-8.5c-1.61 0-2.1-.5-2.1-2.15v-15.63zm3.25-28.45v6.2h6.14v-6.2zm6.2 38h-6.19V939h6.19zm-6.21-9.5v6.18h6.16v-6.18zm-22.29 6.2v-6.16h-6.17v6.16zm-6.14 3.29V939h6.15v-6.17zm0-31.77h6.16v-6.18h-6.16zm0 3.31v6.15h6.18v-6.15zm34.65 6.18v-6.17h-6.18v6.17zm-25.13-6.2v6.16h6.12v-6.16zm25.11 15.67v-6.16h-6.15v6.16zm-9.46-6.14h-6.15v6.13h6.15zm-19 0h-6.2V920h6.2z"/></g><g class="d"><path d="M1737.45 902.79c-.27-.46-.43-1.15-.83-1.34a1.23 1.23 0 0 1-.76-1.38v-5.15h6.28v5.86c0 .15-.22.3-.34.45l-1.23 1.55zm52.95-5.67a1.84 1.84 0 0 0-1.57 2.21c.05.55 0 1.1 0 1.72h-6.23v-6.17h7.79zm-7.79 13.42v-6.18h6.16v6.18zm6.16 28.46h-6.15v-6.19h6.15zm-9.45-44.1v6.16h-6.16v-6.16zm-19.01 6.17h-6.17v-6.15h6.17zm.01 3.31v6.15h-6.19v-6.15zm12.81 25.13v-6.13h6.18v6.13zm-12.82.02h-6.16v-6.14h6.16zm-.01 9.47h-6.15v-6.15h6.15zm-6.14-25.13h6.12V920h-6.12zm25.16.03v6.1h-6.18v-6.1zm3.27 6.1v-6.11h6.19V920zm-18.92-25.11h6.12v6.16h-6.12zm-.01 19h6.13V920h-6.13zm37.88-9.54h6.17v6.2h-6.17zm15.63-3.26H1811v-6.19h6.14zm-15.64-.02v-6.16h6.18v6.16zm6.19 37.98h-6.15v-6.2h6.15zm3.28-6.22h6.16V939H1811zm19-28.47h6.18v6.17H1830zm-22.26 19v6.16h-6.21v-6.16zm22.26 6.16v-6.16h6.16v6.16zm-22.3-9.52h-6.16v-6.15h6.16zm28.49-6.12V920H1830v-6.15zM1820.52 901v-6.15h6.15V901zm6.15 38h-6.13v-6.15h6.13zm-113.03-37.89h-6.19v-6.17h6.19zm3.36-6.21h6.13v6.2H1717zm-3.38 44.15h-6.15v-6.15h6.15zm3.32-6.19h6.16V939h-6.16zm-3.28-9.43v6.12h-6.2v-6.12zm-6.23-12.88v-6.12h6.2v6.12zm18.99-9.48v-6.15h6.15v6.15zm9.51 31.8h6.18V939h-6.18zm-12.83-12.81h-6.1V914h6.14zm9.49 12.84v6.1h-6.12v-6.1zm-25.13-12.9v-6.1h6.16v6.1zm19-6.08h6.12V920h-6.12zm-37.93-19.04h6.14v6.2h-6.14zm6.2 38V939h-6.19v-6.13zm-6.21-9.5h6.16v6.18h-6.16zm-22.29 6.2h-6.17v-6.16h6.17zm-6.14 3.29h6.15V939h-6.15zm-.04-31.77v-6.18h6.16v6.18zm0 3.31h6.18v6.15h-6.18zm34.65 6.18h-6.18v-6.17h6.18zm-25.13-6.2h6.12v6.16h-6.12zm25.11 15.67h-6.15v-6.16h6.15zm-9.46-6.14v6.13h-6.15v-6.13zm-18.97-.01V920h-6.2v-6.13z"/></g><g class="a"><path d="M1743.05 929.63H1717v-6.3h16.75c1.62 0 2.15-.53 2.16-2.13v-8.29c0-1.8-.49-2.28-2.33-2.28H1717v-6.28h18.42a5 5 0 0 0 .59 0h0 6.47l1.45-.05c1-.08 1.42-.75 1.42-2.29v-8.18c0-1.62-.53-2.15-2.13-2.15h-36.93c-1.54 0-2.06.53-2.06 2.08q0 23.24 0 46.48c0 1.49.53 2 2 2h37c1.53 0 2.07-.55 2.08-2.09v-8.25c.04-1.82-.42-2.27-2.26-2.27zm-16.59-15.71h6.12V920h-6.12zm-9.5 0h6.14v6.11h-6.1zm18.91-19h6.28v5.86c0 .1-.09.19-.19.29h-5.85a1.5 1.5 0 0 1-.24-1v-5.15zm-9.45 0h6.15v6.15h-6.15zm-9.47 0h6.13v6.2H1717zm-9.5 0h6.19v6.17h-6.19zm0 9.49h6.2v6.12h-6.2zm0 9.49h6.16v6.1h-6.16zm6.16 25.13h-6.15v-6.13h6.15zm0-9.5h-6.2v-6.12h6.2zm9.44 9.47h-6.16v-6.16h6.16zm9.49 0h-6.12v-6.1h6.12zm9.52 0h-6.18v-6.15h6.18zm49.94-7.11c0-1.86-.44-2.3-2.26-2.31h-7.15v-6.27h7.15c1.76 0 2.26-.5 2.26-2.23v-21.69-.35h0v-5.79h0a1.34 1.34 0 0 0 0-.2c-.12-.91-.8-1.38-2-1.39h-36.83c-1.8 0-2.27.47-2.27 2.31q0 23 0 46a2.44 2.44 0 0 0 1 2.32h10.71a2.8 2.8 0 0 0 1-2.46v-16.42h6.28v7c0 2 .44 2.4 2.4 2.4h7.09v7.31a2.12 2.12 0 0 0 1.12 2.16h10.5a2.29 2.29 0 0 0 1.07-2.19l-.07-8.2zm-37.88-37h6.17v6.15h-6.17zm6.16 44.1h-6.15v-6.15h6.15zm0-9.49h-6.16v-6.14h6.16zm-6.15-9.51v-6.15h6.12V920zm6.16-9.49h-6.19v-6.15h6.19zm3.35-15.64h6.12v6.16h-6.12zm6.12 25.13h-6.13v-6.13h6.13zm-6.16-9.47v-6.18h15.66v6.18zm15.68 19h-6.18v-6.13h6.18zm0-9.52h-6.18v-6.1h6.18zm0-18.93h-6.16v-6.17h6.16zm3.29-6.18h6.23v3.85a3 3 0 0 0 0 .6v.31 1.41h-6.23zm6.16 9.48v6.18h-6.16v-6.18zm-6.18 9.55h6.19V920h-6.19zm6.18 25.11h-6.15v-6.19h6.15z"/></g></g><g opacity=".8"><path d="M715.66 212.61H711v-.53-45.82-.45h4.63z" class="b f"/><g class="a"><path d="M715.66 165.81H711a6.49 6.49 0 0 0-.09.74v45 .44c0 .39-.14.53-.52.52h-3-75a7.29 7.29 0 0 1-.79-.08h78.35a3.39 3.39 0 0 0 .45 0 .48.48 0 0 0 .49-.52v-45.25-.4c0-.33-.13-.45-.45-.45h-3.52c-.37 0-.51.15-.48.51v.44 40.39a6.2 6.2 0 0 1-.08.74V166.4c0-.67 0-.68-.66-.67H697v-.11V161h5 8.32c.74 0 .74 0 .74.72v3.38c0 .61 0 .61.63.61h4z" class="b"/><path d="M706.32 207.89a6.2 6.2 0 0 0 .08-.74v-40.39-.44c0-.36.11-.52.48-.51h3.52c.32 0 .47.12.45.45v.4 45.23a.48.48 0 0 1-.49.52 3.39 3.39 0 0 1-.45 0h-78.35a8 8 0 0 1-.08-.84v-44.9a2.17 2.17 0 0 0 0-.36c0-.38.13-.53.52-.52h3.42c.58 0 .6 0 .6.61v.45q0 20.13 0 40.28a6.2 6.2 0 0 0 .08.74h32c.72 0 .72 0 .72-.75v-40.43-.49c0-.16.12-.4.4-.4h3.91c.29 0 .41.13.4.4v.49 40.38.31c0 .38.12.52.51.52z" class="b"/></g><g class="f"><path d="M711 212.6v4.05c0 .66 0 .66-.64.66h-31.52c-.62 0-.62 0-.62.63v4h-14v-.53-3.65c0-.32-.09-.47-.43-.44a2.67 2.67 0 0 1-.4 0H632c-.64 0-.64 0-.64-.66v-4.05h0 .09H711z" class="b"/><path d="M631.39 212.6h-4.18c-.44 0-.54-.14-.54-.56v-22.36q0-11.92 0-23.87h4.52a8 8 0 0 1 .08.83q0 22.47 0 44.93c0 .25.05.5.07.75v.28z" class="b"/></g><path d="M668.84 161.1v4.53h-36.73c-.61 0-.63 0-.63-.62v-3.24c0-.67 0-.67.67-.67z" class="a b"/><path d="M697 193.84h-4.71v-25.25h0a6 6 0 0 0 .07-.61v-3.87c0-.36.1-.52.45-.52h4.17v5 25.25z" class="b d"/><g class="a"><path d="M692.24 165.74h-18.15c-.53 0-.56-.05-.55-.59v-3.46c0-.53.07-.66.57-.66h17.8.4v4.59zm.01 4.69v4.73h-13.16c-.89 0-.89 0-.89-.91v-3.16c0-.61 0-.64.66-.64zm0 9.35v4.72h-13.43c-.61 0-.62 0-.62-.62v-3.51c0-.56.07-.6.63-.55a5.7 5.7 0 0 0 .71 0h11.38c.45.03.89-.02 1.33-.04zm0 9.42v4.63h-1.28-12.08c-.69.06-.69.06-.69-.65v-2.4-1.11c0-.37.11-.52.48-.5s.77 0 1.16 0z" class="b"/></g><path d="M692.27 168.17q0-3.57 0-7.14H697v7.15a1.69 1.69 0 0 1-.42.13h-3.85a1.39 1.39 0 0 1-.46-.14z" class="b d"/><g class="a"><path d="M697 175.16v-4.72h4.09c.42 0 .57.14.56.57q0 1.81 0 3.63c0 .39-.13.53-.52.53l-4.13-.01zm0 9.34v-4.72h4.26c.27 0 .38.09.38.35v4c0 .37-.23.39-.5.39zm0 9.34v-4.64h2.66 1.55c.3 0 .42.13.42.43v3.77c0 .35-.16.45-.48.45H697zm-28.16-32.74h-36.69c-.67 0-.67 0-.67.67v3.24c0 .6 0 .62.63.62h36.73a3.55 3.55 0 0 1-.64.1h-31.31c-.79 0-.79 0-.79.77v41.39a6.2 6.2 0 0 1-.08-.74q0-20.15 0-40.28v-.45c0-.58 0-.6-.6-.61H632c-.39 0-.55.14-.52.52a2.17 2.17 0 0 1 0 .36v44.9a8 8 0 0 0 .08.84h0l-.09.16h-.09v-.28-.49q0-17.94 0-35.88V165.8v-.1-4.22c0-.37.13-.52.5-.5s.68 0 1 0h35.22a6.06 6.06 0 0 1 .74.12z" class="b"/></g><path d="M631.39,165.72v.1h-4.69a3.45,3.45,0,0,1,.54-.11Z" class="b f"/><path d="M631.47 212.59l.09-.16a7.29 7.29 0 0 0 .79.08h75 3c.38 0 .56-.13.52-.52v-.44-45a6.49 6.49 0 0 1 .09-.74v.45 45.82.53h-79.49z" fill="#b5b5b5" class="b"/><g class="a"><path d="M652.52 170.44h11c.64 0 .66 0 .66.64v3.47c0 .55 0 .6-.57.6h-22.34c-.41 0-.55-.13-.54-.54v-3.6c0-.56 0-.58.58-.58zm-.09 32.82h-11.07c-.62 0-.63 0-.63-.62v-3.56c0-.41.13-.54.54-.54q11.21 0 22.41 0c.41 0 .54.14.54.54v3.51c0 .61-.07.67-.67.67zm.04-18.76h-11.11c-.62 0-.62 0-.63-.62v-3.51c0-.4.07-.63.55-.53a3.18 3.18 0 0 0 .62 0h20.94a5.85 5.85 0 0 0 .84 0c.39-.07.52.11.52.46v1.86 1.87c0 .36-.13.5-.5.49h-11.23zm.02 4.7h11c.63 0 .69.06.7.68v3.24c0 .72 0 .73-.71.73h-18.79q-1.71 0-3.42.06c-.42 0-.55-.15-.54-.55v-3.51c0-.64 0-.65.64-.65zm37.43 14.06h-11c-.73 0-.73 0-.73-.75v-3.34c0-.61 0-.62.62-.62h22.37c.31 0 .42.13.42.43v4c0 .1-.15.24-.26.3a1.06 1.06 0 0 1-.4 0z" class="b"/></g><path d="M631.21 165.82h.17v10.14q0 17.94 0 35.88v.49c0-.25-.07-.5-.07-.75q0-22.46 0-44.93a8 8 0 0 0-.1-.83z" fill="#555" class="b"/></g><defs ><path id="B" d="M191.32 777.83h5.41v5.41h-5.41z"/></defs></svg>