<svg xmlns="http://www.w3.org/2000/svg" viewBox="0 0 41.05 41.12" fill="#fff" xmlns:v="https://vecta.io/nano"><path d="M16.19 24.88H14v-8.66h2.2v8.67zm-9.76 7.58v-4-.33-.31-10.2-.31-2-6.65h1.08v-1.1h1.06v-1.1h23.85v1.09h1v1.1h1.1v18 .36 5.09.33h-1.03v1.09h-1.05v1.11H8.89c-.32 0-.32 0-.32-.33a4.17 4.17 0 0 1 0-.5c0-.23-.08-.29-.29-.27s-.35 0-.52 0-.26 0-.25-.23v-.64c0-.21 0-.23-.22-.23zM8.58 27v2c0 .17.07.21.22.2s.44 0 .66 0 .22.05.22.21v1.69c0 .19.06.25.25.25h1.71c.19 0 .25.06.24.24s0 .43 0 .65 0 .21.2.21h17.1v-1.1h2.18v-2.14h1.08V26v-.12V12.1a2 2 0 0 0 0-.22h-1.11V9.74h-2.19V8.66H11.85v1.09H9.66v2.15H8.57v8.2 1.54z"/><path d="M22.66 14.07h2.15v2.15h-8.62v-2.15zM16.2 27v-2.12h8.62V27z"/><path d="M27 21.65v3.23h-2.19V22.7v-.34-6.14H27zm2.13-9.74v2.15H27v-2.15zM40 4.32V3.23h-1.1v-1.1h-1.08v-1h-1V0H4.28v1.08H3.23v1H2.14v1.1H1v1.14H0v32.47h1.06v1.1h1.09V39h1.1v1h1v1.09h32.51V40h1v-1h1.1v-1.1H40v-1.1h1.06V4.32zM38.9 9v23.46 3c0 .17-.06.25-.24.24H38c-.16 0-.23.06-.22.22s0 .46 0 .69-.05.19-.19.19H37c-.14 0-.2.06-.2.2v.69c0 .23-.06.21-.21.21h-.67c-.16 0-.22.07-.22.23v.62c0 .21-.1.25-.29.25H5.67c-.19 0-.31 0-.29-.25s0-.41 0-.62 0-.23-.22-.23H4.5c-.15 0-.22-.06-.22-.21V37c0-.23-.06-.2-.2-.2h-.66c-.13 0-.18-.06-.18-.19v-.69c0-.23-.06-.22-.23-.22h-.64c-.18 0-.23-.07-.23-.24v-3-4.4-5.37-.31V9v-.33-3c0-.19.08-.25.26-.24H3c.16 0 .22-.07.22-.23v-.66c0-.22.06-.21.2-.2s.41 0 .62 0 .23-.06.23-.23v-.57c0-.19.08-.32.32-.3h.57c.15 0 .21-.06.21-.21v-.62c0-.2.06-.27.26-.27h29.78c.19 0 .27.07.26.27s0 .41 0 .62 0 .21.21.21h.57c.23 0 .34.06.31.3s0 .38 0 .57.07.23.23.23h.62c.21 0 .2.06.2.2v.66c0 .16.06.24.22.23h.62c.18 0 .26 0 .26.24v3z"/></svg>