<svg xmlns="http://www.w3.org/2000/svg" viewBox="0 0 103.83 40.88" fill="#fff" xmlns:v="https://vecta.io/nano"><path d="M36.86 32.74h4.09v4.11h-4.09z"/><path d="M40.95 32.74h4.09v4.11h-4.09z"/><path d="M45.05 32.74h4.09v4.11h-4.09z"/><path d="M49.14 32.74h4.09v4.11h-4.09zm8.19 0h4.09v4.11h-4.09z"/><path d="M53.23 32.74h4.09v4.11h-4.09zm8.19 0h4.09v4.11h-4.09z"/><path d="M65.52 32.74h4.09v4.11h-4.09zm-24.57 4h4.09v4.11h-4.09z"/><path d="M45.05 36.74h4.09v4.11h-4.09z"/><path d="M49.14 36.74h4.09v4.11h-4.09zm8.19 0h4.09v4.11h-4.09z"/><path d="M53.23 36.74h4.09v4.11h-4.09zm8.19 0h4.09v4.11h-4.09z"/><path d="M65.52 36.74h4.09v4.11h-4.09z"/><path d="M69.61 32.74h4.09v4.11h-4.09zm-32.75-4.09h4.09v4.11h-4.09zM40.96 0v4.09h-4.11V0z"/><path d="M40.97 4.09v4.09h-4.11V4.09zm0 8.19v4.09h-4.11v-4.09z"/><path d="M40.96 8.19v4.09h-4.11V8.19zm0 8.19v4.09h-4.11v-4.09z"/><path d="M40.96 20.47v4.09h-4.11v-4.09z"/><path d="M40.97 24.56v4.09h-4.11v-4.09zM65.5 8.19V4.1h4.11v4.09zM40.95.01h4.09v4.11h-4.09z"/><path d="M45.05.01h4.09v4.11h-4.09zm8.18 0h4.09v4.11h-4.09z"/><path d="M49.14.01h4.09v4.11h-4.09zm8.19 0h4.09v4.11h-4.09z"/><path d="M61.42.01h4.09v4.11h-4.09z"/><path d="M61.42 4.08h4.09v4.11h-4.09zm8.18 8.2V8.19h4.11v4.09z"/><path d="M65.52 8.18h4.09v4.11h-4.09zm8.18 8.2v-4.09h4.11v4.09z"/><path d="M69.61 12.28h4.09v4.11h-4.09z"/><path d="M73.69 20.49V16.4h4.11v4.09z"/><path d="M69.61 16.38h4.09v4.11h-4.09zm4.08 8.22v-4.09h4.11v4.09zm-16.37-8.22v-4.09h4.11v4.09zm-.01 4.11V16.4h4.11v4.09zm0 4.11v-4.09h4.11v4.09z"/><path d="M69.61 20.5h4.09v4.11h-4.09z"/><path d="M73.7 28.66v-4.09h4.11v4.09z"/><path d="M69.61 24.56h4.09v4.11h-4.09z"/><path d="M65.52 24.56h4.09v4.11h-4.09zM36.86 36.74h4.09v4.11h-4.09z"/><path d="M61.43 28.65h4.09v4.11h-4.09z"/><path d="M65.52 28.65h4.09v4.11h-4.09z"/><path d="M69.61 28.65h4.09v4.11h-4.09z"/><path d="M73.71 28.65h4.09v4.11h-4.09zM49.13 12.29V8.2h4.11v4.09zm0 4.11v-4.09h4.11v4.09zm0 4.12v-4.09h4.11v4.09z"/><path d="M49.13 24.58v-4.09h4.11v4.09z"/><path d="M49.14 24.57h4.09v4.11h-4.09zm4.08-12.27V8.21h4.11v4.09zm0 4.11v-4.09h4.11v4.09zm.01 4.12v-4.09h4.11v4.09z"/><path d="M53.22 24.58v-4.09h4.11v4.09z"/><path d="M53.23 24.57h4.09v4.11h-4.09zM4.1 36.74h4.09v4.11H4.1z"/><path d="M8.2 36.74h4.09v4.11H8.2z"/><path d="M12.29 36.74h4.09v4.11h-4.09zm4.1 0h4.09v4.11h-4.09zm-12.29-4h4.09v4.11H4.1z"/><path d="M.01 32.74H4.1v4.11H.01zm8.19 0h4.09v4.11H8.2z"/><path d="M12.29 32.74h4.09v4.11h-4.09zm4.1 0h4.09v4.11h-4.09zm8.18 0h4.09v4.11h-4.09z"/><path d="M20.48 32.74h4.09v4.11h-4.09zm8.19 0h4.09v4.11h-4.09z"/><path d="M32.76 32.74h4.09v4.11h-4.09zm4.1-28.65v4.09h-4.11V4.09z"/><path d="M36.87 8.19v4.09h-4.11V8.19zm0 8.19v4.09h-4.11v-4.09z"/><path d="M36.87 12.28v4.09h-4.11v-4.09zm0 8.19v4.09h-4.11v-4.09z"/><path d="M36.86 24.56v4.09h-4.11v-4.09zm.01 4.1v4.09h-4.11v-4.09zM4.12 8.19v4.09H.01V8.19zm-.01 8.19v4.09H0v-4.09z"/><path d="M4.12 12.28v4.09H.01v-4.09zm0 8.19v4.09H.01v-4.09zm-.01 4.1v4.09H0v-4.09z"/><path d="M4.12 28.66v4.09H.01v-4.09zM4.1.01h4.09v4.11H4.1z"/><path d="M8.2.01h4.09v4.11H8.2zm8.19 0h4.09v4.11h-4.09z"/><path d="M12.29.01h4.09v4.11h-4.09zm8.19 0h4.09v4.11h-4.09z"/><path d="M24.57.01h4.09v4.11h-4.09zm4.1 0h4.09v4.11h-4.09z"/><path d="M28.67 4.09h4.09V8.2h-4.09zm-20.48 0v4.09H4.08V4.09z"/><path d="M0 4.09h4.09V8.2H0zm24.57 32.65h4.09v4.11h-4.09zm4.1 0h4.09v4.11h-4.09z"/><path d="M32.76 36.74h4.09v4.11h-4.09zm-20.47-8.11h4.09v4.11h-4.09zm4.1 0h4.09v4.11h-4.09z"/><path d="M20.48 28.63h4.09v4.11h-4.09zm-8.19-4.11h4.09v4.11h-4.09z"/><path d="M16.39 24.52h4.09v4.11h-4.09z"/><path d="M20.48 24.52h4.09v4.11h-4.09zm-8.19-8.23h4.09v4.11h-4.09zm4.1 0h4.09v4.11h-4.09z"/><path d="M20.48 16.29h4.09v4.11h-4.09zm-8.19-4.12h4.09v4.11h-4.09z"/><path d="M16.39 12.17h4.09v4.11h-4.09z"/><path d="M20.48 12.17h4.09v4.11h-4.09zm-8.19-4.11h4.09v4.11h-4.09z"/><path d="M16.39 8.06h4.09v4.11h-4.09z"/><path d="M20.48 8.06h4.09v4.11h-4.09zm62.87 12.43h4.09v4.11h-4.09z"/><path d="M87.44 20.49h4.09v4.11h-4.09zm4.1 0h4.09v4.11h-4.09z"/><path d="M95.63 20.49h4.09v4.11h-4.09zm-8.18 4.12v4.09h-4.11v-4.09z"/><path d="M87.46 28.7v4.09h-4.11V28.7z"/><path d="M87.45 32.8v4.09h-4.11V32.8zm16.38 0v4.09h-4.11V32.8z"/><path d="M99.72 36.9h-4.09v-4.11h4.09z"/><path d="M95.62 36.9h-4.09v-4.11h4.09z"/><path d="M91.53 36.9h-4.09v-4.11h4.09zm12.3-.12v4.09h-4.11v-4.09z"/><path d="M99.72 40.88h-4.09v-4.11h4.09zm4.12-16.21v4.09h-4.11v-4.09zm-4.12 4.1h-4.09v-4.11h4.09z"/><path d="M103.83 28.65v4.09h-4.11v-4.09z"/><path d="M99.72 32.75h-4.09v-4.11h4.09zm-4.1 8.13h-4.09v-4.11h4.09z"/><path d="M91.53 40.88h-4.09v-4.11h4.09z"/></svg>