<svg xmlns="http://www.w3.org/2000/svg" viewBox="0 0 217.83 704.72" xmlns:v="https://vecta.io/nano"><style><![CDATA[.R{fill:#4ebead}.S{fill:#3ea5a6}.T{fill:#5ec8ab}.U{fill:#d6784f}.V{fill:#281916}.W{fill:#73ceab}.X{fill:#c86749}.Y{fill:#e08f54}.Z{fill:#2f1e1b}.a{fill:#1f1210}.b{fill:#1a283a}.c{fill:#18191a}.d{fill:#171e2a}.e{fill:#268ca0}.f{fill:#223652}.g{fill:#316a8e}]]></style><path d="M217.83,384.4v12.81H205V384.4h12.82" class="S"/><path d="M217.83,371.58V384.4H205V371.58h12.82" class="R"/><path d="M217.83,358.77v12.81H205V358.77h12.82" class="T"/><g class="W"><path d="M217.83,346v12.82H205V346h12.82m0-12.81V346H205V333.14h12.82"/><path d="M217.83,320.32v12.82H205V320.32h12.82m0-12.81v12.81H205V307.51h12.82m0-12.8v12.8H205v-12.8h12.82m0-12.82v12.82H205V281.89h12.82m0-12.81v12.81H205V269.08h12.82m0-12.82v12.82H205V256.26h12.82"/></g><path d="M217.83,243.45v12.81H205V243.45h12.82" class="T"/><path d="M217.83,230.63v12.82H205V230.63h12.82" class="R"/><path d="M205,435.64v12.82H192.2V435.64H205" class="U"/><path d="M205,422.83v12.81H192.2V422.83H205" class="X"/><path d="M205,410v12.82H192.2V410H205m0-12.8V410H192.2v-12.8H205" class="S"/><path d="M205,384.4v12.81H192.2V384.4H205" class="R"/><g class="T"><path d="M205,371.58V384.4H192.2V371.58H205m0-12.81v12.81H192.2V358.77H205M205,346v12.82H192.2V346H205m0-12.81V346H192.2V333.14H205"/><path d="M205,320.32v12.82H192.2V320.32H205m0-12.81v12.81H192.2V307.51H205m0-12.8v12.8H192.2v-12.8H205m0-12.82v12.82H192.2V281.89H205m0-12.81v12.81H192.2V269.08H205m0-12.82v12.82H192.2V256.26H205"/></g><path d="M205,243.45v12.81H192.2V243.45H205m0-12.82v12.82H192.2V230.63H205" class="W"/><path d="M205,217.82v12.81H192.2V217.82H205" class="T"/><path d="M205,205v12.81H192.2V205H205" class="R"/><g class="c"><path d="M192.2,691.92v12.8H179.38v-12.8H192.2"/><path d="M192.2,679.1v12.82H179.38V679.1H192.2"/></g><path d="M192.2,448.46v12.82H179.38V448.46H192.2" class="Y"/><path d="M192.2,435.64v12.82H179.38V435.64H192.2" class="U"/><path d="M192.2,422.83v12.81H179.38V422.83H192.2" class="X"/><path d="M192.2,410v12.82H179.38V410H192.2" class="R"/><path d="M192.2,397.21V410H179.38v-12.8H192.2" class="W"/><path d="M192.2,384.4v12.81H179.38V384.4H192.2" class="T"/><path d="M192.2,371.58V384.4H179.38V371.58H192.2" class="R"/><g class="S"><path d="M192.2,358.77v12.81H179.38V358.77H192.2m0-12.82v12.82H179.38V346H192.2m0-12.81V346H179.38V333.14H192.2"/><path d="M192.2,320.32v12.82H179.38V320.32H192.2m0-12.81v12.81H179.38V307.51H192.2m0-12.8v12.8H179.38v-12.8H192.2m0-12.82v12.82H179.38V281.89H192.2m0-12.81v12.81H179.38V269.08H192.2"/></g><path d="M192.2,256.26v12.82H179.38V256.26H192.2" class="R"/><path d="M192.2,243.45v12.81H179.38V243.45H192.2m0-12.82v12.82H179.38V230.63H192.2m0-12.81v12.81H179.38V217.82H192.2" class="W"/><path d="M192.2,205v12.81H179.38V205H192.2" class="T"/><path d="M192.2,192.2V205H179.38V192.2H192.2" class="R"/><path d="M192.2,102.51v12.8H179.38v-12.8H192.2" class="U"/><path d="M192.2,89.69v12.82H179.38V89.69H192.2" class="Y"/><path d="M192.2,76.88V89.69H179.38V76.88H192.2" class="V"/><path d="M192.2,64.06V76.88H179.38V64.06H192.2m0-12.81V64.06H179.38V51.25H192.2" class="Z"/><g class="c"><path d="M179.38,691.92v12.8H166.57v-12.8h12.81"/><path d="M179.38,679.1v12.82H166.57V679.1h12.81"/></g><g class="S"><path d="M179.38,422.83v12.81H166.57V422.83h12.81m0-12.82v12.82H166.57V410h12.81m0-12.8V410H166.57v-12.8h12.81m0-12.81v12.81H166.57V384.4h12.81"/><path d="M179.38,371.58V384.4H166.57V371.58h12.81m0-12.81v12.81H166.57V358.77h12.81"/></g><g class="R"><path d="M179.38,346v12.82H166.57V346h12.81m0-12.81V346H166.57V333.14h12.81"/><path d="M179.38,320.32v12.82H166.57V320.32h12.81m0-12.81v12.81H166.57V307.51h12.81m0-12.8v12.8H166.57v-12.8h12.81m0-12.82v12.82H166.57V281.89h12.81m0-12.81v12.81H166.57V269.08h12.81"/></g><path d="M179.38,256.26v12.82H166.57V256.26h12.81" class="T"/><path d="M179.38,243.45v12.81H166.57V243.45h12.81m0-12.82v12.82H166.57V230.63h12.81" class="W"/><path d="M179.38,217.82v12.81H166.57V217.82h12.81" class="T"/><path d="M179.38,205v12.81H166.57V205h12.81" class="e"/><path d="M179.38,192.2V205H166.57V192.2h12.81" class="S"/><path d="M179.38,179.38V192.2H166.57V179.38h12.81" class="R"/><path d="M179.38,128.12v12.82H166.57V128.12h12.81" class="V"/><path d="M179.38,115.31v12.81H166.57V115.31h12.81" class="a"/><path d="M179.38,102.51v12.8H166.57v-12.8h12.81" class="U"/><path d="M179.38,89.69v12.82H166.57V89.69h12.81" class="X"/><path d="M179.38,76.88V89.69H166.57V76.88h12.81" class="a"/><path d="M179.38,64.06V76.88H166.57V64.06h12.81" class="V"/><path d="M179.38,51.25V64.06H166.57V51.25h12.81m0-12.82V51.25H166.57V38.43h12.81" class="Z"/><path d="M179.38,25.62V38.43H166.57V25.62h12.81" class="V"/><g class="c"><path d="M166.57,691.92v12.8h-12.8v-12.8h12.8"/><path d="M166.57,679.1v12.82h-12.8V679.1h12.8m0-12.81V679.1h-12.8V666.29h12.8"/></g><g class="d"><path d="M166.57,640.66v12.81h-12.8V640.66h12.8m0-12.82v12.82h-12.8V627.84h12.8m0-12.81v12.81h-12.8V615h12.8"/><path d="M166.57,602.21V615h-12.8V602.21h12.8m0-12.8v12.8h-12.8v-12.8h12.8m0-12.81v12.81h-12.8V576.6h12.8m0-12.82V576.6h-12.8V563.78h12.8m0-12.81v12.81h-12.8V551h12.8"/><path d="M166.57,538.15V551h-12.8V538.15h12.8m0-12.81v12.81h-12.8V525.34h12.8m0-12.82v12.82h-12.8V512.52h12.8"/><path d="M166.57,499.71v12.81h-12.8V499.71h12.8m0-12.81v12.81h-12.8V486.9h12.8m0-12.81V486.9h-12.8V474.09h12.8m0-12.81v12.81h-12.8V461.28h12.8m0-12.82v12.82h-12.8V448.46h12.8m0-12.82v12.82h-12.8V435.64h12.8"/></g><path d="M166.57,422.83v12.81h-12.8V422.83h12.8m0-12.82v12.82h-12.8V410h12.8m0-12.8V410h-12.8v-12.8h12.8m0-12.81v12.81h-12.8V384.4h12.8" class="R"/><path d="M166.57,371.58V384.4h-12.8V371.58h12.8" class="S"/><path d="M166.57,358.77v12.81h-12.8V358.77h12.8" class="R"/><path d="M166.57,346v12.82h-12.8V346h12.8" class="T"/><g class="W"><path d="M166.57,333.14V346h-12.8V333.14h12.8"/><path d="M166.57,320.32v12.82h-12.8V320.32h12.8m0-12.81v12.81h-12.8V307.51h12.8m0-12.8v12.8h-12.8v-12.8h12.8m0-12.82v12.82h-12.8V281.89h12.8m0-12.81v12.81h-12.8V269.08h12.8m0-12.82v12.82h-12.8V256.26h12.8m0-12.81v12.81h-12.8V243.45h12.8"/></g><path d="M166.57,230.63v12.82h-12.8V230.63h12.8" class="T"/><path d="M166.57,217.82v12.81h-12.8V217.82h12.8" class="R"/><path d="M166.57,205v12.81h-12.8V205h12.8" class="e"/><path d="M166.57,192.2V205h-12.8V192.2h12.8" class="S"/><path d="M166.57,179.38V192.2h-12.8V179.38h12.8" class="R"/><path d="M166.57,166.57v12.81h-12.8V166.57h12.8" class="S"/><path d="M166.57,140.94v12.82h-12.8V140.94h12.8" class="Z"/><path d="M166.57,128.12v12.82h-12.8V128.12h12.8m0-12.81v12.81h-12.8V115.31h12.8m0-12.8v12.8h-12.8v-12.8h12.8m0-12.82v12.82h-12.8V89.69h12.8" class="Y"/><path d="M166.57,76.88V89.69h-12.8V76.88h12.8" class="U"/><path d="M166.57,64.06V76.88h-12.8V64.06h12.8" class="a"/><path d="M166.57,51.25V64.06h-12.8V51.25h12.8" class="V"/><path d="M166.57,38.43V51.25h-12.8V38.43h12.8m0-12.81V38.43h-12.8V25.62h12.8" class="Z"/><path d="M166.57,12.8V25.62h-12.8V12.8h12.8" class="V"/><g class="c"><path d="M153.77,691.92v12.8H141v-12.8h12.82"/><path d="M153.77,679.1v12.82H141V679.1h12.82m0-12.81V679.1H141V666.29h12.82"/><path d="M153.77,653.47v12.82H141V653.47h12.82"/></g><path d="M153.77,640.66v12.81H141V640.66h12.82" class="d"/><g class="b"><path d="M153.77,627.84v12.82H141V627.84h12.82m0-12.81v12.81H141V615h12.82"/><path d="M153.77,602.21V615H141V602.21h12.82m0-12.8v12.8H141v-12.8h12.82m0-12.81v12.81H141V576.6h12.82m0-12.82V576.6H141V563.78h12.82m0-12.81v12.81H141V551h12.82"/><path d="M153.77,538.15V551H141V538.15h12.82m0-12.81v12.81H141V525.34h12.82m0-12.82v12.82H141V512.52h12.82"/><path d="M153.77,499.71v12.81H141V499.71h12.82m0-12.81v12.81H141V486.9h12.82m0-12.81V486.9H141V474.09h12.82m0-12.81v12.81H141V461.28h12.82"/></g><path d="M153.77,448.46v12.82H141V448.46h12.82m0-12.82v12.82H141V435.64h12.82" class="d"/><path d="M153.77,422.83v12.81H141V422.83h12.82m0-12.82v12.82H141V410h12.82" class="W"/><path d="M153.77,397.21V410H141v-12.8h12.82" class="T"/><path d="M153.77,384.4v12.81H141V384.4h12.82" class="R"/><path d="M153.77,371.58V384.4H141V371.58h12.82" class="S"/><path d="M153.77,358.77v12.81H141V358.77h12.82" class="R"/><path d="M153.77,346v12.82H141V346h12.82" class="T"/><g class="W"><path d="M153.77,333.14V346H141V333.14h12.82"/><path d="M153.77,320.32v12.82H141V320.32h12.82m0-12.81v12.81H141V307.51h12.82m0-12.8v12.8H141v-12.8h12.82m0-12.82v12.82H141V281.89h12.82m0-12.81v12.81H141V269.08h12.82m0-12.82v12.82H141V256.26h12.82"/></g><path d="M153.77,243.45v12.81H141V243.45h12.82" fill="#5ec8ad"/><path d="M153.77,230.63v12.82H141V230.63h12.82" class="R"/><path d="M153.77,217.82v12.81H141V217.82h12.82" class="e"/><path d="M153.77,205v12.81H141V205h12.82" class="S"/><path d="M153.77,192.2V205H141V192.2h12.82m0-12.82V192.2H141V179.38h12.82m0-12.81v12.81H141V166.57h12.82" class="R"/><path d="M153.77,153.76v12.81H141V153.76h12.82" class="U"/><path d="M153.77,140.94v12.82H141V140.94h12.82m0-12.82v12.82H141V128.12h12.82m0-12.81v12.81H141V115.31h12.82m0-12.8v12.8H141v-12.8h12.82m0-12.82v12.82H141V89.69h12.82" class="Y"/><path d="M153.77,76.88V89.69H141V76.88h12.82" class="U"/><path d="M153.77,64.06V76.88H141V64.06h12.82" class="X"/><path d="M153.77,51.25V64.06H141V51.25h12.82" class="a"/><path d="M153.77,38.43V51.25H141V38.43h12.82" class="V"/><g class="Z"><path d="M153.77,25.62V38.43H141V25.62h12.82"/><path d="M153.77,12.8V25.62H141V12.8h12.82"/></g><path d="M153.77,0V12.8H141V0h12.82" class="V"/><g class="c"><path d="M141,691.92v12.8H128.14v-12.8H141"/><path d="M141,679.1v12.82H128.14V679.1H141m0-12.81V679.1H128.14V666.29H141"/><path d="M141,653.47v12.82H128.14V653.47H141"/></g><path d="M141,640.66v12.81H128.14V640.66H141" class="d"/><path d="M141,627.84v12.82H128.14V627.84H141" class="b"/><g class="f"><path d="M141,615v12.81H128.14V615H141"/><path d="M141,602.21V615H128.14V602.21H141m0-12.8v12.8H128.14v-12.8H141m0-12.81v12.81H128.14V576.6H141m0-12.82V576.6H128.14V563.78H141M141,551v12.81H128.14V551H141"/><path d="M141,538.15V551H128.14V538.15H141m0-12.81v12.81H128.14V525.34H141m0-12.82v12.82H128.14V512.52H141"/><path d="M141,499.71v12.81H128.14V499.71H141m0-12.81v12.81H128.14V486.9H141m0-12.81V486.9H128.14V474.09H141m0-12.81v12.81H128.14V461.28H141"/></g><path d="M141,448.46v12.82H128.14V448.46H141" class="b"/><path d="M141,435.64v12.82H128.14V435.64H141" class="d"/><g class="R"><path d="M141,422.83v12.81H128.14V422.83H141M141,410v12.82H128.14V410H141m0-12.8V410H128.14v-12.8H141m0-12.81v12.81H128.14V384.4H141"/><path d="M141,371.58V384.4H128.14V371.58H141m0-12.81v12.81H128.14V358.77H141M141,346v12.82H128.14V346H141m0-12.81V346H128.14V333.14H141"/><path d="M141,320.32v12.82H128.14V320.32H141m0-12.81v12.81H128.14V307.51H141m0-12.8v12.8H128.14v-12.8H141m0-12.82v12.82H128.14V281.89H141m0-12.81v12.81H128.14V269.08H141m0-12.82v12.82H128.14V256.26H141m0-12.81v12.81H128.14V243.45H141"/></g><path d="M141,230.63v12.82H128.14V230.63H141" class="e"/><path d="M141,217.82v12.81H128.14V217.82H141" class="S"/><path d="M141,205v12.81H128.14V205H141m0-12.81V205H128.14V192.2H141" class="R"/><path d="M141,179.38V192.2H128.14V179.38H141" class="S"/><path d="M141,166.57v12.81H128.14V166.57H141" class="X"/><path d="M141,153.76v12.81H128.14V153.76H141m0-12.82v12.82H128.14V140.94H141m0-12.82v12.82H128.14V128.12H141m0-12.81v12.81H128.14V115.31H141m0-12.8v12.8H128.14v-12.8H141m0-12.82v12.82H128.14V89.69H141m0-12.81V89.69H128.14V76.88H141" class="Y"/><path d="M141,64.06V76.88H128.14V64.06H141" class="U"/><path d="M141,51.25V64.06H128.14V51.25H141" class="X"/><path d="M141,38.43V51.25H128.14V38.43H141" class="a"/><path d="M141,25.62V38.43H128.14V25.62H141" class="V"/><g class="Z"><path d="M141,12.8V25.62H128.14V12.8H141"/><path d="M141,0V12.8H128.14V0H141"/></g><g class="c"><path d="M128.14,691.92v12.8H115.32v-12.8h12.82"/><path d="M128.14,679.1v12.82H115.32V679.1h12.82m0-12.81V679.1H115.32V666.29h12.82"/><path d="M128.14,653.47v12.82H115.32V653.47h12.82"/></g><path d="M128.14,640.66v12.81H115.32V640.66h12.82" class="d"/><path d="M128.14,627.84v12.82H115.32V627.84h12.82" class="b"/><g class="f"><path d="M128.14,615v12.81H115.32V615h12.82"/><path d="M128.14,602.21V615H115.32V602.21h12.82m0-12.8v12.8H115.32v-12.8h12.82m0-12.81v12.81H115.32V576.6h12.82m0-12.82V576.6H115.32V563.78h12.82m0-12.81v12.81H115.32V551h12.82"/><path d="M128.14,538.15V551H115.32V538.15h12.82m0-12.81v12.81H115.32V525.34h12.82m0-12.82v12.82H115.32V512.52h12.82"/><path d="M128.14,499.71v12.81H115.32V499.71h12.82m0-12.81v12.81H115.32V486.9h12.82m0-12.81V486.9H115.32V474.09h12.82m0-12.81v12.81H115.32V461.28h12.82m0-12.82v12.82H115.32V448.46h12.82"/></g><path d="M128.14,435.64v12.82H115.32V435.64h12.82" class="b"/><g class="S"><path d="M128.14,422.83v12.81H115.32V422.83h12.82m0-12.82v12.82H115.32V410h12.82m0-12.8V410H115.32v-12.8h12.82m0-12.81v12.81H115.32V384.4h12.82"/><path d="M128.14,371.58V384.4H115.32V371.58h12.82m0-12.81v12.81H115.32V358.77h12.82m0-12.82v12.82H115.32V346h12.82m0-12.81V346H115.32V333.14h12.82"/><path d="M128.14,320.32v12.82H115.32V320.32h12.82m0-12.81v12.81H115.32V307.51h12.82m0-12.8v12.8H115.32v-12.8h12.82m0-12.82v12.82H115.32V281.89h12.82m0-12.81v12.81H115.32V269.08h12.82m0-12.82v12.82H115.32V256.26h12.82m0-12.81v12.81H115.32V243.45h12.82"/></g><path d="M128.14,230.63v12.82H115.32V230.63h12.82" class="e"/><path d="M128.14,217.82v12.81H115.32V217.82h12.82" class="S"/><path d="M128.14,205v12.81H115.32V205h12.82" class="R"/><path d="M128.14,192.2V205H115.32V192.2h12.82" class="S"/><path d="M128.14,179.38V192.2H115.32V179.38h12.82" class="U"/><path d="M128.14,166.57v12.81H115.32V166.57h12.82" class="X"/><path d="M128.14,153.76v12.81H115.32V153.76h12.82m0-12.82v12.82H115.32V140.94h12.82m0-12.82v12.82H115.32V128.12h12.82m0-12.81v12.81H115.32V115.31h12.82m0-12.8v12.8H115.32v-12.8h12.82m0-12.82v12.82H115.32V89.69h12.82m0-12.81V89.69H115.32V76.88h12.82" class="Y"/><path d="M128.14,64.06V76.88H115.32V64.06h12.82" class="U"/><path d="M128.14,51.25V64.06H115.32V51.25h12.82" class="X"/><path d="M128.14,38.43V51.25H115.32V38.43h12.82" class="a"/><path d="M128.14,25.62V38.43H115.32V25.62h12.82" class="V"/><g class="Z"><path d="M128.14,12.8V25.62H115.32V12.8h12.82"/><path d="M128.14,0V12.8H115.32V0h12.82"/></g><path d="M115.32,448.46v12.82H102.51V448.46h12.81" class="f"/><path d="M115.32,435.64v12.82H102.51V435.64h12.81" class="b"/><path d="M115.32,422.83v12.81H102.51V422.83h12.81m0-12.82v12.82H102.51V410h12.81" class="W"/><path d="M115.32,397.21V410H102.51v-12.8h12.81m0-12.81v12.81H102.51V384.4h12.81" class="g"/><path d="M115.32,371.58V384.4H102.51V371.58h12.81m0-12.81v12.81H102.51V358.77h12.81" class="W"/><path d="M115.32,346v12.82H102.51V346h12.81m0-12.81V346H102.51V333.14h12.81" class="g"/><path d="M115.32,320.32v12.82H102.51V320.32h12.81m0-12.81v12.81H102.51V307.51h12.81" class="W"/><path d="M115.32,294.71v12.8H102.51v-12.8h12.81m0-12.82v12.82H102.51V281.89h12.81" class="g"/><path d="M115.32,269.08v12.81H102.51V269.08h12.81m0-12.82v12.82H102.51V256.26h12.81" class="W"/><path d="M115.32,243.45v12.81H102.51V243.45h12.81m0-12.82v12.82H102.51V230.63h12.81" class="g"/><path d="M115.32,217.82v12.81H102.51V217.82h12.81" class="R"/><path d="M115.32,205v12.81H102.51V205h12.81m0-12.81V205H102.51V192.2h12.81" class="Y"/><path d="M115.32,179.38V192.2H102.51V179.38h12.81" class="U"/><path d="M115.32,166.57v12.81H102.51V166.57h12.81" class="X"/><path d="M115.32,153.76v12.81H102.51V153.76h12.81m0-12.82v12.82H102.51V140.94h12.81m0-12.82v12.82H102.51V128.12h12.81" class="Y"/><path d="M115.32,115.31v12.81H102.51V115.31h12.81m0-12.8v12.8H102.51v-12.8h12.81" class="U"/><path d="M115.32,89.69v12.82H102.51V89.69h12.81" class="Y"/><path d="M115.32,76.88V89.69H102.51V76.88h12.81" class="U"/><path d="M115.32,64.06V76.88H102.51V64.06h12.81" class="X"/><path d="M115.32,51.25V64.06H102.51V51.25h12.81" class="a"/><path d="M115.32,38.43V51.25H102.51V38.43h12.81" class="V"/><g class="Z"><path d="M115.32,25.62V38.43H102.51V25.62h12.81"/><path d="M115.32,12.8V25.62H102.51V12.8h12.81"/><path d="M115.32,0V12.8H102.51V0h12.81"/></g><g class="c"><path d="M102.51,691.92v12.8H89.69v-12.8h12.82"/><path d="M102.51,679.1v12.82H89.69V679.1h12.82m0-12.81V679.1H89.69V666.29h12.82"/><path d="M102.51,653.47v12.82H89.69V653.47h12.82"/></g><g class="d"><path d="M102.51,640.66v12.81H89.69V640.66h12.82m0-12.82v12.82H89.69V627.84h12.82m0-12.81v12.81H89.69V615h12.82"/><path d="M102.51,602.21V615H89.69V602.21h12.82m0-12.8v12.8H89.69v-12.8h12.82m0-12.81v12.81H89.69V563.78h12.82V576.6"/><path d="M102.51,551v12.81H89.69V551h12.82"/><path d="M102.51,538.15V551H89.69V538.15h12.82m0-12.81v12.81H89.69V525.34h12.82m0-12.82v12.82H89.69V512.52h12.82"/><path d="M102.51,499.71v12.81H89.69V499.71h12.82m0-12.81v12.81H89.69V486.9h12.82m0-12.81V486.9H89.69V474.09h12.82m0-12.81v12.81H89.69V461.28h12.82"/></g><path d="M102.51,448.46v12.82H89.69V448.46h12.82" class="f"/><path d="M102.51,435.64v12.82H89.69V435.64h12.82" class="b"/><g class="S"><path d="M102.51,422.83v12.81H89.69V422.83h12.82m0-12.82v12.82H89.69V410h12.82m0-12.8V410H89.69v-12.8h12.82m0-12.81v12.81H89.69V384.4h12.82"/><path d="M102.51,371.58V384.4H89.69V371.58h12.82m0-12.81v12.81H89.69V358.77h12.82m0-12.82v12.82H89.69V346h12.82m0-12.81V346H89.69V333.14h12.82"/><path d="M102.51,320.32v12.82H89.69V320.32h12.82m0-12.81v12.81H89.69V307.51h12.82m0-12.8v12.8H89.69v-12.8h12.82m0-12.82v12.82H89.69V281.89h12.82m0-12.81v12.81H89.69V269.08h12.82m0-12.82v12.82H89.69V256.26h12.82m0-12.81v12.81H89.69V243.45h12.82"/></g><path d="M102.51,230.63v12.82H89.69V230.63h12.82" class="e"/><path d="M102.51,217.82v12.81H89.69V217.82h12.82" class="S"/><path d="M102.51,205v12.81H89.69V205h12.82" class="R"/><path d="M102.51,192.2V205H89.69V192.2h12.82" class="S"/><path d="M102.51,179.38V192.2H89.69V179.38h12.82" class="U"/><path d="M102.51,166.57v12.81H89.69V166.57h12.82" class="X"/><path d="M102.51,153.76v12.81H89.69V153.76h12.82m0-12.82v12.82H89.69V140.94h12.82m0-12.82v12.82H89.69V128.12h12.82m0-12.81v12.81H89.69V115.31h12.82m0-12.8v12.8H89.69v-12.8h12.82m0-12.82v12.82H89.69V89.69h12.82" class="Y"/><path d="M102.51,76.88V89.69H89.69V76.88h12.82" class="U"/><path d="M102.51,64.06V76.88H89.69V64.06h12.82" class="X"/><path d="M102.51,51.25V64.06H89.69V51.25h12.82" class="a"/><path d="M102.51,38.43V51.25H89.69V38.43h12.82" class="V"/><g class="Z"><path d="M102.51,25.62V38.43H89.69V25.62h12.82"/><path d="M102.51,12.8V25.62H89.69V12.8h12.82"/><path d="M102.51,0V12.8H89.69V0h12.82"/></g><g class="c"><path d="M89.69,691.92v12.8H76.88v-12.8H89.69"/><path d="M89.69,679.1v12.82H76.88V679.1H89.69m0-12.81V679.1H76.88V666.29H89.69"/><path d="M89.69,653.47v12.82H76.88V653.47H89.69"/></g><path d="M89.69,640.66v12.81H76.88V640.66H89.69" class="d"/><g class="b"><path d="M89.69,627.84v12.82H76.88V627.84H89.69m0-12.81v12.81H76.88V615H89.69"/><path d="M89.69,602.21V615H76.88V602.21H89.69m0-12.8v12.8H76.88v-12.8H89.69m0-12.81v12.81H76.88V576.6H89.69m0-12.82V576.6H76.88V563.78H89.69m0-12.81v12.81H76.88V551H89.69"/><path d="M89.69,538.15V551H76.88V538.15H89.69m0-12.81v12.81H76.88V525.34H89.69m0-12.82v12.82H76.88V512.52H89.69"/><path d="M89.69,499.71v12.81H76.88V499.71H89.69m0-12.81v12.81H76.88V486.9H89.69m0-12.81V486.9H76.88V474.09H89.69m0-12.81v12.81H76.88V461.28H89.69"/></g><path d="M89.69,448.46v12.82H76.88V448.46H89.69" class="f"/><path d="M89.69,435.64v12.82H76.88V435.64H89.69" class="b"/><g class="R"><path d="M89.69,422.83v12.81H76.88V422.83H89.69m0-12.82v12.82H76.88V410H89.69m0-12.8V410H76.88v-12.8H89.69m0-12.81v12.81H76.88V384.4H89.69"/><path d="M89.69,371.58V384.4H76.88V371.58H89.69m0-12.81v12.81H76.88V358.77H89.69m0-12.82v12.82H76.88V346H89.69m0-12.81V346H76.88V333.14H89.69"/><path d="M89.69,320.32v12.82H76.88V320.32H89.69m0-12.81v12.81H76.88V307.51H89.69m0-12.8v12.8H76.88v-12.8H89.69m0-12.82v12.82H76.88V281.89H89.69m0-12.81v12.81H76.88V269.08H89.69m0-12.82v12.82H76.88V256.26H89.69m0-12.81v12.81H76.88V243.45H89.69"/></g><path d="M89.69,230.63v12.82H76.88V230.63H89.69" class="e"/><path d="M89.69,217.82v12.81H76.88V217.82H89.69" class="S"/><path d="M89.69,205v12.81H76.88V205H89.69m0-12.81V205H76.88V192.2H89.69" class="R"/><path d="M89.69,179.38V192.2H76.88V179.38H89.69" class="S"/><path d="M89.69,166.57v12.81H76.88V166.57H89.69" class="X"/><path d="M89.69,153.76v12.81H76.88V153.76H89.69m0-12.82v12.82H76.88V140.94H89.69m0-12.82v12.82H76.88V128.12H89.69m0-12.81v12.81H76.88V115.31H89.69m0-12.8v12.8H76.88v-12.8H89.69" class="Y"/><path d="M89.69,89.69v12.82H76.88V89.69H89.69" class="U"/><path d="M89.69,76.88V89.69H76.88V76.88H89.69" class="X"/><path d="M89.69,64.06V76.88H76.88V64.06H89.69" class="a"/><path d="M89.69,51.25V64.06H76.88V51.25H89.69m0-12.82V51.25H76.88V38.43H89.69" class="V"/><g class="Z"><path d="M89.69,25.62V38.43H76.88V25.62H89.69"/><path d="M89.69,12.8V25.62H76.88V12.8H89.69"/><path d="M89.69,0V12.8H76.88V0H89.69"/></g><g class="c"><path d="M76.88,691.92v12.8H64.06v-12.8H76.88"/><path d="M76.88,679.1v12.82H64.06V679.1H76.88m0-12.81V679.1H64.06V666.29H76.88"/><path d="M76.88,653.47v12.82H64.06V653.47H76.88"/></g><path d="M76.88,640.66v12.81H64.06V640.66H76.88" class="d"/><path d="M76.88,627.84v12.82H64.06V627.84H76.88" class="b"/><g class="f"><path d="M76.88,615v12.81H64.06V615H76.88"/><path d="M76.88,602.21V615H64.06V602.21H76.88m0-12.8v12.8H64.06v-12.8H76.88m0-12.81v12.81H64.06V576.6H76.88m0-12.82V576.6H64.06V563.78H76.88m0-12.81v12.81H64.06V551H76.88"/><path d="M76.88,538.15V551H64.06V538.15H76.88m0-12.81v12.81H64.06V525.34H76.88m0-12.82v12.82H64.06V512.52H76.88"/><path d="M76.88,499.71v12.81H64.06V499.71H76.88m0-12.81v12.81H64.06V486.9H76.88m0-12.81V486.9H64.06V474.09H76.88m0-12.81v12.81H64.06V461.28H76.88"/></g><path d="M76.88,448.46v12.82H64.06V448.46H76.88" class="b"/><path d="M76.88,435.64v12.82H64.06V435.64H76.88" class="d"/><path d="M76.88,422.83v12.81H64.06V422.83H76.88m0-12.82v12.82H64.06V410H76.88" class="W"/><path d="M76.88,397.21V410H64.06v-12.8H76.88" class="T"/><path d="M76.88,384.4v12.81H64.06V384.4H76.88" class="R"/><path d="M76.88,371.58V384.4H64.06V371.58H76.88" class="S"/><path d="M76.88,358.77v12.81H64.06V358.77H76.88" class="R"/><path d="M76.88,346v12.82H64.06V346H76.88" class="T"/><g class="W"><path d="M76.88,333.14V346H64.06V333.14H76.88"/><path d="M76.88,320.32v12.82H64.06V320.32H76.88m0-12.81v12.81H64.06V307.51H76.88m0-12.8v12.8H64.06v-12.8H76.88m0-12.82v12.82H64.06V281.89H76.88m0-12.81v12.81H64.06V269.08H76.88m0-12.82v12.82H64.06V256.26H76.88"/></g><path d="M76.88,243.45v12.81H64.06V243.45H76.88" class="T"/><path d="M76.88,230.63v12.82H64.06V230.63H76.88" class="R"/><path d="M76.88,217.82v12.81H64.06V217.82H76.88" class="e"/><path d="M76.88,205v12.81H64.06V205H76.88" class="S"/><path d="M76.88,192.2V205H64.06V192.2H76.88m0-12.82V192.2H64.06V179.38H76.88m0-12.81v12.81H64.06V166.57H76.88" class="R"/><path d="M76.88,153.76v12.81H64.06V153.76H76.88" class="U"/><path d="M76.88,140.94v12.82H64.06V140.94H76.88m0-12.82v12.82H64.06V128.12H76.88m0-12.81v12.81H64.06V115.31H76.88m0-12.8v12.8H64.06v-12.8H76.88" class="Y"/><path d="M76.88,89.69v12.82H64.06V89.69H76.88" class="U"/><path d="M76.88,76.88V89.69H64.06V76.88H76.88" class="X"/><path d="M76.88,64.06V76.88H64.06V64.06H76.88" class="a"/><path d="M76.88,51.25V64.06H64.06V51.25H76.88" class="V"/><g class="Z"><path d="M76.88,38.43V51.25H64.06V38.43H76.88m0-12.81V38.43H64.06V25.62H76.88"/><path d="M76.88,12.8V25.62H64.06V12.8H76.88"/></g><path d="M76.88,0V12.8H64.06V0H76.88" class="V"/><g class="c"><path d="M64.06,691.92v12.8H51.26v-12.8h12.8"/><path d="M64.06,679.1v12.82H51.26V679.1h12.8m0-12.81V679.1H51.26V666.29h12.8"/></g><path d="M64.06,640.66v12.81H51.26V640.66h12.8" class="d"/><path d="M64.06,627.84v12.82H51.26V627.84h12.8" class="b"/><g class="f"><path d="M64.06,615v12.81H51.26V615h12.8"/><path d="M64.06,602.21V615H51.26V602.21h12.8m0-12.8v12.8H51.26v-12.8h12.8m0-12.81v12.81H51.26V576.6h12.8m0-12.82V576.6H51.26V563.78h12.8m0-12.81v12.81H51.26V551h12.8"/><path d="M64.06,538.15V551H51.26V538.15h12.8m0-12.81v12.81H51.26V525.34h12.8m0-12.82v12.82H51.26V512.52h12.8"/><path d="M64.06,499.71v12.81H51.26V499.71h12.8m0-12.81v12.81H51.26V486.9h12.8m0-12.81V486.9H51.26V474.09h12.8"/></g><path d="M64.06,461.28v12.81H51.26V461.28h12.8" class="b"/><path d="M64.06,448.46v12.82H51.26V448.46h12.8m0-12.82v12.82H51.26V435.64h12.8" class="d"/><path d="M64.06,422.83v12.81H51.26V422.83h12.8m0-12.82v12.82H51.26V410h12.8m0-12.8V410H51.26v-12.8h12.8m0-12.81v12.81H51.26V384.4h12.8" class="R"/><path d="M64.06,371.58V384.4H51.26V371.58h12.8" class="S"/><path d="M64.06,358.77v12.81H51.26V358.77h12.8" class="R"/><path d="M64.06,346v12.82H51.26V346h12.8" class="T"/><g class="W"><path d="M64.06,333.14V346H51.26V333.14h12.8"/><path d="M64.06,320.32v12.82H51.26V320.32h12.8m0-12.81v12.81H51.26V307.51h12.8m0-12.8v12.8H51.26v-12.8h12.8m0-12.82v12.82H51.26V281.89h12.8m0-12.81v12.81H51.26V269.08h12.8m0-12.82v12.82H51.26V256.26h12.8m0-12.81v12.81H51.26V243.45h12.8"/></g><path d="M64.06,230.63v12.82H51.26V230.63h12.8" class="T"/><path d="M64.06,217.82v12.81H51.26V217.82h12.8" class="R"/><path d="M64.06,205v12.81H51.26V205h12.8" class="e"/><path d="M64.06,192.2V205H51.26V192.2h12.8" class="S"/><path d="M64.06,179.38V192.2H51.26V179.38h12.8" class="R"/><path d="M64.06,166.57v12.81H51.26V166.57h12.8" class="S"/><path d="M64.06,140.94v12.82H51.26V140.94h12.8" class="Z"/><path d="M64.06,128.12v12.82H51.26V128.12h12.8m0-12.81v12.81H51.26V115.31h12.8m0-12.8v12.8H51.26v-12.8h12.8" class="Y"/><path d="M64.06,89.69v12.82H51.26V89.69h12.8" class="X"/><g class="a"><path d="M64.06,76.88V89.69H51.26V76.88h12.8"/><path d="M64.06,64.06V76.88H51.26V64.06h12.8"/></g><path d="M64.06,51.25V64.06H51.26V51.25h12.8" class="V"/><path d="M64.06,38.43V51.25H51.26V38.43h12.8m0-12.81V38.43H51.26V25.62h12.8" class="Z"/><path d="M64.06,12.8V25.62H51.26V12.8h12.8" class="V"/><g class="c"><path d="M51.26,691.92v12.8H38.45v-12.8H51.26"/><path d="M51.26,679.1v12.82H38.45V679.1H51.26"/></g><g class="S"><path d="M51.26,422.83v12.81H38.45V422.83H51.26m0-12.82v12.82H38.45V410H51.26m0-12.8V410H38.45v-12.8H51.26m0-12.81v12.81H38.45V384.4H51.26"/><path d="M51.26,371.58V384.4H38.45V371.58H51.26m0-12.81v12.81H38.45V358.77H51.26"/></g><g class="R"><path d="M51.26,346v12.82H38.45V346H51.26m0-12.81V346H38.45V333.14H51.26"/><path d="M51.26,320.32v12.82H38.45V320.32H51.26m0-12.81v12.81H38.45V307.51H51.26m0-12.8v12.8H38.45v-12.8H51.26m0-12.82v12.82H38.45V281.89H51.26m0-12.81v12.81H38.45V269.08H51.26"/></g><g class="W"><path d="M51.26,256.26v12.82H38.45V256.26H51.26"/><path d="M51.26,243.45v12.81H38.45V243.45H51.26m0-12.82v12.82H38.45V230.63H51.26"/></g><path d="M51.26,217.82v12.81H38.45V217.82H51.26" class="T"/><path d="M51.26,205v12.81H38.45V205H51.26" class="e"/><path d="M51.26,192.2V205H38.45V192.2H51.26" class="S"/><path d="M51.26,179.38V192.2H38.45V179.38H51.26" class="R"/><path d="M51.26,128.12v12.82H38.45V128.12H51.26" class="V"/><path d="M51.26,115.31v12.81H38.45V115.31H51.26" class="a"/><path d="M51.26,102.51v12.8H38.45v-12.8H51.26" class="U"/><path d="M51.26,89.69v12.82H38.45V89.69H51.26" class="X"/><path d="M51.26,76.88V89.69H38.45V76.88H51.26" class="a"/><path d="M51.26,64.06V76.88H38.45V64.06H51.26" class="V"/><path d="M51.26,51.25V64.06H38.45V51.25H51.26m0-12.82V51.25H38.45V38.43H51.26" class="Z"/><path d="M51.26,25.62V38.43H38.45V25.62H51.26" class="V"/><g class="c"><path d="M38.45,691.92v12.8H25.63v-12.8H38.45"/><path d="M38.45,679.1v12.82H25.63V679.1H38.45"/></g><path d="M38.45,448.46v12.82H25.63V448.46H38.45" class="Y"/><path d="M38.45,435.64v12.82H25.63V435.64H38.45" class="U"/><path d="M38.45,422.83v12.81H25.63V422.83H38.45" class="X"/><path d="M38.45,410v12.82H25.63V410H38.45" class="R"/><path d="M38.45,397.21V410H25.63v-12.8H38.45" class="W"/><path d="M38.45,384.4v12.81H25.63V384.4H38.45" class="T"/><path d="M38.45,371.58V384.4H25.63V371.58H38.45" class="R"/><g class="S"><path d="M38.45,358.77v12.81H25.63V358.77H38.45m0-12.82v12.82H25.63V346H38.45m0-12.81V346H25.63V333.14H38.45"/><path d="M38.45,320.32v12.82H25.63V320.32H38.45m0-12.81v12.81H25.63V307.51H38.45m0-12.8v12.8H25.63v-12.8H38.45m0-12.82v12.82H25.63V281.89H38.45m0-12.81v12.81H25.63V269.08H38.45"/></g><path d="M38.45,256.26v12.82H25.63V256.26H38.45" class="R"/><path d="M38.45,243.45v12.81H25.63V243.45H38.45m0-12.82v12.82H25.63V230.63H38.45m0-12.81v12.81H25.63V217.82H38.45" class="W"/><path d="M38.45,205v12.81H25.63V205H38.45" class="T"/><path d="M38.45,192.2V205H25.63V192.2H38.45" class="R"/><path d="M38.45,102.51v12.8H25.63v-12.8H38.45" class="U"/><path d="M38.45,89.69v12.82H25.63V89.69H38.45" class="Y"/><path d="M38.45,76.88V89.69H25.63V76.88H38.45" class="V"/><path d="M38.45,64.06V76.88H25.63V64.06H38.45m0-12.81V64.06H25.63V51.25H38.45" class="Z"/><path d="M25.63,435.64v12.82H12.82V435.64H25.63" class="U"/><path d="M25.63,422.83v12.81H12.82V422.83H25.63" class="X"/><path d="M25.63,410v12.82H12.82V410H25.63m0-12.8V410H12.82v-12.8H25.63" class="S"/><path d="M25.63,384.4v12.81H12.82V384.4H25.63" class="R"/><g class="T"><path d="M25.63,371.58V384.4H12.82V371.58H25.63m0-12.81v12.81H12.82V358.77H25.63m0-12.82v12.82H12.82V346H25.63m0-12.81V346H12.82V333.14H25.63"/><path d="M25.63,320.32v12.82H12.82V320.32H25.63m0-12.81v12.81H12.82V307.51H25.63m0-12.8v12.8H12.82v-12.8H25.63m0-12.82v12.82H12.82V281.89H25.63m0-12.81v12.81H12.82V269.08H25.63m0-12.82v12.82H12.82V256.26H25.63"/></g><path d="M25.63,243.45v12.81H12.82V243.45H25.63m0-12.82v12.82H12.82V230.63H25.63" class="W"/><path d="M25.63,217.82v12.81H12.82V217.82H25.63" class="T"/><path d="M25.63,205v12.81H12.82V205H25.63" class="R"/><path d="M12.82,384.4v12.81H0V384.4H12.82" class="S"/><path d="M12.82,371.58V384.4H0V371.58H12.82" class="R"/><path d="M12.82,358.77v12.81H0V358.77H12.82" class="T"/><g class="W"><path d="M12.82,346v12.82H0V346H12.82m0-12.81V346H0V333.14H12.82"/><path d="M12.82,320.32v12.82H0V320.32H12.82m0-12.81v12.81H0V307.51H12.82m0-12.8v12.8H0v-12.8H12.82m0-12.82v12.82H0V281.89H12.82m0-12.81v12.81H0V269.08H12.82m0-12.82v12.82H0V256.26H12.82"/></g><path d="M12.82,243.45v12.81H0V243.45H12.82" class="T"/><path d="M12.82,230.63v12.82H0V230.63H12.82" class="R"/></svg>