<svg viewBox="0 0 171.11 553.59" xmlns="http://www.w3.org/2000/svg"><path d="m171.11 302v10h-10.06v-10z" fill="#3ea5a6"/><path d="m171.11 291.89v10.11h-10.06v-10.11z" fill="#4ebead"/><path d="m171.11 281.83v10.06h-10.06v-10.06z" fill="#5ec8ab"/><path d="m171.11 271.76v10.07h-10.06v-10.07zm0-10.07v10.07h-10.06v-10.07z" fill="#73ceab"/><path d="m171.11 251.63v10.06h-10.06v-10.06zm0-10.07v10.07h-10.06v-10.07zm0-10.06v10.06h-10.06v-10.06zm0-10.06v10.06h-10.06v-10.06zm0-10.07v10.07h-10.06v-10.07zm0-10.07v10.07h-10.06v-10.07z" fill="#73ceab"/><path d="m171.11 191.24v10.06h-10.06v-10.06z" fill="#5ec8ab"/><path d="m171.11 181.17v10.07h-10.06v-10.07z" fill="#4ebead"/><path d="m161.05 342.22v10.06h-10.05v-10.06h10.07" fill="#d6784f"/><path d="m161.05 332.15v10.07h-10.05v-10.07h10.07" fill="#c86749"/><path d="m161.05 322.08v10.07h-10.05v-10.07h10.07m0-10.05v10.05h-10.07v-10.08h10.07" fill="#3ea5a6"/><path d="m161.05 302v10h-10.05v-10h10.07" fill="#4ebead"/><path d="m161.05 291.89v10.11h-10.05v-10.11h10.07m0-10.06v10.06h-10.07v-10.06zm0-10.07v10.07h-10.07v-10.07zm0-10.07v10.07h-10.07v-10.07z" fill="#5ec8ab"/><path d="m161.05 251.63v10.06h-10.05v-10.06h10.07m0-10.07v10.07h-10.07v-10.07zm0-10.06v10.06h-10.07v-10.06zm0-10.06v10.06h-10.07v-10.06zm0-10.07v10.07h-10.07v-10.07zm0-10.07v10.07h-10.07v-10.07z" fill="#5ec8ab"/><path d="m161.05 191.24v10.06h-10.05v-10.06h10.07m0-10.07v10.07h-10.07v-10.07z" fill="#73ceab"/><path d="m161.05 171.1v10.07h-10.05v-10.07h10.07" fill="#5ec8ab"/><path d="m161.05 161.05v10h-10.05v-10h10.07" fill="#4ebead"/><path d="m151 543.53v10.06h-10.09v-10.06z" fill="#18191a"/><path d="m151 533.46v10.07h-10.09v-10.07z" fill="#18191a"/><path d="m151 352.28v10.07h-10.09v-10.07z" fill="#e08f54"/><path d="m151 342.22v10.06h-10.09v-10.06z" fill="#d6784f"/><path d="m151 332.15v10.07h-10.09v-10.07z" fill="#c86749"/><path d="m151 322.08v10.07h-10.09v-10.07z" fill="#4ebead"/><path d="m151 312v10.05h-10.09v-10.05z" fill="#73ceab"/><path d="m151 302v10h-10.09v-10z" fill="#5ec8ab"/><path d="m151 291.89v10.11h-10.09v-10.11z" fill="#4ebead"/><path d="m151 281.83v10.06h-10.09v-10.06zm0-10.07v10.07h-10.09v-10.07zm0-10.07v10.07h-10.09v-10.07z" fill="#3ea5a6"/><path d="m151 251.63v10.06h-10.09v-10.06zm0-10.07v10.07h-10.09v-10.07zm0-10.06v10.06h-10.09v-10.06zm0-10.06v10.06h-10.09v-10.06zm0-10.07v10.07h-10.09v-10.07z" fill="#3ea5a6"/><path d="m151 201.3v10.07h-10.09v-10.07z" fill="#4ebead"/><path d="m151 191.24v10.06h-10.09v-10.06zm0-10.07v10.07h-10.09v-10.07zm0-10.07v10.07h-10.09v-10.07z" fill="#73ceab"/><path d="m151 161.05v10h-10.09v-10z" fill="#5ec8ab"/><path d="m151 151v10.07h-10.09v-10.07z" fill="#4ebead"/><path d="m151 80.52v10.06h-10.09v-10.06z" fill="#d6784f"/><path d="m151 70.46v10.06h-10.09v-10.06z" fill="#e08f54"/><path d="m151 60.39v10.07h-10.09v-10.07z" fill="#281916"/><path d="m151 50.32v10.07h-10.09v-10.07zm0-10.06v10.06h-10.09v-10.06z" fill="#2f1e1b"/><path d="m140.91 543.53v10.06h-10.06v-10.06z" fill="#18191a"/><path d="m140.91 533.46v10.07h-10.06v-10.07z" fill="#18191a"/><path d="m140.91 332.15v10.07h-10.06v-10.07zm0-10.07v10.07h-10.06v-10.07zm0-10.05v10.05h-10.06v-10.08h10.06m0-10.07v10.07h-10.06v-10h10.06" fill="#3ea5a6"/><path d="m140.91 291.89v10.11h-10.06v-10.11zm0-10.06v10.06h-10.06v-10.06z" fill="#3ea5a6"/><path d="m140.91 271.76v10.07h-10.06v-10.07zm0-10.07v10.07h-10.06v-10.07z" fill="#4ebead"/><path d="m140.91 251.63v10.06h-10.06v-10.06zm0-10.07v10.07h-10.06v-10.07zm0-10.06v10.06h-10.06v-10.06zm0-10.06v10.06h-10.06v-10.06zm0-10.07v10.07h-10.06v-10.07z" fill="#4ebead"/><path d="m140.91 201.3v10.07h-10.06v-10.07z" fill="#5ec8ab"/><path d="m140.91 191.24v10.06h-10.06v-10.06zm0-10.07v10.07h-10.06v-10.07z" fill="#73ceab"/><path d="m140.91 171.1v10.07h-10.06v-10.07z" fill="#5ec8ab"/><path d="m140.91 161.05v10h-10.06v-10z" fill="#268ca0"/><path d="m140.91 151v10.07h-10.06v-10.07z" fill="#3ea5a6"/><path d="m140.91 140.91v10.09h-10.06v-10.09z" fill="#4ebead"/><path d="m140.91 100.65v10.06h-10.06v-10.06z" fill="#281916"/><path d="m140.91 90.58v10.07h-10.06v-10.07z" fill="#1f1210"/><path d="m140.91 80.52v10.06h-10.06v-10.06z" fill="#d6784f"/><path d="m140.91 70.46v10.06h-10.06v-10.06z" fill="#c86749"/><path d="m140.91 60.39v10.07h-10.06v-10.07z" fill="#1f1210"/><path d="m140.91 50.32v10.07h-10.06v-10.07z" fill="#281916"/><path d="m140.91 40.26v10.06h-10.06v-10.06zm0-10.07v10.07h-10.06v-10.07z" fill="#2f1e1b"/><path d="m140.91 20.12v10.07h-10.06v-10.07z" fill="#281916"/><path d="m130.85 543.53v10.06h-10.06v-10.06z" fill="#18191a"/><path d="m130.85 533.46v10.07h-10.06v-10.07zm0-10.06v10.06h-10.06v-10.06z" fill="#18191a"/><path d="m130.85 503.26v10.07h-10.06v-10.07zm0-10.06v10.06h-10.06v-10.06zm0-10.07v10.07h-10.06v-10.07z" fill="#171e2a"/><path d="m130.85 473.06v10.07h-10.06v-10.07zm0-10.05v10.05h-10.06v-10.06h10.06m0-10.07v10.07h-10.06v-10.06h10.06m0-10.07v10.07h-10.06v-10.07zm0-10.06v10.06h-10.06v-10.06z" fill="#171e2a"/><path d="m130.85 422.74v10.07h-10.06v-10.07zm0-10.07v10.07h-10.06v-10.07zm0-10.06v10.06h-10.06v-10.06z" fill="#171e2a"/><path d="m130.85 392.54v10.07h-10.06v-10.07zm0-10.06v10.06h-10.06v-10.06zm0-10.06v10.06h-10.06v-10.06zm0-10.07v10.07h-10.06v-10.07zm0-10.07v10.07h-10.06v-10.07zm0-10.06v10.06h-10.06v-10.06z" fill="#171e2a"/><path d="m130.85 332.15v10.07h-10.06v-10.07zm0-10.07v10.07h-10.06v-10.07zm0-10.05v10.05h-10.06v-10.08h10.06m0-10.07v10.07h-10.06v-10h10.06" fill="#4ebead"/><path d="m130.85 291.89v10.11h-10.06v-10.11z" fill="#3ea5a6"/><path d="m130.85 281.83v10.06h-10.06v-10.06z" fill="#4ebead"/><path d="m130.85 271.76v10.07h-10.06v-10.07z" fill="#5ec8ab"/><path d="m130.85 261.69v10.07h-10.06v-10.07z" fill="#73ceab"/><path d="m130.85 251.63v10.06h-10.06v-10.06zm0-10.07v10.07h-10.06v-10.07zm0-10.06v10.06h-10.06v-10.06zm0-10.06v10.06h-10.06v-10.06zm0-10.07v10.07h-10.06v-10.07zm0-10.07v10.07h-10.06v-10.07zm0-10.06v10.06h-10.06v-10.06z" fill="#73ceab"/><path d="m130.85 181.17v10.07h-10.06v-10.07z" fill="#5ec8ab"/><path d="m130.85 171.1v10.07h-10.06v-10.07z" fill="#4ebead"/><path d="m130.85 161.05v10h-10.06v-10z" fill="#268ca0"/><path d="m130.85 151v10.07h-10.06v-10.07z" fill="#3ea5a6"/><path d="m130.85 140.91v10.09h-10.06v-10.09z" fill="#4ebead"/><path d="m130.85 130.85v10.06h-10.06v-10.06z" fill="#3ea5a6"/><path d="m130.85 110.71v10.07h-10.06v-10.07z" fill="#2f1e1b"/><path d="m130.85 100.65v10.06h-10.06v-10.06zm0-10.07v10.07h-10.06v-10.07zm0-10.06v10.06h-10.06v-10.06zm0-10.06v10.06h-10.06v-10.06z" fill="#e08f54"/><path d="m130.85 60.39v10.07h-10.06v-10.07z" fill="#d6784f"/><path d="m130.85 50.32v10.07h-10.06v-10.07z" fill="#1f1210"/><path d="m130.85 40.26v10.06h-10.06v-10.06z" fill="#281916"/><path d="m130.85 30.19v10.07h-10.06v-10.07zm0-10.07v10.07h-10.06v-10.07z" fill="#2f1e1b"/><path d="m130.85 10.06v10.06h-10.06v-10.06z" fill="#281916"/><path d="m120.79 543.53v10.06h-10.07v-10.06z" fill="#18191a"/><path d="m120.79 533.46v10.07h-10.07v-10.07zm0-10.06v10.06h-10.07v-10.06z" fill="#18191a"/><path d="m120.79 513.33v10.07h-10.07v-10.07z" fill="#18191a"/><path d="m120.79 503.26v10.07h-10.07v-10.07z" fill="#171e2a"/><path d="m120.79 493.2v10.06h-10.07v-10.06zm0-10.07v10.07h-10.07v-10.07z" fill="#1a283a"/><path d="m120.79 473.06v10.07h-10.07v-10.07zm0-10.05v10.05h-10.07v-10.06h10.07m0-10.07v10.07h-10.07v-10.06h10.07m0-10.07v10.07h-10.07v-10.07zm0-10.06v10.06h-10.07v-10.06z" fill="#1a283a"/><path d="m120.79 422.74v10.07h-10.07v-10.07zm0-10.07v10.07h-10.07v-10.07zm0-10.06v10.06h-10.07v-10.06z" fill="#1a283a"/><path d="m120.79 392.54v10.07h-10.07v-10.07zm0-10.06v10.06h-10.07v-10.06zm0-10.06v10.06h-10.07v-10.06zm0-10.07v10.07h-10.07v-10.07z" fill="#1a283a"/><path d="m120.79 352.28v10.07h-10.07v-10.07zm0-10.06v10.06h-10.07v-10.06z" fill="#171e2a"/><path d="m120.79 332.15v10.07h-10.07v-10.07zm0-10.07v10.07h-10.07v-10.07z" fill="#73ceab"/><path d="m120.79 312v10.05h-10.07v-10.05z" fill="#5ec8ab"/><path d="m120.79 302v10h-10.07v-10z" fill="#4ebead"/><path d="m120.79 291.89v10.11h-10.07v-10.11z" fill="#3ea5a6"/><path d="m120.79 281.83v10.06h-10.07v-10.06z" fill="#4ebead"/><path d="m120.79 271.76v10.07h-10.07v-10.07z" fill="#5ec8ab"/><path d="m120.79 261.69v10.07h-10.07v-10.07z" fill="#73ceab"/><path d="m120.79 251.63v10.06h-10.07v-10.06zm0-10.07v10.07h-10.07v-10.07zm0-10.06v10.06h-10.07v-10.06zm0-10.06v10.06h-10.07v-10.06zm0-10.07v10.07h-10.07v-10.07zm0-10.07v10.07h-10.07v-10.07z" fill="#73ceab"/><path d="m120.79 191.24v10.06h-10.07v-10.06z" fill="#5ec8ad"/><path d="m120.79 181.17v10.07h-10.07v-10.07z" fill="#4ebead"/><path d="m120.79 171.1v10.07h-10.07v-10.07z" fill="#268ca0"/><path d="m120.79 161.05v10h-10.07v-10z" fill="#3ea5a6"/><path d="m120.79 151v10.07h-10.07v-10.07zm0-10.07v10.07h-10.07v-10.09h10.07m0-10.06v10.06h-10.07v-10.06z" fill="#4ebead"/><path d="m120.79 120.78v10.07h-10.07v-10.07z" fill="#d6784f"/><path d="m120.79 110.71v10.07h-10.07v-10.07zm0-10.06v10.06h-10.07v-10.06zm0-10.07v10.07h-10.07v-10.07zm0-10.06v10.06h-10.07v-10.06zm0-10.06v10.06h-10.07v-10.06z" fill="#e08f54"/><path d="m120.79 60.39v10.07h-10.07v-10.07z" fill="#d6784f"/><path d="m120.79 50.32v10.07h-10.07v-10.07z" fill="#c86749"/><path d="m120.79 40.26v10.06h-10.07v-10.06z" fill="#1f1210"/><path d="m120.79 30.19v10.07h-10.07v-10.07z" fill="#281916"/><path d="m120.79 20.12v10.07h-10.07v-10.07z" fill="#2f1e1b"/><path d="m120.79 10.06v10.06h-10.07v-10.06z" fill="#2f1e1b"/><path d="m120.79 0v10.06h-10.07v-10.06z" fill="#281916"/><path d="m110.72 543.53v10.06h-10.06v-10.06z" fill="#18191a"/><path d="m110.72 533.46v10.07h-10.06v-10.07zm0-10.06v10.06h-10.06v-10.06z" fill="#18191a"/><path d="m110.72 513.33v10.07h-10.06v-10.07z" fill="#18191a"/><path d="m110.72 503.26v10.07h-10.06v-10.07z" fill="#171e2a"/><path d="m110.72 493.2v10.06h-10.06v-10.06z" fill="#1a283a"/><path d="m110.72 483.13v10.07h-10.06v-10.07z" fill="#223652"/><path d="m110.72 473.06v10.07h-10.06v-10.07zm0-10.05v10.05h-10.06v-10.06h10.06m0-10.07v10.07h-10.06v-10.06h10.06m0-10.07v10.07h-10.06v-10.07zm0-10.06v10.06h-10.06v-10.06z" fill="#223652"/><path d="m110.72 422.74v10.07h-10.06v-10.07zm0-10.07v10.07h-10.06v-10.07zm0-10.06v10.06h-10.06v-10.06z" fill="#223652"/><path d="m110.72 392.54v10.07h-10.06v-10.07zm0-10.06v10.06h-10.06v-10.06zm0-10.06v10.06h-10.06v-10.06zm0-10.07v10.07h-10.06v-10.07z" fill="#223652"/><path d="m110.72 352.28v10.07h-10.06v-10.07z" fill="#1a283a"/><path d="m110.72 342.22v10.06h-10.06v-10.06z" fill="#171e2a"/><path d="m110.72 332.15v10.07h-10.06v-10.07zm0-10.07v10.07h-10.06v-10.07zm0-10.05v10.05h-10.06v-10.08h10.06m0-10.07v10.07h-10.06v-10h10.06" fill="#4ebead"/><path d="m110.72 291.89v10.11h-10.06v-10.11zm0-10.06v10.06h-10.06v-10.06zm0-10.07v10.07h-10.06v-10.07zm0-10.07v10.07h-10.06v-10.07z" fill="#4ebead"/><path d="m110.72 251.63v10.06h-10.06v-10.06zm0-10.07v10.07h-10.06v-10.07zm0-10.06v10.06h-10.06v-10.06zm0-10.06v10.06h-10.06v-10.06zm0-10.07v10.07h-10.06v-10.07zm0-10.07v10.07h-10.06v-10.07zm0-10.06v10.06h-10.06v-10.06z" fill="#4ebead"/><path d="m110.72 181.17v10.07h-10.06v-10.07z" fill="#268ca0"/><path d="m110.72 171.1v10.07h-10.06v-10.07z" fill="#3ea5a6"/><path d="m110.72 161.05v10h-10.06v-10zm0-10.07v10.07h-10.06v-10.05h10.06" fill="#4ebead"/><path d="m110.72 140.91v10.09h-10.06v-10.09z" fill="#3ea5a6"/><path d="m110.72 130.85v10.06h-10.06v-10.06z" fill="#c86749"/><path d="m110.72 120.78v10.07h-10.06v-10.07zm0-10.07v10.07h-10.06v-10.07zm0-10.06v10.06h-10.06v-10.06zm0-10.07v10.07h-10.06v-10.07zm0-10.06v10.06h-10.06v-10.06zm0-10.06v10.06h-10.06v-10.06zm0-10.07v10.07h-10.06v-10.07z" fill="#e08f54"/><path d="m110.72 50.32v10.07h-10.06v-10.07z" fill="#d6784f"/><path d="m110.72 40.26v10.06h-10.06v-10.06z" fill="#c86749"/><path d="m110.72 30.19v10.07h-10.06v-10.07z" fill="#1f1210"/><path d="m110.72 20.12v10.07h-10.06v-10.07z" fill="#281916"/><path d="m110.72 10.06v10.06h-10.06v-10.06z" fill="#2f1e1b"/><path d="m110.72 0v10.06h-10.06v-10.06z" fill="#2f1e1b"/><path d="m100.66 543.53v10.06h-10.07v-10.06z" fill="#18191a"/><path d="m100.66 533.46v10.07h-10.07v-10.07zm0-10.06v10.06h-10.07v-10.06z" fill="#18191a"/><path d="m100.66 513.33v10.07h-10.07v-10.07z" fill="#18191a"/><path d="m100.66 503.26v10.07h-10.07v-10.07z" fill="#171e2a"/><path d="m100.66 493.2v10.06h-10.07v-10.06z" fill="#1a283a"/><path d="m100.66 483.13v10.07h-10.07v-10.07z" fill="#223652"/><path d="m100.66 473.06v10.07h-10.07v-10.07zm0-10.05v10.05h-10.07v-10.06h10.07m0-10.07v10.07h-10.07v-10.06h10.07m0-10.07v10.07h-10.07v-10.07zm0-10.06v10.06h-10.07v-10.06z" fill="#223652"/><path d="m100.66 422.74v10.07h-10.07v-10.07zm0-10.07v10.07h-10.07v-10.07zm0-10.06v10.06h-10.07v-10.06z" fill="#223652"/><path d="m100.66 392.54v10.07h-10.07v-10.07zm0-10.06v10.06h-10.07v-10.06zm0-10.06v10.06h-10.07v-10.06zm0-10.07v10.07h-10.07v-10.07zm0-10.07v10.07h-10.07v-10.07z" fill="#223652"/><path d="m100.66 342.22v10.06h-10.07v-10.06z" fill="#1a283a"/><path d="m100.66 332.15v10.07h-10.07v-10.07zm0-10.07v10.07h-10.07v-10.07zm0-10.05v10.05h-10.07v-10.08h10.07m0-10.07v10.07h-10.07v-10h10.07" fill="#3ea5a6"/><path d="m100.66 291.89v10.11h-10.07v-10.11zm0-10.06v10.06h-10.07v-10.06zm0-10.07v10.07h-10.07v-10.07zm0-10.07v10.07h-10.07v-10.07z" fill="#3ea5a6"/><path d="m100.66 251.63v10.06h-10.07v-10.06zm0-10.07v10.07h-10.07v-10.07zm0-10.06v10.06h-10.07v-10.06zm0-10.06v10.06h-10.07v-10.06zm0-10.07v10.07h-10.07v-10.07zm0-10.07v10.07h-10.07v-10.07zm0-10.06v10.06h-10.07v-10.06z" fill="#3ea5a6"/><path d="m100.66 181.17v10.07h-10.07v-10.07z" fill="#268ca0"/><path d="m100.66 171.1v10.07h-10.07v-10.07z" fill="#3ea5a6"/><path d="m100.66 161.05v10h-10.07v-10z" fill="#4ebead"/><path d="m100.66 151v10.07h-10.07v-10.07z" fill="#3ea5a6"/><path d="m100.66 140.91v10.09h-10.07v-10.09z" fill="#d6784f"/><path d="m100.66 130.85v10.06h-10.07v-10.06z" fill="#c86749"/><path d="m100.66 120.78v10.07h-10.07v-10.07zm0-10.07v10.07h-10.07v-10.07zm0-10.06v10.06h-10.07v-10.06zm0-10.07v10.07h-10.07v-10.07zm0-10.06v10.06h-10.07v-10.06zm0-10.06v10.06h-10.07v-10.06zm0-10.07v10.07h-10.07v-10.07z" fill="#e08f54"/><path d="m100.66 50.32v10.07h-10.07v-10.07z" fill="#d6784f"/><path d="m100.66 40.26v10.06h-10.07v-10.06z" fill="#c86749"/><path d="m100.66 30.19v10.07h-10.07v-10.07z" fill="#1f1210"/><path d="m100.66 20.12v10.07h-10.07v-10.07z" fill="#281916"/><path d="m100.66 10.06v10.06h-10.07v-10.06z" fill="#2f1e1b"/><path d="m100.66 0v10.06h-10.07v-10.06z" fill="#2f1e1b"/><path d="m90.59 352.28v10.07h-10.07v-10.07z" fill="#223652"/><path d="m90.59 342.22v10.06h-10.07v-10.06z" fill="#1a283a"/><path d="m90.59 332.15v10.07h-10.07v-10.07zm0-10.07v10.07h-10.07v-10.07z" fill="#73ceab"/><path d="m90.59 312v10.05h-10.07v-10.05zm0-10.07v10.07h-10.07v-10h10.07" fill="#316a8e"/><path d="m90.59 291.89v10.11h-10.07v-10.11zm0-10.06v10.06h-10.07v-10.06z" fill="#73ceab"/><path d="m90.59 271.76v10.07h-10.07v-10.07zm0-10.07v10.07h-10.07v-10.07z" fill="#316a8e"/><path d="m90.59 251.63v10.06h-10.07v-10.06zm0-10.07v10.07h-10.07v-10.07z" fill="#73ceab"/><path d="m90.59 231.5v10.06h-10.07v-10.06zm0-10.06v10.06h-10.07v-10.06z" fill="#316a8e"/><path d="m90.59 211.37v10.07h-10.07v-10.07zm0-10.07v10.07h-10.07v-10.07z" fill="#73ceab"/><path d="m90.59 191.24v10.06h-10.07v-10.06zm0-10.07v10.07h-10.07v-10.07z" fill="#316a8e"/><path d="m90.59 171.1v10.07h-10.07v-10.07z" fill="#4ebead"/><path d="m90.59 161.05v10h-10.07v-10zm0-10.07v10.07h-10.07v-10.05h10.07" fill="#e08f54"/><path d="m90.59 140.91v10.09h-10.07v-10.09z" fill="#d6784f"/><path d="m90.59 130.85v10.06h-10.07v-10.06z" fill="#c86749"/><path d="m90.59 120.78v10.07h-10.07v-10.07zm0-10.07v10.07h-10.07v-10.07zm0-10.06v10.06h-10.07v-10.06z" fill="#e08f54"/><path d="m90.59 90.58v10.07h-10.07v-10.07zm0-10.06v10.06h-10.07v-10.06z" fill="#d6784f"/><path d="m90.59 70.46v10.06h-10.07v-10.06z" fill="#e08f54"/><path d="m90.59 60.39v10.07h-10.07v-10.07z" fill="#d6784f"/><path d="m90.59 50.32v10.07h-10.07v-10.07z" fill="#c86749"/><path d="m90.59 40.26v10.06h-10.07v-10.06z" fill="#1f1210"/><path d="m90.59 30.19v10.07h-10.07v-10.07z" fill="#281916"/><path d="m90.59 20.12v10.07h-10.07v-10.07z" fill="#2f1e1b"/><path d="m90.59 10.06v10.06h-10.07v-10.06z" fill="#2f1e1b"/><path d="m90.59 0v10.06h-10.07v-10.06z" fill="#2f1e1b"/><path d="m80.52 543.53v10.06h-10.06v-10.06z" fill="#18191a"/><path d="m80.52 533.46v10.07h-10.06v-10.07zm0-10.06v10.06h-10.06v-10.06z" fill="#18191a"/><path d="m80.52 513.33v10.07h-10.06v-10.07z" fill="#18191a"/><g fill="#171e2a"><path d="m80.52 503.26v10.07h-10.06v-10.07zm0-10.06v10.06h-10.06v-10.06zm0-10.07v10.07h-10.06v-10.07z"/><path d="m80.52 473.06v10.07h-10.06v-10.07zm0-10.05v10.05h-10.06v-10.06h10.06m0-10.07v10.07h-10.06v-20.13h10.06v10.07"/><path d="m80.52 432.81v10.06h-10.06v-10.06z"/><path d="m80.52 422.74v10.07h-10.06v-10.07zm0-10.07v10.07h-10.06v-10.07zm0-10.06v10.06h-10.06v-10.06z"/><path d="m80.52 392.54v10.07h-10.06v-10.07zm0-10.06v10.06h-10.06v-10.06zm0-10.06v10.06h-10.06v-10.06zm0-10.07v10.07h-10.06v-10.07z"/></g><path d="m80.52 352.28v10.07h-10.06v-10.07z" fill="#223652"/><path d="m80.52 342.22v10.06h-10.06v-10.06z" fill="#1a283a"/><path d="m80.52 332.15v10.07h-10.06v-10.07zm0-10.07v10.07h-10.06v-10.07zm0-10.05v10.05h-10.06v-10.08h10.06m0-10.07v10.07h-10.06v-10h10.06" fill="#3ea5a6"/><path d="m80.52 291.89v10.11h-10.06v-10.11zm0-10.06v10.06h-10.06v-10.06zm0-10.07v10.07h-10.06v-10.07zm0-10.07v10.07h-10.06v-10.07z" fill="#3ea5a6"/><path d="m80.52 251.63v10.06h-10.06v-10.06zm0-10.07v10.07h-10.06v-10.07zm0-10.06v10.06h-10.06v-10.06zm0-10.06v10.06h-10.06v-10.06zm0-10.07v10.07h-10.06v-10.07zm0-10.07v10.07h-10.06v-10.07zm0-10.06v10.06h-10.06v-10.06z" fill="#3ea5a6"/><path d="m80.52 181.17v10.07h-10.06v-10.07z" fill="#268ca0"/><path d="m80.52 171.1v10.07h-10.06v-10.07z" fill="#3ea5a6"/><path d="m80.52 161.05v10h-10.06v-10z" fill="#4ebead"/><path d="m80.52 151v10.07h-10.06v-10.07z" fill="#3ea5a6"/><path d="m80.52 140.91v10.09h-10.06v-10.09z" fill="#d6784f"/><path d="m80.52 130.85v10.06h-10.06v-10.06z" fill="#c86749"/><path d="m80.52 120.78v10.07h-10.06v-10.07zm0-10.07v10.07h-10.06v-10.07zm0-10.06v10.06h-10.06v-10.06zm0-10.07v10.07h-10.06v-10.07zm0-10.06v10.06h-10.06v-10.06zm0-10.06v10.06h-10.06v-10.06z" fill="#e08f54"/><path d="m80.52 60.39v10.07h-10.06v-10.07z" fill="#d6784f"/><path d="m80.52 50.32v10.07h-10.06v-10.07z" fill="#c86749"/><path d="m80.52 40.26v10.06h-10.06v-10.06z" fill="#1f1210"/><path d="m80.52 30.19v10.07h-10.06v-10.07z" fill="#281916"/><path d="m80.52 20.12v10.07h-10.06v-10.07z" fill="#2f1e1b"/><path d="m80.52 10.06v10.06h-10.06v-10.06z" fill="#2f1e1b"/><path d="m80.52 0v10.06h-10.06v-10.06z" fill="#2f1e1b"/><path d="m70.46 543.53v10.06h-10.07v-10.06z" fill="#18191a"/><path d="m70.46 533.46v10.07h-10.07v-10.07zm0-10.06v10.06h-10.07v-10.06z" fill="#18191a"/><path d="m70.46 513.33v10.07h-10.07v-10.07z" fill="#18191a"/><path d="m70.46 503.26v10.07h-10.07v-10.07z" fill="#171e2a"/><path d="m70.46 493.2v10.06h-10.07v-10.06zm0-10.07v10.07h-10.07v-10.07z" fill="#1a283a"/><path d="m70.46 473.06v10.07h-10.07v-10.07zm0-10.05v10.05h-10.07v-10.06h10.07m0-10.07v10.07h-10.07v-10.06h10.07m0-10.07v10.07h-10.07v-10.07zm0-10.06v10.06h-10.07v-10.06z" fill="#1a283a"/><path d="m70.46 422.74v10.07h-10.07v-10.07zm0-10.07v10.07h-10.07v-10.07zm0-10.06v10.06h-10.07v-10.06z" fill="#1a283a"/><path d="m70.46 392.54v10.07h-10.07v-10.07zm0-10.06v10.06h-10.07v-10.06zm0-10.06v10.06h-10.07v-10.06zm0-10.07v10.07h-10.07v-10.07z" fill="#1a283a"/><path d="m70.46 352.28v10.07h-10.07v-10.07z" fill="#223652"/><path d="m70.46 342.22v10.06h-10.07v-10.06z" fill="#1a283a"/><path d="m70.46 332.15v10.07h-10.07v-10.07zm0-10.07v10.07h-10.07v-10.07zm0-10.05v10.05h-10.07v-10.08h10.07m0-10.07v10.07h-10.07v-10h10.07" fill="#4ebead"/><path d="m70.46 291.89v10.11h-10.07v-10.11zm0-10.06v10.06h-10.07v-10.06zm0-10.07v10.07h-10.07v-10.07zm0-10.07v10.07h-10.07v-10.07z" fill="#4ebead"/><path d="m70.46 251.63v10.06h-10.07v-10.06zm0-10.07v10.07h-10.07v-10.07zm0-10.06v10.06h-10.07v-10.06zm0-10.06v10.06h-10.07v-10.06zm0-10.07v10.07h-10.07v-10.07zm0-10.07v10.07h-10.07v-10.07zm0-10.06v10.06h-10.07v-10.06z" fill="#4ebead"/><path d="m70.46 181.17v10.07h-10.07v-10.07z" fill="#268ca0"/><path d="m70.46 171.1v10.07h-10.07v-10.07z" fill="#3ea5a6"/><path d="m70.46 161.05v10h-10.07v-10zm0-10.07v10.07h-10.07v-10.05h10.07" fill="#4ebead"/><path d="m70.46 140.91v10.09h-10.07v-10.09z" fill="#3ea5a6"/><path d="m70.46 130.85v10.06h-10.07v-10.06z" fill="#c86749"/><path d="m70.46 120.78v10.07h-10.07v-10.07zm0-10.07v10.07h-10.07v-10.07zm0-10.06v10.06h-10.07v-10.06zm0-10.07v10.07h-10.07v-10.07zm0-10.06v10.06h-10.07v-10.06z" fill="#e08f54"/><path d="m70.46 70.46v10.06h-10.07v-10.06z" fill="#d6784f"/><path d="m70.46 60.39v10.07h-10.07v-10.07z" fill="#c86749"/><path d="m70.46 50.32v10.07h-10.07v-10.07z" fill="#1f1210"/><path d="m70.46 40.26v10.06h-10.07v-10.06zm0-10.07v10.07h-10.07v-10.07z" fill="#281916"/><path d="m70.46 20.12v10.07h-10.07v-10.07z" fill="#2f1e1b"/><path d="m70.46 10.06v10.06h-10.07v-10.06z" fill="#2f1e1b"/><path d="m70.46 0v10.06h-10.07v-10.06z" fill="#2f1e1b"/><path d="m60.39 543.53v10.06h-10.07v-10.06z" fill="#18191a"/><path d="m60.39 533.46v10.07h-10.07v-10.07zm0-10.06v10.06h-10.07v-10.06z" fill="#18191a"/><path d="m60.39 513.33v10.07h-10.07v-10.07z" fill="#18191a"/><path d="m60.39 503.26v10.07h-10.07v-10.07z" fill="#171e2a"/><path d="m60.39 493.2v10.06h-10.07v-10.06z" fill="#1a283a"/><path d="m60.39 483.13v10.07h-10.07v-10.07z" fill="#223652"/><path d="m60.39 473.06v10.07h-10.07v-10.07zm0-10.05v10.05h-10.07v-10.06h10.07m0-10.07v10.07h-10.07v-10.06h10.07m0-10.07v10.07h-10.07v-10.07zm0-10.06v10.06h-10.07v-10.06z" fill="#223652"/><path d="m60.39 422.74v10.07h-10.07v-10.07zm0-10.07v10.07h-10.07v-10.07zm0-10.06v10.06h-10.07v-10.06z" fill="#223652"/><path d="m60.39 392.54v10.07h-10.07v-10.07zm0-10.06v10.06h-10.07v-10.06zm0-10.06v10.06h-10.07v-10.06zm0-10.07v10.07h-10.07v-10.07z" fill="#223652"/><path d="m60.39 352.28v10.07h-10.07v-10.07z" fill="#1a283a"/><path d="m60.39 342.22v10.06h-10.07v-10.06z" fill="#171e2a"/><path d="m60.39 332.15v10.07h-10.07v-10.07zm0-10.07v10.07h-10.07v-10.07z" fill="#73ceab"/><path d="m60.39 312v10.05h-10.07v-10.05z" fill="#5ec8ab"/><path d="m60.39 302v10h-10.07v-10z" fill="#4ebead"/><path d="m60.39 291.89v10.11h-10.07v-10.11z" fill="#3ea5a6"/><path d="m60.39 281.83v10.06h-10.07v-10.06z" fill="#4ebead"/><path d="m60.39 271.76v10.07h-10.07v-10.07z" fill="#5ec8ab"/><path d="m60.39 261.69v10.07h-10.07v-10.07z" fill="#73ceab"/><path d="m60.39 251.63v10.06h-10.07v-10.06zm0-10.07v10.07h-10.07v-10.07zm0-10.06v10.06h-10.07v-10.06zm0-10.06v10.06h-10.07v-10.06zm0-10.07v10.07h-10.07v-10.07zm0-10.07v10.07h-10.07v-10.07z" fill="#73ceab"/><path d="m60.39 191.24v10.06h-10.07v-10.06z" fill="#5ec8ab"/><path d="m60.39 181.17v10.07h-10.07v-10.07z" fill="#4ebead"/><path d="m60.39 171.1v10.07h-10.07v-10.07z" fill="#268ca0"/><path d="m60.39 161.05v10h-10.07v-10z" fill="#3ea5a6"/><path d="m60.39 151v10.07h-10.07v-10.07zm0-10.07v10.07h-10.07v-10.09h10.07m0-10.06v10.06h-10.07v-10.06z" fill="#4ebead"/><path d="m60.39 120.78v10.07h-10.07v-10.07z" fill="#d6784f"/><path d="m60.39 110.71v10.07h-10.07v-10.07zm0-10.06v10.06h-10.07v-10.06zm0-10.07v10.07h-10.07v-10.07zm0-10.06v10.06h-10.07v-10.06z" fill="#e08f54"/><path d="m60.39 70.46v10.06h-10.07v-10.06z" fill="#d6784f"/><path d="m60.39 60.39v10.07h-10.07v-10.07z" fill="#c86749"/><path d="m60.39 50.32v10.07h-10.07v-10.07z" fill="#1f1210"/><path d="m60.39 40.26v10.06h-10.07v-10.06z" fill="#281916"/><path d="m60.39 30.19v10.07h-10.07v-10.07zm0-10.07v10.07h-10.07v-10.07z" fill="#2f1e1b"/><path d="m60.39 10.06v10.06h-10.07v-10.06z" fill="#2f1e1b"/><path d="m60.39 0v10.06h-10.07v-10.06z" fill="#281916"/><path d="m50.32 543.53v10.06h-10v-10.06z" fill="#18191a"/><path d="m50.32 533.46v10.07h-10v-10.07zm0-10.06v10.06h-10v-10.06z" fill="#18191a"/><path d="m50.32 503.26v10.07h-10v-10.07z" fill="#171e2a"/><path d="m50.32 493.2v10.06h-10v-10.06z" fill="#1a283a"/><path d="m50.32 483.13v10.07h-10v-10.07z" fill="#223652"/><path d="m50.32 473.06v10.07h-10v-10.07zm0-10.05v10.05h-10v-10.06h10m0-10.07v10.07h-10v-10.06h10m0-10.07v10.07h-10v-10.07zm0-10.06v10.06h-10v-10.06z" fill="#223652"/><path d="m50.32 422.74v10.07h-10v-10.07zm0-10.07v10.07h-10v-10.07zm0-10.06v10.06h-10v-10.06z" fill="#223652"/><path d="m50.32 392.54v10.07h-10v-10.07zm0-10.06v10.06h-10v-10.06zm0-10.06v10.06h-10v-10.06z" fill="#223652"/><path d="m50.32 362.35v10.07h-10v-10.07z" fill="#1a283a"/><path d="m50.32 352.28v10.07h-10v-10.07zm0-10.06v10.06h-10v-10.06z" fill="#171e2a"/><path d="m50.32 332.15v10.07h-10v-10.07zm0-10.07v10.07h-10v-10.07zm0-10.05v10.05h-10v-10.08h10m0-10.07v10.07h-10v-10h10" fill="#4ebead"/><path d="m50.32 291.89v10.11h-10v-10.11z" fill="#3ea5a6"/><path d="m50.32 281.83v10.06h-10v-10.06z" fill="#4ebead"/><path d="m50.32 271.76v10.07h-10v-10.07z" fill="#5ec8ab"/><path d="m50.32 261.69v10.07h-10v-10.07z" fill="#73ceab"/><path d="m50.32 251.63v10.06h-10v-10.06zm0-10.07v10.07h-10v-10.07zm0-10.06v10.06h-10v-10.06zm0-10.06v10.06h-10v-10.06zm0-10.07v10.07h-10v-10.07zm0-10.07v10.07h-10v-10.07zm0-10.06v10.06h-10v-10.06z" fill="#73ceab"/><path d="m50.32 181.17v10.07h-10v-10.07z" fill="#5ec8ab"/><path d="m50.32 171.1v10.07h-10v-10.07z" fill="#4ebead"/><path d="m50.32 161.05v10h-10v-10z" fill="#268ca0"/><path d="m50.32 151v10.07h-10v-10.07z" fill="#3ea5a6"/><path d="m50.32 140.91v10.09h-10v-10.09z" fill="#4ebead"/><path d="m50.32 130.85v10.06h-10v-10.06z" fill="#3ea5a6"/><path d="m50.32 110.71v10.07h-10v-10.07z" fill="#2f1e1b"/><path d="m50.32 100.65v10.06h-10v-10.06zm0-10.07v10.07h-10v-10.07zm0-10.06v10.06h-10v-10.06z" fill="#e08f54"/><path d="m50.32 70.46v10.06h-10v-10.06z" fill="#c86749"/><path d="m50.32 60.39v10.07h-10v-10.07z" fill="#1f1210"/><path d="m50.32 50.32v10.07h-10v-10.07z" fill="#1f1210"/><path d="m50.32 40.26v10.06h-10v-10.06z" fill="#281916"/><path d="m50.32 30.19v10.07h-10v-10.07zm0-10.07v10.07h-10v-10.07z" fill="#2f1e1b"/><path d="m50.32 10.06v10.06h-10v-10.06z" fill="#281916"/><path d="m40.27 543.53v10.06h-10.07v-10.06z" fill="#18191a"/><path d="m40.27 533.46v10.07h-10.07v-10.07z" fill="#18191a"/><path d="m40.27 332.15v10.07h-10.07v-10.07zm0-10.07v10.07h-10.07v-10.07zm0-10.05v10.05h-10.07v-10.08h10.07m0-10.07v10.07h-10.07v-10h10.07" fill="#3ea5a6"/><path d="m40.27 291.89v10.11h-10.07v-10.11zm0-10.06v10.06h-10.07v-10.06z" fill="#3ea5a6"/><path d="m40.27 271.76v10.07h-10.07v-10.07zm0-10.07v10.07h-10.07v-10.07z" fill="#4ebead"/><path d="m40.27 251.63v10.06h-10.07v-10.06zm0-10.07v10.07h-10.07v-10.07zm0-10.06v10.06h-10.07v-10.06zm0-10.06v10.06h-10.07v-10.06zm0-10.07v10.07h-10.07v-10.07z" fill="#4ebead"/><path d="m40.27 201.3v10.07h-10.07v-10.07z" fill="#73ceab"/><path d="m40.27 191.24v10.06h-10.07v-10.06zm0-10.07v10.07h-10.07v-10.07z" fill="#73ceab"/><path d="m40.27 171.1v10.07h-10.07v-10.07z" fill="#5ec8ab"/><path d="m40.27 161.05v10h-10.07v-10z" fill="#268ca0"/><path d="m40.27 151v10.07h-10.07v-10.07z" fill="#3ea5a6"/><path d="m40.27 140.91v10.09h-10.07v-10.09z" fill="#4ebead"/><path d="m40.27 100.65v10.06h-10.07v-10.06z" fill="#281916"/><path d="m40.27 90.58v10.07h-10.07v-10.07z" fill="#1f1210"/><path d="m40.27 80.52v10.06h-10.07v-10.06z" fill="#d6784f"/><path d="m40.27 70.46v10.06h-10.07v-10.06z" fill="#c86749"/><path d="m40.27 60.39v10.07h-10.07v-10.07z" fill="#1f1210"/><path d="m40.27 50.32v10.07h-10.07v-10.07z" fill="#281916"/><path d="m40.27 40.26v10.06h-10.07v-10.06zm0-10.07v10.07h-10.07v-10.07z" fill="#2f1e1b"/><path d="m40.27 20.12v10.07h-10.07v-10.07z" fill="#281916"/><path d="m30.2 543.53v10.06h-10.07v-10.06z" fill="#18191a"/><path d="m30.2 533.46v10.07h-10.07v-10.07z" fill="#18191a"/><path d="m30.2 352.28v10.07h-10.07v-10.07z" fill="#e08f54"/><path d="m30.2 342.22v10.06h-10.07v-10.06z" fill="#d6784f"/><path d="m30.2 332.15v10.07h-10.07v-10.07z" fill="#c86749"/><path d="m30.2 322.08v10.07h-10.07v-10.07z" fill="#4ebead"/><path d="m30.2 312v10.05h-10.07v-10.05z" fill="#73ceab"/><path d="m30.2 302v10h-10.07v-10z" fill="#5ec8ab"/><path d="m30.2 291.89v10.11h-10.07v-10.11z" fill="#4ebead"/><path d="m30.2 281.83v10.06h-10.07v-10.06zm0-10.07v10.07h-10.07v-10.07zm0-10.07v10.07h-10.07v-10.07z" fill="#3ea5a6"/><path d="m30.2 251.63v10.06h-10.07v-10.06zm0-10.07v10.07h-10.07v-10.07zm0-10.06v10.06h-10.07v-10.06zm0-10.06v10.06h-10.07v-10.06zm0-10.07v10.07h-10.07v-10.07z" fill="#3ea5a6"/><path d="m30.2 201.3v10.07h-10.07v-10.07z" fill="#4ebead"/><path d="m30.2 191.24v10.06h-10.07v-10.06zm0-10.07v10.07h-10.07v-10.07zm0-10.07v10.07h-10.07v-10.07z" fill="#73ceab"/><path d="m30.2 161.05v10h-10.07v-10z" fill="#5ec8ab"/><path d="m30.2 151v10.07h-10.07v-10.07z" fill="#4ebead"/><path d="m30.2 80.52v10.06h-10.07v-10.06z" fill="#d6784f"/><path d="m30.2 70.46v10.06h-10.07v-10.06z" fill="#e08f54"/><path d="m30.2 60.39v10.07h-10.07v-10.07z" fill="#281916"/><path d="m30.2 50.32v10.07h-10.07v-10.07zm0-10.06v10.06h-10.07v-10.06z" fill="#2f1e1b"/><path d="m20.13 342.22v10.06h-10.06v-10.06z" fill="#d6784f"/><path d="m20.13 332.15v10.07h-10.06v-10.07z" fill="#c86749"/><path d="m20.13 322.08v10.07h-10.06v-10.07zm0-10.05v10.05h-10.06v-10.08h10.06" fill="#3ea5a6"/><path d="m20.13 302v10h-10.06v-10z" fill="#4ebead"/><path d="m20.13 291.89v10.11h-10.06v-10.11zm0-10.06v10.06h-10.06v-10.06zm0-10.07v10.07h-10.06v-10.07zm0-10.07v10.07h-10.06v-10.07z" fill="#5ec8ab"/><path d="m20.13 251.63v10.06h-10.06v-10.06zm0-10.07v10.07h-10.06v-10.07zm0-10.06v10.06h-10.06v-10.06zm0-10.06v10.06h-10.06v-10.06zm0-10.07v10.07h-10.06v-10.07zm0-10.07v10.07h-10.06v-10.07z" fill="#5ec8ab"/><path d="m20.13 191.24v10.06h-10.06v-10.06zm0-10.07v10.07h-10.06v-10.07z" fill="#73ceab"/><path d="m20.13 171.1v10.07h-10.06v-10.07z" fill="#5ec8ab"/><path d="m20.13 161.05v10h-10.06v-10z" fill="#4ebead"/><path d="m10.07 302v10h-10.07v-10z" fill="#3ea5a6"/><path d="m10.07 291.89v10.11h-10.07v-10.11z" fill="#4ebead"/><path d="m10.07 281.83v10.06h-10.07v-10.06z" fill="#5ec8ab"/><path d="m10.07 271.76v10.07h-10.07v-10.07zm0-10.07v10.07h-10.07v-10.07z" fill="#73ceab"/><path d="m10.07 251.63v10.06h-10.07v-10.06zm0-10.07v10.07h-10.07v-10.07zm0-10.06v10.06h-10.07v-10.06zm0-10.06v10.06h-10.07v-10.06zm0-10.07v10.07h-10.07v-10.07zm0-10.07v10.07h-10.07v-10.07z" fill="#73ceab"/><path d="m10.07 191.24v10.06h-10.07v-10.06z" fill="#5ec8ab"/><path d="m10.07 181.17v10.07h-10.07v-10.07z" fill="#4ebead"/></svg>