<svg xmlns="http://www.w3.org/2000/svg" viewBox="0 0 1920 1080" xmlns:v="https://vecta.io/nano"><style><![CDATA[.a{fill:#b3b3b3}.b{opacity:.5}.c{opacity:.4}.d{fill:#666}.e{fill:gray}.f{fill:#ccc}.g{fill:#999}]]></style><path d="M0 0h1920v1080H0z" class="d"/><path d="M345.71 345.79V324.4h-3.51v-2.18H304v2.18h-3.5v33.4h-3.6v3.82h-7.2v3.82h-6v3.81h-7.52v-3.82H272v-3.82h-5.4v-3.81h-3.45v19.69h2.95v3.81h4.2v3.82h3.6v4.36h4.83v3.72h5.07v8.7h8.46v-2.81h-5.36v-2.44h6.1v-3.82h3.92v3.82h2.48v5.25h8.46v-2.81h-5.36V389h5.18v-3.8h4.52v-7.88h3.6v-7.78h5.57v3.65h3.72v-8h-9.29v-9.86h18.58v-4.31h-14.47v-5.26zm-32.79-13.88h-4.5v-4.09h4.5z" class="a c"/><g class="c"><g class="a"><path d="M408.15 75.84h5.19V81h10.4v15.65h-5.15v5.21h-10.44v10.42H403V96.65h5.15 4.62c.45 0 .61-.15.6-.6v-2.86c0-1.75 0-1.75 1.71-1.75h2.87c.48 0 .64-.15.63-.64v-3.77c0-.69-.23-.83-.86-.82h-9.56V75.83zm-26.02 31.25v-5.18H377v-5.23h-5.21V75.84h5.17v15.65h5.24v5.2h5.13v10.39h-5.15zm20.81 26.03v5.2h-5.18v5.17h-31.25v-5.17h26v-5.2h10.39zm-52.05-10.42h-5.18v-26h10.37v5.18h-5.21v20.84z"/><path d="M366.51 138.32H356.1v-5.19h-5.21V122.7h5.23v5.23h5.19v5.19h5.18v5.2zm15.62-67.68v-5.17h20.81v5.17h0-20.82zm26.02 41.66h5.17v15.61h-5.16V112.3zm-41.66-5.21h15.63v5.16h-15.61v-5.16z"/><path d="M356.08 101.88h10.41v5.21h-10.4v-5.21zm20.84-26.04v-5.2h5.21v5.19h-5.2zm26.02-5.2h5.21v5.2H403v-5.22zm5.21 57.27v5.21H403v-5.21h5.19z"/></g><path d="M408.16 127.92H403v5.21h-10.45v5.2h-26.06v-5.2h-5.18v-5.19h-5.19v-5.23h-5.25v-20.84h5.22v5.21h10.42v5.16h15.61v-5.16h5.16V96.69h-5.13v-5.2h-5.24V75.83h5.21v-5.21H403v5.21h5.21v10.4 10.42H403v15.63h5.16zm-15.63-5.22h5.16v-5.2h-5.16v-5.16h-5.15v5.15h5.16v5.22h-5.21v5.21H371.7v-5.21h-5.2v-5.16h-5.16v5.15h5.17v5.21h5.2v5.16h15.61v-5.16h5.21zm10.36-36.48V81.1h-5.1v5.12z" class="d"/><path d="M408.15 96.65V86.23h9.56c.63 0 .89.13.86.82v3.77c0 .49-.15.65-.63.64h-2.87c-1.71 0-1.71 0-1.71 1.75v2.86c0 .45-.15.61-.6.6l-4.61-.02z" class="e"/><g class="a"><path d="M371.7 127.92h15.62v5.16h-15.61v-5.16zm31.19-41.7h-5.1V81.1h5.1zm-10.35 31.27h-5.16v-5.15h5.15v5.16zm-26.03 5.21h-5.17v-5.15h5.16v5.16z"/><path d="M392.53 117.5h5.16v5.2h-5.15v-5.22zm0 5.2v5.21h-5.2v-5.21h5.2zm-20.82 5.21h-5.2v-5.21h5.19v5.21z"/></g><g class="a"><path d="M1488.32 100h0 0 0zm72.26-25.2v-8.28h-8v8.3H1449c-.28 0-.56 0-.83-.06a3.83 3.83 0 0 0-.07.58q0 7.77 0 15.54a3.8 3.8 0 0 0 .05.7h8v8.36h8v8.27h24.14V100c-1.28 0-2.56-.07-3.84-.08h-4.17v-8.35h8v-8.32h7.94v8.32h8.1v-8.33h8v8.34h8v8.36h8v8.24h24V100l-7-.06h-1v-8.37h7.92V84.3v-1h8v8.32h8V74.8z"/><path d="M1447.17 66.46h-6.29a7.67 7.67 0 0 1-.8-.11v8.48h5.84l2.21-.08v-8.29z"/><path d="M1448.13 74.74h0 0 0zm-8.07-8.4h0 0zM1552.51 100h8.07v-8.41h-8.07z"/><path d="M1552.51 91.6h0 0 0zm-.01 8.4h0zm8.08-8.41h0 0 0zm-120.52-25.24h0 0z"/><path d="M1432 58.2v8.2a2.81 2.81 0 0 0 .42.07h7.06a2.35 2.35 0 0 0 .57-.13V58.2zm56.35 41.8h7.89v-8.41h-7.89z"/><path d="M1496.24 91.59h0 0 0zm-7.89 0h0 0 0zm64.13-33.41h-7.91v8.25h7.91z"/><path d="M1849.63 570.89v-13.11h-4.35v-4.36h-4.37v-4.37h-8.74v-4.33h-17.48v4.35H1806v4.39h-4.32v4.36h8.69v4.33h4.34v13.11h-4.3v4.36h-8.74v-4.34h-4.39v-4.4h-4.33v34.93h4.34v-4.35h4.37v-4.3h4.34v4.32h3.74c.48 0 .64.11.63.62v3.73h8.73v-8.66h8.75v8.65h8.75v-4.34h4.4v-4.31h4.34v4.34h4.37v4.32h4.29v-34.94zm-8.74 4.36h-4.32v4.36h-8.76v-4.33h-4.34v-4.37h8.67v-8.74h-4.3v-4.34h8.71v4.34h4.34zm-39.26-17.41h0 0 0 0zm4.31 13.05v-8.71h-4.33v-4.34h-4.37v13h7.32zm-8.7-.03h0 0 0z"/></g><path d="M157.5 196.44l-.07.08a2.65 2.65 0 0 0-.48-.07h-3.49a2.41 2.41 0 0 0-.4.07v4.37h0a3.25 3.25 0 0 0-.08.43v16.84a1.46 1.46 0 0 0 .06.48h4.38v3.8c0 .18.05.37.07.55h-.26-17.09-.41v-4.33h-4.4a1 1 0 0 1 .34-.1h4.15.71H148h.55a2.23 2.23 0 0 0 0-.36v-16.89a3.89 3.89 0 0 0 0-.44h-4.38v-4.41h-4.43v-4.42h-4.43v-4.4h-4.39v-31h35.35v31h-4.43v4.44.07a.79.79 0 0 0-.22-.06h-4.19a42.09 42.09 0 0 0 .07 4.35zm-13.28-26.52v4.43h4.4v13.24H153v-22h-4.39v4.36zm-8.87-8.79v22h4.35v-22z" class="g"/><g class="a"><path d="M166.29 187.64h0 0 0zm20.53-26.55h-11.63a1 1 0 0 1 0-.18q0-4.34 0-8.67h-48.68v.48 8.38h-13.28v17.7h4.41v4.42h8.86v8.85h4.41v4.42h4.42v4.4h8.86v-4.41h-4.43v-4.42h-4.43v-4.4h-4.39v-31h39.76v31h-4.41V192l-.51.05h-3.4a4.36 4.36 0 0 0-.52.05v.07 4.29h-4.36l-.07.08v4 .37h8.81v-4.45h4.43V192h4.42v-8.8H184v-4.43h4.4V161.1zm-60.36 17.66h-4.39v-4.39h-4.4v-8.81h8.79zm57.5-4.4h-4.39v4.4h-4.39v-13.2H184zm-20.71 44.23h-1.39-.63l.6.09V223h-4.34-.26-17.09-.41v-4.33h-4.4v8.75h30.94v-8.81zm-10.19-17.7h0 0 0z"/><path d="M157.43 214.19v-13.31h-4.37v.9V218v.53a1.48 1.48 0 0 0 .24.05h8.55v-4.35zm-9.43 4.38h.55V201h-4.36v.41 12.8h-.53-3.83v4.36h.71z"/></g><path d="M161.85 214.19h-4.42v-13.31h-4.37v-4.37a2.41 2.41 0 0 1 .4-.07H157a2.65 2.65 0 0 1 .48.07v4 .37 13.18a4.57 4.57 0 0 0 .5 0h3.41a3.11 3.11 0 0 1 .46.13z" class="e"/><g class="a"><path d="M148.55 218.54V201h-4.36v-.08h4.39a3.89 3.89 0 0 1 0 .44v16.87a2.23 2.23 0 0 1-.03.31zm-8.73-4.35v4.36h-.09v-4a2.5 2.5 0 0 1 .09-.36z"/></g><g class="e"><path d="M166.29,187.64v-31h4.41v31Z"/><path d="M161.86 192.08v-4.44h4.43V192l-.51.05h-3.4a4.36 4.36 0 0 0-.52.03zm-4.36 4.36a42.09 42.09 0 0 1-.06-4.35h4.19a.79.79 0 0 1 .22.06v4.29z"/></g><path d="M144.22,169.92h4.39v-4.36H153v22h-4.38V174.35h-4.4Z" class="d"/><path d="M135.35,161.13h4.35v22h-4.35Z" class="f"/><path d="M153.06 200.88v.9V218v.53a1.48 1.48 0 0 0 .24.05h7.92l.6.09V223h-4.34c0-.18-.06-.37-.07-.55v-3.8H153c0-.19-.06-.34-.06-.48v-16.86a3.25 3.25 0 0 1 .12-.43z" class="a"/><path d="M110.85,484.92V485H93.6v-.08Z" fill="#fefefe"/><path d="M110.92 523.91a2.31 2.31 0 0 1-.43.08h-3.83v.47 3.39a2.14 2.14 0 0 1-.07.43V524H98v4.26a3.49 3.49 0 0 1-.07-.43v-3.39-.44h-.43H94a2 2 0 0 1-.43-.08h4.33v-4.29h-4.3V511H98v-4.33h8.59v-4.32h.07v4.28h4.23l.06.09h-4.28V511h4.29v8.67h-4.26v4.29z" class="f"/><path d="M111 489.35l-.1-.06a3.21 3.21 0 0 0-.43-.07q-8.16 0-16.31 0a3.35 3.35 0 0 0-.44.07l-.07.07V485h17.25a1.78 1.78 0 0 1 .07.39v3.59a1.26 1.26 0 0 0 .1.38z" class="a"/><path d="M76.27,493.65v-4.31H85v4.31Z" class="f"/><path d="M124,502.33h4.26v4.28H124Z" class="d"/><path d="M89.32 511v8.65a2.79 2.79 0 0 1-.07-.4v-7.85a2 2 0 0 1 .07-.4z" fill="#9a9a9a"/><path d="M89.29 493.56v-4.22h4.25a2.72 2.72 0 0 1-.47.08h-3.19a4.47 4.47 0 0 0-.47 0v.49 3.53a.36.36 0 0 1 0 .1z" class="a"/><path d="M110.85 506.59h-4.23v-4.28a3.65 3.65 0 0 1 .07.46v3.25.47a4.09 4.09 0 0 0 .46 0h3.22z" fill="#404040"/><g class="a"><path d="M93.67 489.29a3.35 3.35 0 0 1 .44-.07q8.15 0 16.31 0a3.21 3.21 0 0 1 .43.07h-.34H94zm-.07 30.34h0 0 0zm17.32 0h.01 0-.01zm.01-8.67h0-.01.01z"/><path d="M132.61 536.94v-4.3h4.3v-34.08-.48a1.75 1.75 0 0 0-.38-.09h-3.95v-4.34h-17.3v-4.24c-.07-.05-.08-.07-.1-.07H111v3.8.48H93.6v-4.28h-.06a2.72 2.72 0 0 1-.47.08h-3.19a4.47 4.47 0 0 0-.47 0v.49 3.53a.36.36 0 0 1 0 .1h-.06a1.21 1.21 0 0 1-.31.09H72V498h-.43H68h-.41v34.64h4.29v.29 3.8a.65.65 0 0 1 0 .2zM124 502.33h4.26v4.28H124zm-34.71 9a2 2 0 0 1 .08-.4h4.23v-4.29h4.34v-4.35h8.68a3.65 3.65 0 0 1 .07.46V506v.47a4.09 4.09 0 0 0 .46 0h3.22l.44.06.06.09v4.28h4.3v8.67h-4.3v4.28a2.31 2.31 0 0 1-.43.08h-3.83v.47 3.39a2.14 2.14 0 0 1-.07.43H98a3.49 3.49 0 0 1-.07-.43v-3.39-.44h-.43H94a2 2 0 0 1-.43-.08v-4.28h-4.26a2.79 2.79 0 0 1-.07-.4zm4.31-.37h0 0 0z"/></g><g class="a"><path d="M1775.91 313.3l-.7 4.36h-165.85v4.8l-4.89.33-.25 4.6-4.67.27-.21 4.71h-9.54l-.24 4.78h-19.22v-4.56l4.63-.24.24-4.64 4.58-.28v-9.58H1541l-.62-4.51h0a12.25 12.25 0 0 1 2.15-.37q22.71 0 45.42 0c.47 0 1 .07 1.55.12v9.4l-4.53.27v4.69h9.48l.21-4.63 4.68-.25.24-4.63 4.72-.22v-4.62l2.84-.13q83 0 165.88 0a21.88 21.88 0 0 1 2.9.36zm-235.26-53.97l.22-4.85h234.44v4.66H1543.8l-3.21.12zm239.27 5.11l5.08-.52v43.94h-4.61v-2.62q0-19 0-38a19.7 19.7 0 0 0-.41-2.83zm-244.45 43.93l-4.23-.57v-43.56h4.44v-.05l.21 2.43q0 19.58 0 39.15a18.52 18.52 0 0 1-.38 2.63z"/><path d="M1535.68 264.24l.39-4.92h4.59l-.07-.06v4.56l-5 .36zm-.23 44.16l5.4-.44-.45 5.39h0l-4.24-.67-.7-4.3zm240.49 4.94l-.53-5.12h4.79v4.42l-4.3.66zm4.06-48.93l-4.31-.67v-4.35h4.81l-.53 5.05zm-211.79 29.69v-2.36h-2.36v-2.36h-2.36v-7.09h2.36v-2.36h2.36v-2.37h9.46v2.37h2.33v2.36h-4.73v-2.36h-4.72v2.36h-2.37v7.09h2.37v2.36h4.72v-2.36h4.73v2.36h-2.36v2.36zm16.54 0v-2.36h-2.36v-11.81h2.36v-2.37h11.82v2.37h2.36v11.81h-2.36v2.36zm2.37-2.36h7.08v-11.81h-7.08zm14.17 2.36v-16.54h11.82v2.37h2.36v2.36h2.36v7.09h-2.36v2.36h-2.36v2.36zm4.73-2.36h4.72v-2.36h2.37v-7.09h-2.37v-2.36H1606zm14.17 2.36v-16.54h16.54v2.37h-11.81v4.72h9.45V287h-9.45v4.73h11.81v2.36zm28.36-9.45v-2.36h16.54v2.36zm0 4.73V287h16.54v2.37zm30.71 4.72v-16.54h4.74v14.18h9.45v2.36zm18.91 0v-2.36h-2.37v-11.81h2.37v-2.37H1710v2.37h2.36v11.81H1710v2.36zm2.36-2.36h7.09v-11.81h-7.09zm21.26 2.36v-2.36h-2.36v-2.36h-2.36V287h-2.36v-9.45h4.72v7.09h2.36V287h2.37v-2.36h2.36v-7.09h4.72V287h-2.36v2.37h-2.36v2.36h-2.36v2.36zm11.82 0v-16.54h16.54v2.37h-11.82v4.72h9.45V287h-9.45v4.73h11.82v2.36z"/><path d="M1807.68 172.6h-43v-58.22h43v15.77.61a3.46 3.46 0 0 0 .53.09h3.12v3.72h-3.73v3.77h-3.79v-20.16h-35.38v50.59h35.38v-11.29a1.88 1.88 0 0 0-.45-.12h-3.29v-3.77h3.93v-3.76h3.75v3.8V172l-.07.6z"/></g><path d="M1822.92,130.85v7.51h-3.8q0-3.75,0-7.5v0Z" class="d"/><path d="M1822.92 130.85h-3.77v-.14h3.75z" fill="#969696"/><path d="M1803.91 157.48v11.29h-35.38v-50.59h35.38v20.18h0-3.22a2.94 2.94 0 0 0-.58.1 5 5 0 0 0-.06.54v3.09h-3.16a2.9 2.9 0 0 0-.57.12V146h0-3.73a2.93 2.93 0 0 0-.13.57v3.16h-.73l-2.92.07a3.26 3.26 0 0 0-.09.53v3.27h-3.64l-.09.09v7.51h-11.36v3.8h22.71v-3.79h3.75a2.19 2.19 0 0 0 .12-.49v-3.24zm-30.32-34.24V127h25.24v-3.75zm25.26 12.61v-3.72h-25.27v3.72z" class="f"/><path d="M1807.7 149.83h-3.7v3.76h-3.78v3.77h0l-3.86.07h-3.79v-3.93-3.65h3.75V146h3.88v-3.76h0 3.65l.09-.09v-3.64-.12h3.78v-3.77h7.63v3.9 3.62l-.11.09h-3.65V146a.09.09 0 0 0 0 .06h0l-.1-.05h-3.68v3.71a.08.08 0 0 0 0 .1h0a.06.06 0 0 0-.11.01z" class="e"/><path d="M1815.29 142.11v-3.62h3.72 0v3.63h-1.85l-1.66.08h-.1-.13 0z" class="d"/><path d="M1819 142.11v-3.63h.13v3.24a2.19 2.19 0 0 1-.12.49.28.28 0 0 0-.01-.1z" class="a"/><path d="M1819 130.81h.1v7.5h0 0-3.72v-3.77h-3.79v-3.74h0 .62z" fill="#e6e6e6"/><path d="M1796.3 161.22V165h-22.71v-3.79H1785v-7.51l.09-.09h3.64 0v.61 6.37.65h7.57z" class="d"/><g class="a"><path d="M1773.59 123.24h25.24V127h-25.24zm25.26 12.61h-25.27v-3.72h25.27z"/></g><path d="M1785,153.62l-.09.09Z" fill="#1f1202"/><path d="M1784.93,165h0Z" fill="#c6c0b7"/><path d="M1796.33 157.58v3.65h-7.58v-.65-6.37-.61h.12 3.64a.14.14 0 0 0 .09 0v3.81h3.79z" fill="#e6e6e6"/><g class="d"><path d="M1792.54 149.85v-.13-3.62h3.73v3.76zm22.74-3.85h-3.2a5.35 5.35 0 0 0-.55 0v-3.8h3.65.12 0zm-15.23-3.79h.13V146h-3.76v-3.73z"/><path d="M1792.44 153.58h-3.64v-3.73h3.75v3.65zm7.72-11.35v-3.76h3.72v3.64l-.09.09zm11.29 3.77v3.68h-3.65V146zm-15.12 11.58v-.16l3.86-.07-.09.11v3.64h-3.61v-3a3.35 3.35 0 0 0-.16-.52z"/></g><path d="M1815.3 142.23h-.12l.11-.09z" fill="#e68a0f"/><g fill="#1f1202"><path d="M1792.44 153.58l.09-.09v.12a.14.14 0 0 1-.09-.03zm11.37-11.38l.09-.09z"/></g><path d="M1819 130.81h-6.88-.62v-.13-3.62h7.5z" class="d"/></g><g opacity=".8"><path d="M1670.76 490.58h-4.63v-.54-45.81-.44h4.63z" class="b e"/><g class="a"><path d="M1670.76 443.79h-4.63a6.23 6.23 0 0 0-.09.74v45 .44c0 .39-.14.53-.52.52h-3-75a7.35 7.35 0 0 1-.79-.09H1665a3.38 3.38 0 0 0 .45 0 .49.49 0 0 0 .49-.52v-45.24-.4c0-.33-.13-.45-.45-.45H1662c-.37 0-.51.15-.48.5v.45 40.39a6.43 6.43 0 0 1-.08.74v-41.5c0-.66 0-.67-.66-.67h-8.68v-.11V439h5 8.32c.74 0 .74 0 .74.72v3.38c0 .6 0 .6.63.61h4z" class="b"/><path d="M1661.42 485.87a6.43 6.43 0 0 0 .08-.74v-40.39-.45c0-.35.11-.51.48-.5h3.52c.32 0 .47.12.45.45v.4 45.23a.49.49 0 0 1-.49.52 3.38 3.38 0 0 1-.45 0h-78.35c0-.27-.08-.55-.08-.83v-44.9a2.08 2.08 0 0 0 0-.35c0-.38.13-.53.52-.52h3.42c.58 0 .6 0 .6.61v.44q0 20.15 0 40.29a6.43 6.43 0 0 0 .08.74h32c.72 0 .72 0 .72-.75v-40.45-.49c0-.16.12-.4.4-.4h3.91c.29 0 .41.13.4.41v.49 40.38.31c0 .38.12.52.51.52z" class="b"/></g><g class="e"><path d="M1666.13 490.58v4.05c0 .65 0 .65-.64.65H1634c-.63 0-.63 0-.63.64v4h-14v-.54-3.64c0-.33-.09-.47-.43-.44a2.67 2.67 0 0 1-.4 0h-31.31c-.64 0-.64 0-.64-.65v-4.05h0 .09.67 78.89zm-79.64 0h-4.18c-.44 0-.54-.14-.54-.55v-22.36q0-11.94 0-23.87h4.52a7.77 7.77 0 0 1 .08.83q0 22.47 0 44.93c0 .25 0 .5.07.74v.29z" class="b"/></g><path d="M1623.94 439.08v4.53h-36.73c-.61 0-.63 0-.63-.62v-3.25c0-.66 0-.66.67-.66z" class="a b"/><path d="M1652.07 471.81h-4.71v-25.25h0c0-.2.07-.41.07-.61v-3.88c0-.36.1-.52.45-.51h4.17v5 25.25z" class="b d"/><g class="a"><path d="M1647.34 443.71h-18.15c-.53 0-.56-.06-.55-.59v-3.47c0-.53.07-.65.57-.65H1647h.4v4.59zm.01 4.7v4.72h-13.16c-.89 0-.89 0-.89-.91v-3.16c0-.62 0-.64.66-.64zm0 9.35v4.72h-13.43c-.61 0-.62 0-.62-.62v-3.51c0-.56.07-.6.63-.55h.71H1646c.47.03.91-.02 1.35-.04zm0 9.42v4.63h-1.28H1634c-.69.05-.69.05-.69-.65v-2.4-1.11c0-.37.11-.52.48-.5s.77 0 1.16 0z" class="b"/></g><path d="M1647.37 446.15q0-3.57 0-7.14h4.67v7.14a1.73 1.73 0 0 1-.42.14h-3.85a2.3 2.3 0 0 1-.4-.14z" class="b d"/><g class="a"><path d="M1652.08 453.13v-4.72h4.09c.42 0 .57.14.56.56v3.64c0 .38-.13.53-.52.52zm0 9.35v-4.72h4.26c.27 0 .38.1.38.36v3.95c0 .37-.23.39-.5.39zm-.01 9.33v-4.63h2.66 1.55c.3 0 .42.12.42.42v3.77c0 .36-.16.46-.48.46h-2.93zm-28.13-32.73h-36.69c-.67 0-.67 0-.67.66v3.25c0 .6 0 .62.63.62h36.73a4.69 4.69 0 0 1-.64.09H1592c-.79 0-.79 0-.79.76v41.4a6.43 6.43 0 0 1-.08-.74q0-20.14 0-40.29v-.44c0-.58 0-.61-.6-.61h-3.42c-.39 0-.55.14-.52.52a2.08 2.08 0 0 1 0 .35v44.91c0 .28.06.56.08.83h0l-.09.16h-.09v-.29-.48q0-17.94 0-35.88v-10.14-.1-4.23c0-.36.13-.51.5-.49s.68 0 1 0h35.22a6.06 6.06 0 0 1 .73.14z" class="b"/></g><path d="M1586.49,443.7v.1h-4.69a2.59,2.59,0,0,1,.54-.11Z" class="b e"/><path d="M1586.57 490.56l.09-.16a7.35 7.35 0 0 0 .79.09h75 3c.38 0 .56-.13.52-.52v-.44-45a6.23 6.23 0 0 1 .09-.74v.44 45.82.54h-78.89z" fill="#b5b5b5" class="b"/><g class="a"><path d="M1607.62 448.42h11c.64 0 .66 0 .66.64v3.47c0 .55 0 .6-.57.6h-22.37c-.41 0-.55-.13-.54-.53v-3.61c0-.55 0-.57.58-.57zm-.09 32.81h-11.07c-.62 0-.62 0-.63-.62v-3.55c0-.41.13-.54.54-.54h22.41c.41 0 .54.13.54.54v3.51c0 .6-.07.66-.66.66zm.05-18.75h-11.12c-.62 0-.62 0-.63-.62v-3.51c0-.4.07-.63.55-.53a3.18 3.18 0 0 0 .62 0h20.94a4.68 4.68 0 0 0 .84 0c.39-.06.52.12.52.46v1.87 1.87c0 .36-.13.49-.5.49h-11.24zm.01 4.7h11c.63 0 .69.05.7.68v3.24c0 .71 0 .73-.71.73h-18.81q-1.71 0-3.42.06c-.42 0-.55-.15-.54-.55v-3.51c0-.65 0-.65.64-.65zm37.41 14.05h-11c-.73 0-.73 0-.73-.75v-3.33c0-.62 0-.62.62-.62h21.62.75c.25 0 .42.13.42.43v4c0 .11-.15.25-.26.31a1.07 1.07 0 0 1-.4 0z" class="b"/></g><path d="M1586.31 443.8h.17v10.14q0 17.94 0 35.88v.48c0-.24-.07-.49-.07-.74q0-22.47 0-44.93a7.77 7.77 0 0 0-.1-.83z" fill="#555" class="b"/></g><g class="c"><g class="a"><path d="M314.37 677.48a2.3 2.3 0 0 1-1.07-2.2q0-23.09 0-46.17c0-1.76.47-2.22 2.24-2.22h27.18c1.74 0 2.23.49 2.23 2.25v7.21h7.18c1.81 0 2.3.49 2.3 2.3v27.08c0 1.79-.5 2.28-2.33 2.28H345v5.66 1.78a2.35 2.35 0 0 1-1 2zm27.32-37.88h-15.64v25.15h15.64zm-25.14 0v6.2h6.17v-6.2zm15.63-3.27v-6.19H326v6.19zm-15.64 0h6.18v-6.16h-6.18zm6.19 38v-6.2h-6.15v6.2zm3.32-6.22v6.19h6.16v-6.19zm19-28.47v6.17h6.18v-6.17zm-22.27 19h-6.21v6.16h6.21zm22.22 6.11h6.16v-6.16H345zm-22.3-9.5v-6.14h-6.16v6.14zm28.49-6.14h-6.15v6.15h6.15zm-15.67-12.84h6.15v-6.15h-6.15zm6.15 38v-6.17h-6.13v6.15zm-141.38-15.71h-6.86c-2.32 0-2.64-.33-2.64-2.69v-6.74h-6.28v26c0 1.92-.44 2.38-2.32 2.38h-8.4c-1.39 0-2-.57-2-2q0-23.31 0-46.6c0-1.46.57-2 2-2h8.61c1.47 0 2 .54 2 2v7.45h7.16c1.87 0 2.33.46 2.33 2.37v7h6.29v-16.56c0-1.79.46-2.25 2.2-2.26h8.4c1.49 0 2.05.53 2.05 2v46.6c0 1.46-.55 2-2.05 2h-8.5c-1.61 0-2.1-.5-2.1-2.15v-15.64zm3.25-28.45v6.2h6.14v-6.2zm6.2 38h-6.19v6.13h6.19zm-6.21-9.5v6.18h6.16v-6.18zm-22.29 6.2v-6.17h-6.17v6.17zm-6.14 3.29v6.16h6.15v-6.16zm0-31.77h6.16v-6.18h-6.16zm0 3.3v6.16h6.18v-6.16zm34.65 6.18v-6.16h-6.18v6.16zm-25.13-6.19v6.15h6.12v-6.15zm25.11 15.67v-6.16h-6.15v6.16zm-9.46-6.14h-6.15v6.13h6.15zm-19 0h-6.2v6.12h6.2z"/></g><g class="d"><path d="M252.46 638c-.27-.46-.43-1.15-.83-1.34a1.24 1.24 0 0 1-.76-1.38v-5.16h6.28v5.87c0 .15-.22.3-.34.45l-1.23 1.56zm52.95-5.65a1.84 1.84 0 0 0-1.57 2.21c.05.55 0 1.1 0 1.72h-6.23v-6.18h7.79zm-7.79 13.42v-6.18h6.16v6.18zm6.16 28.48h-6.15v-6.19h6.15zm-9.45-44.12v6.16h-6.16v-6.16zm-19.01 6.17h-6.17v-6.15h6.17zm.01 3.31v6.15h-6.19v-6.15zm12.81 25.13v-6.13h6.18v6.13zm-12.82.02h-6.16v-6.15h6.16zm-.01 9.49h-6.15v-6.16h6.15zm-6.14-25.15h6.12v6.15h-6.12zm25.16.03v6.09h-6.18v-6.09zm3.27 6.12v-6.11h6.19v6.11zm-18.92-25.13h6.12v6.16h-6.12zm-.01 19h6.13v6.13h-6.13zm37.88-9.54h6.17v6.2h-6.17zm15.63-3.27H326v-6.19h6.14zm-15.64-.01v-6.16h6.18v6.16zm6.19 37.98h-6.15v-6.2h6.15zm3.32-6.22h6.16v6.19h-6.16zM345 639.59h6.18v6.17H345zm-22.25 19v6.16h-6.21v-6.16zm22.25 6.16v-6.16h6.16v6.16zm-22.29-9.5h-6.16v-6.14h6.16zm28.49-6.14v6.15h-6.15v-6.15zm-15.67-12.84v-6.15h6.15v6.15zm6.15 37.98h-6.13v-6.15h6.13zm-113.04-37.92h-6.18v-6.16h6.18zm3.36-6.2h6.13v6.2H232zm-3.37 44.15h-6.15v-6.15h6.15zm3.37-6.19h6.16v6.16H232zm-3.33-9.43v6.12h-6.2v-6.12zm-6.23-12.88v-6.13h6.2v6.13zm18.99-9.48v-6.16h6.15v6.16zm9.51 31.8h6.18v6.15h-6.18zm-12.83-12.81H232v-6.12h6.14zm9.49 12.84v6.13h-6.12v-6.13zm-25.13-12.88v-6.1h6.16v6.1zm19-6.1h6.12v6.12h-6.12zm-37.93-19.04h6.14v6.2h-6.14zm6.2 38v6.13h-6.19v-6.13zm-6.21-9.5h6.16v6.18h-6.16zm-22.29 6.2h-6.17v-6.17h6.17zm-6.14 3.29h6.15v6.16h-6.15zm-.04-31.77v-6.18h6.16v6.18zm0 3.3h6.18v6.16h-6.18zm34.65 6.18h-6.18v-6.16h6.18zm-25.13-6.19h6.12v6.15h-6.12zm25.11 15.67h-6.15v-6.16h6.15zm-9.46-6.14v6.13h-6.15v-6.13zm-18.97-.01v6.12h-6.2v-6.12z"/></g><g class="a"><path d="M258.06 664.86H232v-6.3h16.75c1.62 0 2.15-.53 2.16-2.14v-8.28c0-1.8-.49-2.28-2.33-2.28H232v-6.28h18.42a5 5 0 0 0 .59 0h.05 6.47l1.45-.06c1.05-.07 1.42-.74 1.42-2.28v-8.18c0-1.62-.53-2.15-2.13-2.15H221.3c-1.54 0-2.06.53-2.07 2.08q0 23.24 0 46.48c0 1.48.53 2 2 2h37c1.53 0 2.07-.55 2.08-2.09v-8.28c.05-1.79-.41-2.24-2.25-2.24zm-16.59-15.71h6.12v6.12h-6.12zm-9.5 0h6.14v6.12H232zm18.91-19h6.28v5.87c0 .09-.09.19-.19.29h-5.85a1.47 1.47 0 0 1-.24-1v-5.17zm-9.45 0h6.15v6.16h-6.15zm-9.47 0h6.13v6.2H232zm-9.5 0h6.19v6.16h-6.19zm0 9.48h6.2v6.13h-6.2zm0 9.5h6.16v6.1h-6.16zm6.16 25.13h-6.15v-6.15h6.15zm0-9.5h-6.2v-6.12h6.2zm9.44 9.47H232v-6.16h6.16zm9.49 0h-6.12v-6.13h6.12zm9.52 0h-6.18v-6.13h6.18zm49.93-7.12c0-1.85-.44-2.29-2.26-2.3h-7.15v-6.28h7.15c1.76 0 2.26-.49 2.26-2.22v-21.69-.35h0v-5.79h0a1.34 1.34 0 0 0 0-.2c-.12-.91-.8-1.38-2-1.39h-36.83c-1.8 0-2.27.47-2.27 2.31q0 23 0 46a2.44 2.44 0 0 0 1 2.32h10.71a2.8 2.8 0 0 0 1-2.46v-16.42h6.28v7c0 2 .44 2.4 2.4 2.4h7.09v7.31a2.12 2.12 0 0 0 1.12 2.16H306a2.29 2.29 0 0 0 1.07-2.19l-.07-8.21zm-37.88-37h6.17v6.15h-6.17zm6.16 44.1h-6.15v-6.16h6.15zm0-9.49h-6.16v-6.15h6.16zm-6.15-9.51v-6.11h6.12v6.15zm6.16-9.49h-6.19v-6.15h6.19zm3.35-15.64h6.12v6.16h-6.12zm6.12 25.13h-6.13v-6.13h6.13zm-6.16-9.47v-6.19h15.7v6.19zm15.68 19h-6.18v-6.13h6.18zm0-9.52h-6.18v-6.09h6.18zm0-18.93h-6.16v-6.16h6.16zm3.29-6.19h6.23v3.9a3 3 0 0 0 0 .6v.31 1.41h-6.23zm6.16 9.49v6.18h-6.16v-6.18zm-6.18 9.55h6.19v6.11h-6.14zm6.18 25.11h-6.15v-6.19h6.15z"/></g></g><g opacity=".25"><g class="a"><path d="M116.65 795.11h5.41v5.41h-5.41z"/><path d="M122.07 795.11h5.41v5.41h-5.41zm16.01 37.48V838h-5.37v5.38h-5.44v5.39h-10.41v-5.39h-5.44V838h-5.37v-5.39h-5.44v-5.41h-5.44v-5.39h-5.44v-5.25h-5.42v-16.13h5.37v-5.32h5.41v-5.41h.02v-5.35h16.09v5.38h5.42v5.42h-5.42v-5.39H95.14v5.35h-5.41v5.32h5.36v10.72h5.35v5.25h5.44v5.39h5.44v5.41h5.44v5.39h5.44v5.38h10.47v-5.38h5.41zm.03-5.39h5.41v5.41h-5.41zm10.82-26.83v10.7h-5.41v-5.29h-5.31V795h5.41v5.37h5.31zm-5.38 21.42h5.41v5.41h-5.41zm16.26-26.68v21.45h-5.41v5.25h-5.41v-5.41h5.41v-21.29h-5.41v-5.35h-16.06v5.39h-5.42v-5.42h5.42v-5.38h16.08v5.35h5.39v5.41h5.41z"/></g><path d="M95.09 795.11h5.41v-5.35h10.7v5.39h5.42v5.37h10.86v-5.37h5.45v-5.39h16.08v5.35h5.39v21.45h-5.41v5.25h-5.44v5.39h-5.44v5.41h-5.44v5.36h-10.51v-5.38h-5.4v-5.39h-5.44v-5.41h-5.44v-5.39h-5.44v-5.25h-5.35v-16.04z" class="f"/><g class="a"><path d="M132.67 832.59h5.41V838h-5.41zm5.44-5.39h5.41v5.41h-5.41zm-16.25 16.16h5.41v5.41h-5.41z"/><path d="M127.29 837.97h5.41v5.41h-5.41zm16.26-16.18h5.41v5.41h-5.41zm-21.48-26.68h5.41v5.41h-5.41zm5.44-5.38h5.41v5.41h-5.41zm21.48 26.67h5.41v5.41h-5.41z"/><path d="M154.4 811.15h5.41v5.41h-5.41z"/><path d="M154.4 805.84h5.41v5.41h-5.41z"/><path d="M154.4 800.43h5.41v5.41h-5.41z"/><path d="M154.4 795.11h5.41v5.41h-5.41z"/></g><g class="d"><path d="M138.21 800.37h5.41v5.41h-5.41z"/><path d="M138.21 795h5.41v5.41h-5.41z"/><path d="M143.52 800.37h5.41v5.41h-5.41z"/><path d="M143.52 805.66h5.41v5.41h-5.41z"/></g><g class="a"><path d="M148.99 789.7h5.41v5.41h-5.41zm-10.74-5.35h5.41v5.41h-5.41z"/><path d="M132.92 784.35h5.41v5.41h-5.41zm10.68 0h5.41v5.41h-5.41zm-37.55 48.24h5.41V838h-5.41zm-5.44-5.39h5.41v5.41h-5.41zm16.25 16.16h5.41v5.41h-5.41z"/><path d="M111.42 837.97h5.41v5.41h-5.41zm-16.25-16.18h5.41v5.41h-5.41zm21.48-26.68h5.41v5.41h-5.41zm-5.45-5.38h5.41v5.41h-5.41zM89.73 816.4h5.41v5.41h-5.41z"/></g><g class="g"><path d="M111.44 832.59h5.41V838h-5.41zM106 827.2h5.41v5.41H106z"/><path d="M116.81 837.97h5.41v5.41h-5.41zm-16.26-16.18h5.41v5.41h-5.41zm-5.43-5.39h5.41v5.41h-5.41z"/></g><g class="a"><path d="M84.31 811.15h5.41v5.41h-5.41z"/><path d="M84.31 805.84h5.41v5.41h-5.41z"/><path d="M84.31 800.43h5.41v5.41h-5.41z"/><path d="M84.31 795.11h5.36v5.32h-5.36z"/><path d="M89.73 795.11v5.41h-5.42v-.09h5.37v-5.32h.05z"/><path d="M89.73 789.7h5.36v5.41h-5.36z"/><path d="M95.14 789.7v5.41h-5.41 0 5.36v-5.41h.05z"/></g><g class="g"><path d="M89.68 811.15h5.41v5.41h-5.41zm27.11 21.44h5.41V838h-5.41zm-5.44-5.39h5.41v5.41h-5.41z"/><path d="M122.16 837.97h5.41v5.41h-5.41zm-16.26-16.18h5.41v5.41h-5.41zm-5.44-5.39h5.41v5.41h-5.41zm-5.43-5.25h5.41v5.41h-5.41z"/><path d="M89.68 805.84h5.41v5.41h-5.41z"/><path d="M89.68 800.43h5.41v5.41h-5.41z"/></g><path d="M89.73 795.11h5.36v5.31h-5.36z" class="a"/><path d="M89.73 795.11v5.32h5.36v.09h-5.41v-5.41h5.41 0-5.36z" class="g"/><path d="M95.14 789.76h5.36v5.35h-5.36z" class="a"/><path d="M100.5 789.7v.06h-5.36v5.35h-.05v-5.41h5.41z" class="g"/><g class="a"><path d="M100.46 784.35h5.41v5.41h-5.41z"/><path d="M105.79 784.35h5.41v5.41h-5.41zm-10.68 0h5.41v5.41h-5.41z"/></g></g><g opacity=".8"><g class="a"><path d="M1792 973.37v-4.9h0c.22 0 .43-.06.65-.06H1821c.22 0 .44 0 .66.06h0v4.9zm-18.27-23.15h-4.9v-29.68h4.89c0 .26 0 .53.06.79v4.12.81q0 11.54 0 23.08v.88zM1792 902.3v-4.86h29.68v4.84c-.22 0-.44.06-.66.06h-28.38c-.22 0-.44 0-.66-.06zm47.91 18.24h4.86v29.68h-4.84c0-.29-.06-.58-.06-.88v-23.08-.81-.88l.06-4z" class="c"/><path d="M1783.68 907.34v-5h8.3 0v5l-3.27.05h-5zm37.98-5.04h8.3v5h0-5l-3.27-.05v-5zm-47.93 18.24v-8.29h5 0v5 3.26h-5zm61.14-8.29h5v8.29h0-5l-.05-3.26v-5zm5.04 37.97v8.3h-5v-8.3h5zm-9.91 13.21v5h-8.3v-5.05h8.3zm-51.22-51.18v-4.91h4.88v4.91h-4.89zm51.22-4.91h4.91v4.88H1830v-4.91z" class="c"/><path d="M1834.87 958.52v4.91H1830v-4.89h4.9zm-42.87 9.95h-8.31v-5h8.31v5.05zm-18.2-17.93l-.07-.32h5v8.3l-4.89-.06v-5.36c.03-.86-.02-1.71-.04-2.56zm9.87 12.89h-4.9v-4.89h4.89v4.89z" class="c"/></g><path d="M1773.8 950.54l.07 2.56v5.36c0-.06-.11-.11-.11-.17z" fill="#060605" class="c"/><path d="M1783.66 963.43v-4.89h-4.89v-8.32h-5v-.88q0-11.54 0-23.08v-.81h4.92v-4.94-3.26h4.88v-5h5v-4.89l3.27-.05h20.62 9.12l3.27.05v4.89h5v5h4.89l.05 3.26v4.94h4.91v.81 23.08c0 .3 0 .59.06.88h-5v8.32H1830v4.89h-8.31v5.05c-.22 0-.44-.06-.66-.06h-28.38c-.22 0-.43 0-.65.06v-5.05zm1.61-39.65h10v9.9h4.91v-9.88h-4.93v-4.89h-9.94v4.86h-4.86v9.89h4.91v-7.17l-.09-2.71zm43.08 0v-4.89h-9.94v4.9h-4.94v9.88h4.92v-9.87h10c0 .27-.06.54-.06.8v9.12h4.89v-9.9zM1815 963.4a4.78 4.78 0 0 0 .13-.74v-4.16h5v-4.92h1.63l3.22-.09a3.53 3.53 0 0 0 .1-.55q0-6.82 0-13.65v-.57h-36.31v.42V953a2.08 2.08 0 0 0 .11.48 6.9 6.9 0 0 0 .78.09h4.11v5h4.9v4a6.79 6.79 0 0 0 .12.89 2.2 2.2 0 0 0 .37.05h15.59a2.23 2.23 0 0 0 .25-.11z" class="c g"/><g class="f"><path d="M1778.74 920.51v4.94h-4.92v-4.12c0-.26 0-.53-.06-.79zm42.95-13.21h-9.12-20.62v-5c.22 0 .44.06.66.06H1821c.22 0 .44 0 .66-.06zm18.13 18.15h-4.91v-4.94h5l-.06 4c.01.36-.01.65-.03.94zm-51.14-18.1v4.89h-5v-4.91zm41.32 4.89h-5v-4.89h5z" class="c"/><path d="M1783.67 912.23v5h-4.88v-5zm51.19 5.02H1830v-5h4.91z" class="c"/></g><path d="M1788.74 953.48a2.08 2.08 0 0 1-.11-.48v-13.87-.42H1825v.57q0 6.83 0 13.65a3.53 3.53 0 0 1-.1.55h-4.83q0-4.14 0-8.29v-1.5h-26.42v2q0 3.88 0 7.77z" class="a c"/><g class="f"><path d="M1815 963.4a2.23 2.23 0 0 1-.36.05H1799a2.2 2.2 0 0 1-.37-.05v-4.85h.8H1813h2zm-19.77-39.58h4.93v9.88h-4.91v-9.9zm23.16-.02v9.89h-4.92v-9.88h4.92zm9.96 0h4.85v9.9h-4.89v-9.12c0-.26 0-.53.06-.8z" class="c"/><path d="M1818.41 923.81v-4.9h9.94v4.89h0-10zm-33.12-.02v-4.86h9.94v4.89h0-10z" class="c"/><path d="M1785.27 923.78l.06 2.73v7.17h-4.91v-9.89h4.84zm13.39 34.77v4.85a6.79 6.79 0 0 1-.12-.89v-4h-4.9v-5h-4.11a6.9 6.9 0 0 1-.78-.09h9.83v1.38l.08 3.75zm16.34 4.85v-4.85-5.07h9.92l-3.22.09h-1.63v4.92h-5v4.16a4.78 4.78 0 0 1-.07.75z" class="c"/></g><path d="M1820.08 953.48H1815v5.07h-2-13.54-.8l-.08-3.69v-1.38h-5q0-3.88 0-7.77v-2H1820v1.5q.06 4.14.08 8.27z" class="c d"/></g><g opacity=".8" class="a"><path d="M310.41 918.95h6.58v3.29h-6.58z" class="b"/><path d="M307.12 922.24h3.29v36.19h-3.29zm9.87 0h3.29v29.61h-3.29z" class="b"/><path d="M320.28 935.4h6.58v3.29h-6.58z" class="b"/><path d="M326.86 938.69h3.29v13.16h-3.29z" class="b"/><path d="M330.15 938.69h6.58v3.29h-6.58z" class="b"/><path d="M336.73 941.98h6.58v3.29h-6.58z" class="b"/><path d="M336.73 945.27h3.29v9.87h-3.29zm6.57 0h3.29v3.29h-3.29z" class="b"/><path d="M346.59 948.56h3.29v23.03h-3.29zm-46.05 3.29h3.29v3.29h-3.29z" class="b"/><path d="M290.67 948.56h9.87v3.29h-9.87z" class="b"/><path d="M290.67 951.85h3.29v6.58h-3.29z" class="b"/><path d="M293.96 958.43h3.29v3.29h-3.29z" class="b"/><path d="M297.25 961.72h3.29v3.29h-3.29z" class="b"/><path d="M300.54 965.01h3.29v6.58h-3.29z" class="b"/><path d="M303.83 971.59h3.29v6.58h-3.29zm6.58 9.87h29.61v3.29h-29.61zm32.89-9.87h3.29v6.58h-3.29zm-39.47-16.45h3.29v3.29h-3.29z" class="b"/><path d="M307.12 978.17h3.29v3.29h-3.29zm32.89 0h3.29v3.29h-3.29zm-50.13-65.35h9.87v3.29h-9.87z" class="b"/><path d="M296.46 916.11h3.29v6.58h-3.29z" class="b"/><path d="M293.17 916.11h3.29v3.29h-3.29z" class="b"/><path d="M289.88 919.4h3.29v3.29h-3.29zm-6.58 6.58h3.29v3.29h-3.29zm-6.58 0h3.29v6.58h-3.29z" class="b"/><path d="M280.01 929.27h3.29v3.29h-3.29z" class="b"/><path d="M276.72 932.56h9.87v3.29h-9.87z" class="b"/></g><g class="c"><g class="a"><path d="M1635.11,806.11v-1.44h-2.88v-5.75h2.88V796H1638v-5.75h-2.88v-2.88h-2.88v-2.87h-2.87v-5.76h2.87v-2.87h8.63v2.87h5.75v2.88h2.88v2.88h8.63v-2.88h5.75v-2.88h8.63v-2.87H1707v2.87h5.75v2.88h5.75v2.88h2.88v2.87h2.87V796h-2.87v2.88h-2.88v2.87h-5.75v2.88h-8.63v2.88h-28.76v-2.88h-5.76v-2.88h-5.75v-2.87h-11.5v2.87h-2.88v2.88h-2.88v2.88h-11.5Zm60.4-2.88v-1.44h2.88V784.54h-2.88v-5.76h-5.75v8.63h2.87v2.88h2.88V796h-2.88v-2.88H1684V796h-2.88v2.88h5.75V796h5.75v5.75h-2.87v2.88h5.75ZM1675.38,796v-5.75h2.87v-8.63h2.88v2.88H1684v-2.88h2.87v-2.88H1684v2.88h-2.88v-2.88h-8.63v2.88h-2.88v20.13h5.76Zm-23-2.88v-5.75h-2.88v-2.87h-2.88v5.75h2.88v2.87h-2.88v5.76h5.76Zm11.5-7.19v-1.43h2.88v-2.88h-2.88v2.88H1661v2.87h2.87ZM1638,780.22v-1.44h-2.88v2.88H1638Zm66.15,0v-1.44h-2.88v2.88h2.88Zm-120.8-23v-1.44h-2.88v-11.5h2.88v-2.88h2.87v-5.75h-2.87v-2.88h-2.88v-2.87h-2.88v-8.63h2.88v-2.88H1592v2.88h5.75v2.87h2.87V727H1615v-2.88h11.5v-2.87h5.75v-2.88h37.39v2.88h8.63v2.87H1684V727h5.75v2.88h2.87v2.87h2.88v8.63h-2.88v2.88h-2.87v2.87H1684V750h-5.76v2.88h-8.63v2.87h-37.39V752.9h-5.75V750H1615v-2.88h-8.63V750h-2.88v2.88h-8.63v2.87h-5.75v2.88h-5.75Zm74.78-5.75V750H1661v-5.75h-5.76v-5.75h2.88v-2.88H1661v-5.75h-2.88v-8.63h-8.63v11.5h2.88v5.76h-2.88v2.87h-5.75v2.88H1638v2.87h8.62v-2.87h2.88v2.87h2.88V750h-2.88v2.88h8.63Zm-5.75-5.75v-1.44h2.87v2.87h-2.87Zm-48.9,2.87v-1.44h2.88V729.89h-5.76V727h-2.87v8.63h2.87v5.75h-2.87v5.75h2.87V750h2.88Zm28.76-5.75v-7.19h2.88V724.13H1638v-2.87h-2.88v2.87h-8.63V750h5.75Zm-20.13-11.5v-1.44h-2.88v2.87h2.88Zm5.75,0v-1.44h2.88V727h-2.88v2.88H1615v2.87h2.87Zm66.16-2.88V727h-2.88v2.88H1684Zm-20.14-2.88v-1.44h2.88V727h2.87v-2.88h-2.87v-2.87h-2.88v2.87H1661V727h2.87Zm11.51,0v-1.44h-2.88V727h2.88Zm-31.64-2.87v-1.44h-2.88v2.87h2.88Z"/><path d="M1635.11,806.11v-1.44h-2.88v-5.75h2.88V796H1638v-5.75h-2.88v-2.88h-2.88v-2.87h-2.87v-5.76h2.87v-2.87h8.63v2.87h5.75v2.88h2.88v2.88h8.63v-2.88h5.75v-2.88h8.63v-2.87H1707v2.87h5.75v2.88h5.75v2.88h2.88v2.87h2.87V796h-2.87v2.88h-2.88v2.87h-5.75v2.88h-8.63v2.88h-28.76v-2.88h-5.76v-2.88h-5.75v-2.87h-11.5v2.87h-2.88v2.88h-2.88v2.88h-11.5Zm43.14-13v-11.5h2.88v2.88H1684v-2.88h2.87v8.63h2.88v2.87H1684V796h-2.88v2.88h5.75V796h5.75v5.75h-2.87v2.88h5.75v-2.88h5.75V784.54h-2.87v-5.76H1684v2.88h-2.88v-2.88h-8.63v2.88h-8.63v2.88H1661v2.87h2.87v-2.87h2.88v8.62h2.87v8.63h5.76v2.88h2.87Zm14.38,0v-2.87h2.88V796h-2.88Zm-43.14,7.2v-1.44h2.88V796h2.87v-8.63h-5.75v-2.87h-2.88v-2.88h-2.87v8.63h2.87v2.87h-2.87v5.76h2.87v2.87h2.88Zm17.26-2.88V796h-2.88v2.88h2.88ZM1638,780.22v-1.44h-2.88v2.88H1638Zm66.15,0v-1.44h-2.88v2.88h2.88Zm-120.8-23v-1.44h-2.88v-11.5h2.88v-2.88h2.87v-5.75h-2.87v-2.88h-2.88v-2.87h-2.88v-8.63h2.88v-2.88H1592v2.88h5.75v2.87h2.87V727H1615v-2.88h11.5v-2.87h5.75v-2.88h37.39v2.88h8.63v2.87H1684V727h5.75v2.88h2.87v2.87h2.88v8.63h-2.88v2.88h-2.87v2.87H1684V750h-5.76v2.88h-8.63v2.87h-37.39V752.9h-5.75V750H1615v-2.88h-8.63V750h-2.88v2.88h-8.63v2.87h-5.75v2.88h-5.75Zm54.65-5.75V750h-2.88v-11.5H1638V721.26h-5.76v2.87h-5.75V727h-2.88v8.63h2.88v2.88h-2.88v2.87h2.88V750h5.75v2.88H1638Zm20.13,0V750h5.75v-5.75H1661v-8.63h2.87v-5.75H1661V727h2.87v-2.88h2.88V727h2.87v-2.88h-2.87v-2.87h-2.88v2.87H1661v-2.87h-14.39v14.38h2.88v5.75h-5.75v2.88H1638v2.87h8.62v-2.87h2.88v2.87h2.88V750h-2.88v2.88h8.63Zm-5.75-5.75v-1.44h2.87v-5.75h2.88v5.75h-2.88v2.87h-2.87Zm-48.9,2.87v-1.44h2.88v-8.62h2.87v-5.76h2.88v-2.87h-11.51V727h-5.75v8.63h2.88v5.75h-2.88v5.75h2.88V750h5.75Zm14.38-17.25v-1.44h2.88V727h-2.88v2.88H1615v2.87h2.87Zm66.16-2.88V727h-2.88v2.88H1684Zm-8.63-2.88v-1.44h-2.88V727h2.88Zm-31.64-2.87v-1.44h-2.88v2.87h2.88Z"/></g><path d="M1635.11 806.11v-1.44h-2.88v-5.75h2.88V796h2.89v-5.75h-2.88v-2.88h-2.88v-2.87h-2.87v-5.76h2.87v-2.87h8.63v2.87h5.75v2.88h2.88v2.88h8.63v-2.88h5.75v-2.88h8.63v-2.87H1707v2.87h5.75v2.88h5.75v2.88h2.88v2.87h2.87V796h-2.87v2.88h-2.88v2.87h-5.75v2.88h-8.63v2.88h-28.76v-2.88h-5.76v-2.88h-5.75v-2.87h-11.5v2.87h-2.88v2.88h-2.88v2.88h-11.5zm8.63-2.88v-1.44h5.75v-2.87h2.88V796h11.5v2.88h2.88v-5.76h2.87v8.63h5.76v2.88h11.5v-2.88h-8.63v-8.63h2.88v5.76h8.63V796h2.87v5.75h-2.87v2.88h5.75v-2.88h2.88v2.88h5.75v-2.88h8.63v-2.87h5.75V796h2.88v-8.63h-2.88v-2.87h-5.75v-2.88H1707v-2.88h-34.5v2.88h-8.63v2.88h-5.75v2.87h-8.63v-2.87h-2.88v-2.88h-5.75v-2.88h-5.75v2.88h-2.88v2.88h2.88v2.87h5.75v2.88h2.88v2.87h-2.88v5.76h-5.75v2.87h5.75v2.88h2.88zm48.89-10.07v-2.87h2.88V796h-2.88zm14.39-2.87v-2.88h5.75v5.75H1707zm-71.91-7.19v-1.44h2.89v2.88h-2.88zm-51.77-25.89v-1.44h-2.88v-11.5h2.88v-2.88h2.87v-5.75h-2.87v-2.88h-2.88v-2.87h-2.88v-8.63h2.88v-2.88H1592v2.88h5.75v2.87h2.87V727H1615v-2.88h11.5v-2.87h5.75v-2.88h37.39v2.88h8.63v2.87h5.73V727h5.75v2.88h2.87v2.87h2.88v8.63h-2.88v2.88h-2.87v2.87H1684V750h-5.76v2.88h-8.63v2.87h-37.39v-2.85h-5.75V750H1615v-2.88h-8.63V750h-2.88v2.88h-8.63v2.87h-5.75v2.88h-5.75zm5.75-2.87v-1.44h5.75V750h8.63v-2.88h2.88v-8.62h2.87v5.75h5.78v2.87h8.62v-5.75h2.88V750h5.75v2.88h14.38V750h-11.5v-8.63h5.75v2.88H1638v2.87h14.38V750h-2.88v2.88h8.63V750h2.87v2.88h8.62V750h8.63v-2.88h5.75v-2.87h5.75v-5.75h2.87v-5.76h-2.87v-2.87H1684V727h-5.76v-2.88h-8.63v-2.87h-37.39v2.87h-5.75V727H1615v2.88h-14.39V727h-2.87v-2.88H1592v-2.87h-5.76v2.87h-5.75V727h5.75v2.88h-2.87v2.87h8.63v2.88h-2.88v2.88h2.88v2.87h-5.76v2.88h2.88v2.87h-5.75V750h5.75v2.88h-5.75v2.87h5.75zm63.28-8.63v-1.44h2.87v-5.75h2.88v5.75h-2.88v2.87h-2.87zm-28.77-8.63v-1.44h2.88v2.88h-2.88zm51.78 0v-1.44h-2.88v-2.88h2.88v-2.87h5.75v5.75h-2.88v2.88h-2.87z" class="d"/><path d="M1635.11 806.11v-1.44h-2.88v-5.75h2.88V796h2.89v-5.75h-2.88v-2.88h-2.88v-2.87h-2.87v-5.76h2.87v-2.87h8.63v2.87h5.75v2.88h2.88v2.88h8.63v-2.88h5.75v-2.88h8.63v-2.87H1707v2.87h5.75v2.88h5.75v2.88h2.88v2.87h2.87V796h-2.87v2.88h-2.88v2.87h-5.75v2.88h-8.63v2.88h-28.76v-2.88h-5.76v-2.88h-5.75v-2.87h-11.5v2.87h-2.88v2.88h-2.88v2.88h-11.5zm8.63-2.88v-1.44h5.75v-2.87h2.88V796h11.5v2.88h2.88v-5.76h2.87v8.63h5.76v2.88h11.5v-2.88h2.88v2.88h5.75v-2.88h2.88v2.88h5.75v-2.88h8.63v-2.87h5.75V796h2.88v-8.63h-2.88v-2.87h-5.75v-2.88H1707v-2.88h-34.5v2.88h-8.63v2.88h-5.75v2.87h-8.63v-2.87h-2.88v-2.88h-5.75v-2.88h-8.63v5.76h2.88v2.87h2.89v2.88h2.87V796H1638v2.88h-2.88v5.75h8.63zm63.26-12.94v-2.88h5.75v5.75H1707zm-123.68-33.08v-1.44h-2.88v-11.5h2.88v-2.88h2.87v-5.75h-2.87v-2.88h-2.88v-2.87h-2.88v-8.63h2.88v-2.88H1592v2.88h5.75v2.87h2.87V727H1615v-2.88h11.5v-2.87h5.75v-2.88h37.39v2.88h8.63v2.87h5.73V727h5.75v2.88h2.87v2.87h2.88v8.63h-2.88v2.88h-2.87v2.87H1684V750h-5.76v2.88h-8.63v2.87h-37.39v-2.85h-5.75V750H1615v-2.88h-8.63V750h-2.88v2.88h-8.63v2.87h-5.75v2.88h-5.75zm5.75-2.87v-1.44h5.75V750h8.63v-2.88h2.88v-8.62h2.87v5.75h5.8v2.87h8.62v-5.75h2.88V750h5.75v2.88h14.38V750h2.88v2.88h8.63V750h2.86v2.88h8.62V750h8.63v-2.88h5.75v-2.87h5.75v-5.75h2.87v-5.76h-2.87v-2.87H1684V727h-5.76v-2.88h-8.63v-2.87h-37.39v2.87h-5.75V727H1615v2.88h-14.39V727h-2.87v-2.88H1592v-2.87h-11.51v8.63h2.88v2.87h2.87v2.88h2.88v5.75h-2.88v2.88h-2.87v11.5h5.75zm34.51-17.26v-1.44h2.88v2.88h-2.88zm51.78 0v-1.44h-2.88v-2.88h2.88v-2.87h5.75v5.75h-2.88v2.88h-2.87z" class="a"/><g class="d"><path d="M1675.38 729.89v2.87h-2.88v2.88h2.88v2.88h2.87v-2.88h2.88v-5.75h-5.75zm31.64 57.52h5.75v5.75h-5.75z"/></g><g class="a"><path d="M1609.22 735.64l-1.34-7.19h7.91l1.13-3.59 5.81.71.87 5.76-4.1 4.31h-10.28zm25.89-11.51v-4.11h11.5l-1.27 4.11h-10.23zm24.92 3.64l.97-6.51 3.55-1.24 3.07 1.24 3.22 1.44 5.98 1.19 2.9 1.68 3.56.75.73.69v2.88h-2.88l-21.1-2.12zm-20.99 53.89h-3.93v-2.88h4.9l-.97 2.88zm20.99 6.65v-4.52l3.84-.69v-1.44h2.88v5.75l-6.72.9zm21.1-3.77v-5.11l1.44-.65h4.31v6.21l-5.75-.45zm17.26-7.04l6.52 1.28.65 3.1-4.3-.22-2.87-4.16z"/></g></g></svg>