<svg viewBox="0 0 1920 1080" xmlns="http://www.w3.org/2000/svg"><path d="m0 0h1920v1080h-1920z" fill="#666"/><path d="m345.71 345.79v-21.39h-3.51v-2.18h-38.2v2.18h-3.5v33.4h-3.6v3.82h-7.2v3.82h-6v3.81h-7.52v-3.82h-4.18v-3.82h-5.4v-3.81h-3.45v19.69h2.95v3.81h4.2v3.82h3.6v4.36h4.83v3.72h5.07v8.7h8.46v-2.81h-5.36v-2.44h6.1v-3.82h3.92v3.82h2.48v5.25h8.46v-2.81h-5.36v-10.09h5.18v-3.8h4.52v-7.88h3.6v-7.78h5.57v3.65h3.72v-8h-9.29v-9.86h18.58v-4.31h-14.47v-5.26zm-32.79-13.88h-4.5v-4.09h4.5z" fill="#b3b3b3" opacity=".4"/><g opacity=".4"><g fill="#b3b3b3"><path d="m408.15 75.84h5.19v5.16h10.4v15.65h-5.15v5.21h-10.44v10.42h-5.15v-15.63h5.15 4.62c.45 0 .61-.15.6-.6 0-.95 0-1.91 0-2.86 0-1.75 0-1.75 1.71-1.75h2.87c.48 0 .64-.15.63-.64 0-1.25-.05-2.52 0-3.77 0-.69-.23-.83-.86-.82-3.18 0-6.37 0-9.56 0v-10.38z"/><path d="m382.13 107.09v-5.18h-5.13v-5.23h-5.21v-20.84h5.17v15.65h5.24v5.2h5.13v10.39h-5.15z"/><path d="m402.94 133.12v5.2h-5.18v5.17h-31.25v-5.17h26v-5.2h10.39z"/><path d="m350.89 122.7h-5.18v-26h10.37v5.18h-5.21v20.84z"/><path d="m366.51 138.32h-10.41v-5.19h-5.21v-10.43h5.23v5.23h5.19v5.19h5.18v5.2z"/><path d="m382.13 70.64v-5.17h20.81v5.17h-20.82z"/><path d="m408.15 112.3h5.17v15.61h-5.16v-15.61z"/><path d="m366.49 107.09h15.63v5.16h-15.61v-5.16z"/><path d="m356.08 101.88h10.41v5.21h-10.4v-5.21z"/><path d="m376.92 75.84v-5.2h5.21v5.19h-5.2z"/><path d="m402.94 70.64h5.21v5.2h-5.15v-5.22z"/><path d="m408.15 127.91v5.21h-5.15v-5.21h5.19z"/></g><path d="m408.16 127.92h-5.16v5.21h-10.45v5.2h-26.06v-5.2h-5.18v-5.19h-5.19v-5.23h-5.25v-20.84h5.22v5.21h10.42v5.16h15.61v-5.16h5.16v-10.39h-5.13v-5.2h-5.24v-15.66h5.21v-5.21h20.88v5.21h5.21v10.4 10.42h-5.21v15.63h5.16zm-15.63-5.22h5.16v-5.2h-5.16v-5.16h-5.15v5.15h5.16v5.22h-5.21v5.21h-15.63v-5.21h-5.2v-5.16h-5.16v5.15h5.17v5.21h5.2v5.16h15.61v-5.16h5.21zm10.36-36.48v-5.12h-5.1v5.12z" fill="#666"/><path d="m408.15 96.65c0-3.47 0-6.94 0-10.42h9.56c.63 0 .89.13.86.82-.06 1.25 0 2.52 0 3.77 0 .49-.15.65-.63.64-1 0-1.91 0-2.87 0-1.71 0-1.71 0-1.71 1.75v2.86c0 .45-.15.61-.6.6-1.53-.02-3.07-.02-4.61-.02z" fill="#808080"/><path d="m371.7 127.92h15.62v5.16h-15.61v-5.16z" fill="#b3b3b3"/><path d="m402.89 86.22h-5.1v-5.12h5.1z" fill="#b3b3b3"/><path d="m392.54 117.49h-5.16v-5.15h5.15v5.16z" fill="#b3b3b3"/><path d="m366.51 122.7h-5.17v-5.15h5.16v5.16z" fill="#b3b3b3"/><path d="m392.53 117.5h5.16v5.2h-5.15v-5.22z" fill="#b3b3b3"/><path d="m392.53 122.7v5.21h-5.2v-5.21z" fill="#b3b3b3"/><path d="m371.71 127.91h-5.2v-5.21h5.19v5.21z" fill="#b3b3b3"/></g><g fill="#b3b3b3" opacity=".4"><path d="m1560.58 74.8v-8.28h-8v8.3h-103.58c-.28 0-.56 0-.83-.06a3.83 3.83 0 0 0 -.07.58q0 7.77 0 15.54c0 .2 0 .4.05.7h8v8.36h8v8.27h24.14v-8.21c-1.28 0-2.56-.07-3.84-.08h-4.17v-8.35h8v-8.32h7.94v8.32h8.1v-8.33h8v8.34h8v8.36h8v8.24h24v-8.18l-7-.06h-1v-8.37h7.92c0-2.42 0-4.85 0-7.27v-1h8v8.32h8v-16.82z"/><path d="m1447.17 66.46h-6.29a7.67 7.67 0 0 1 -.8-.11v8.48h5.84c.74 0 1.47 0 2.21-.08v-8.29z"/><path d="m1552.51 100h8.07v-8.41h-8.07z"/><path d="m1432 58.2v8.2a2.81 2.81 0 0 0 .42.07h7.06a2.35 2.35 0 0 0 .57-.13v-8.14z"/><path d="m1488.35 100h7.89v-8.41h-7.89z"/><path d="m1552.48 58.18h-7.91v8.25h7.91z"/></g><g fill="#b3b3b3" opacity=".4"><path d="m1849.63 570.89v-13.11h-4.35v-4.36h-4.37v-4.37h-8.74v-4.33h-17.48v4.35h-8.69v4.39h-4.32v4.36h8.69v4.33h4.34v13.11h-4.3v4.36h-8.74v-4.34h-4.39v-4.4h-4.33v34.93h4.34v-4.35h4.37v-4.3h4.34v4.32h3.74c.48 0 .64.11.63.62v3.73h8.73v-8.66h8.75v8.65h8.75v-4.34h4.4v-4.31h4.34v4.34h4.37v4.32h4.29v-34.94zm-8.74 4.36h-4.32v4.36h-8.76v-4.33h-4.34v-4.37h8.67v-8.74h-4.3v-4.34h8.71v4.34h4.34z"/><path d="m1805.94 570.89v-8.71h-4.33v-4.34h-4.37v13h7.32z"/></g><g opacity=".4"><path d="m157.5 196.44-.07.08a2.65 2.65 0 0 0 -.48-.07h-3.49a2.41 2.41 0 0 0 -.4.07v4.37a3.25 3.25 0 0 0 -.08.43v16.84c0 .14 0 .29.06.48h4.38v3.8c0 .18.05.37.07.55h-.26-17.09c-.12 0-.24 0-.41 0v-4.33h-4.4a1 1 0 0 1 .34-.1h4.15.71 7.47.55a2.23 2.23 0 0 0 0-.36v-16.89a3.89 3.89 0 0 0 0-.44h-4.38v-4.41h-4.43v-4.42h-4.43v-4.4h-4.39v-31h35.35v31h-4.43v4.44s0 0 0 .07a.79.79 0 0 0 -.22-.06h-4.19a42.09 42.09 0 0 0 .07 4.35zm-13.28-26.52v4.43h4.4v13.24h4.38v-22h-4.39v4.36zm-8.87-8.79v22h4.35v-22z" fill="#999"/><g fill="#b3b3b3"><path d="m186.82 161.09h-11.63a1 1 0 0 1 0-.18q0-4.34 0-8.67h-48.68v.48 8.38h-13.28v17.7h4.41v4.42h8.86v8.85h4.41v4.42h4.42v4.4h8.86v-4.41h-4.43v-4.42h-4.43v-4.4h-4.39v-31h39.76v31h-4.41v4.34l-.51.05h-3.4a4.36 4.36 0 0 0 -.52.05s0 0 0 .07v4.29h-4.36l-.07.08v4 .37h8.81v-4.45h4.43v-4.46h4.42v-8.8h8.91v-4.43h4.4v-17.67zm-60.36 17.66h-4.39v-4.39h-4.4v-8.81h8.79zm57.5-4.4h-4.39v4.4h-4.39v-13.2h8.82z"/><path d="m163.25 218.58c-.46 0-.92 0-1.39 0h-.63l.6.09v4.33h-4.34-.26-17.09c-.12 0-.24 0-.41 0v-4.33h-4.4v8.75h30.94v-8.81z"/><path d="m157.43 214.19v-13.31h-4.37v.9 16.22.53a1.48 1.48 0 0 0 .24.05h8.55c0-1.45 0-2.9 0-4.35z"/><path d="m148 218.57h.55v-17.57h-4.36v.41 12.8h-.53-3.83v4.36h.71z"/></g><path d="m161.85 214.19h-4.42v-13.31h-4.37v-4.37a2.41 2.41 0 0 1 .4-.07h3.54a2.65 2.65 0 0 1 .48.07v4 .37 13.18a4.57 4.57 0 0 0 .5 0h3.41a3.11 3.11 0 0 1 .46.13z" fill="#808080"/><path d="m148.55 218.54v-17.54h-4.36v-.08h4.39a3.89 3.89 0 0 1 0 .44v16.87a2.23 2.23 0 0 1 -.03.31z" fill="#b3b3b3"/><path d="m139.82 214.19v4.36h-.09c0-1.33 0-2.65 0-4a2.5 2.5 0 0 1 .09-.36z" fill="#b3b3b3"/><path d="m166.29 187.64v-31h4.41v31z" fill="#808080"/><path d="m161.86 192.08v-4.44h4.43v4.36l-.51.05h-3.4a4.36 4.36 0 0 0 -.52.03z" fill="#808080"/><path d="m157.5 196.44a42.09 42.09 0 0 1 -.06-4.35h4.19a.79.79 0 0 1 .22.06v4.29z" fill="#808080"/><path d="m144.22 169.92h4.39v-4.36h4.39v22h-4.38v-13.21h-4.4z" fill="#666"/><path d="m135.35 161.13h4.35v22h-4.35z" fill="#ccc"/><path d="m153.06 200.88v.9 16.22.53a1.48 1.48 0 0 0 .24.05h7.92l.6.09v4.33h-4.34c0-.18-.06-.37-.07-.55v-3.8h-4.41c0-.19-.06-.34-.06-.48v-16.86a3.25 3.25 0 0 1 .12-.43z" fill="#b3b3b3"/></g><g opacity=".4"><path d="m110.85 484.92v.08h-17.25v-.08z" fill="#fefefe"/><path d="m110.92 523.91a2.31 2.31 0 0 1 -.43.08h-3.83v.47 3.39a2.14 2.14 0 0 1 -.07.43v-4.28h-8.59v4.26a3.49 3.49 0 0 1 -.07-.43v-3.39c0-.13 0-.27 0-.44h-.43-3.5a2 2 0 0 1 -.43-.08h4.33v-4.29h-4.3v-8.63h4.4v-4.33h8.59v-4.32h.07v4.28h4.23l.06.09h-4.28v4.28h4.29v8.67h-4.26v4.29z" fill="#ccc"/><path d="m111 489.35-.1-.06a3.21 3.21 0 0 0 -.43-.07q-8.16 0-16.31 0a3.35 3.35 0 0 0 -.44.07l-.07.07v-4.36h17.25a1.78 1.78 0 0 1 .07.39v3.59a1.26 1.26 0 0 0 .1.38z" fill="#b3b3b3"/><path d="m76.27 493.65v-4.31h8.73v4.31z" fill="#ccc"/><path d="m124 502.33h4.26v4.28h-4.26z" fill="#666"/><path d="m89.32 511v8.65a2.79 2.79 0 0 1 -.07-.4v-7.85a2 2 0 0 1 .07-.4z" fill="#9a9a9a"/><path d="m89.29 493.56v-4.22h4.25a2.72 2.72 0 0 1 -.47.08h-3.19a4.47 4.47 0 0 0 -.47 0v.49 3.53a.36.36 0 0 1 0 .1z" fill="#b3b3b3"/><path d="m110.85 506.59h-4.23v-4.28a3.65 3.65 0 0 1 .07.46v3.25.47a4.09 4.09 0 0 0 .46 0h3.22z" fill="#404040"/><g fill="#b3b3b3"><path d="m93.67 489.29a3.35 3.35 0 0 1 .44-.07q8.15 0 16.31 0a3.21 3.21 0 0 1 .43.07h-.34-16.51z"/><path d="m110.92 519.63h.01z"/><path d="m110.93 510.96h-.01z"/><path d="m132.61 536.94v-4.3h4.3v-34.08c0-.16 0-.32 0-.48a1.75 1.75 0 0 0 -.38-.09h-3.95v-4.34h-17.3v-4.24c-.07-.05-.08-.07-.1-.07h-4.18v3.8.48h-17.4v-4.28h-.06a2.72 2.72 0 0 1 -.47.08h-3.19a4.47 4.47 0 0 0 -.47 0v.49 3.53a.36.36 0 0 1 0 .1h-.06a1.21 1.21 0 0 1 -.31.09h-17.04v4.37h-.43-3.57-.41v34.64h4.29v.29 3.8a.65.65 0 0 1 0 .2zm-8.61-34.61h4.26v4.28h-4.26zm-34.71 9a2 2 0 0 1 .08-.4h4.23v-4.29h4.34v-4.35h8.68a3.65 3.65 0 0 1 .07.46v3.25.47a4.09 4.09 0 0 0 .46 0h3.22l.44.06.06.09v4.28h4.3v8.67h-4.3v4.28a2.31 2.31 0 0 1 -.43.08h-3.83v.47 3.39a2.14 2.14 0 0 1 -.07.43h-8.54a3.49 3.49 0 0 1 -.07-.43v-3.39c0-.13 0-.27 0-.44h-.43-3.5a2 2 0 0 1 -.43-.08c0-1.43 0-2.85 0-4.28h-4.26a2.79 2.79 0 0 1 -.07-.4z"/></g></g><g fill="#b3b3b3" opacity=".4"><path d="m1775.91 313.3-.7 4.36h-165.85v4.8l-4.89.33c-.09 1.59-.16 3-.25 4.6l-4.67.27c-.07 1.56-.13 3-.21 4.71h-9.54c-.09 1.7-.16 3.15-.24 4.78h-19.22v-4.56l4.63-.24c.08-1.56.16-3 .24-4.64l4.58-.28v-9.58h-38.79c-.23-1.68-.43-3.09-.62-4.51a12.25 12.25 0 0 1 2.15-.37q22.71 0 45.42 0c.47 0 1 .07 1.55.12v9.4l-4.53.27v4.69h9.48c.06-1.45.13-2.89.21-4.63l4.68-.25.24-4.63 4.72-.22v-4.62c1.1-.05 2-.13 2.84-.13q83 0 165.88 0a21.88 21.88 0 0 1 2.9.36z"/><path d="m1540.65 259.33.22-4.85h234.44v4.66h-231.51c-1.07 0-2.14.07-3.21.12z"/><path d="m1779.92 264.44 5.08-.52v43.94h-4.61v-2.62q0-19 0-38a19.7 19.7 0 0 0 -.41-2.83z"/><path d="m1535.47 308.37-4.23-.57v-43.56h4.44v-.05c.07.81.21 1.62.21 2.43q0 19.58 0 39.15a18.52 18.52 0 0 1 -.38 2.63z"/><path d="m1535.68 264.24.39-4.92h4.59l-.07-.06v4.56l-5 .36z"/><path d="m1535.45 308.4 5.4-.44c-.17 2.06-.31 3.73-.45 5.39l-4.24-.67c-.23-1.41-.46-2.86-.7-4.3z"/><path d="m1775.94 313.34c-.17-1.65-.34-3.31-.53-5.12h4.79v4.42l-4.3.66z"/><path d="m1780 264.41-4.31-.67v-4.35h4.81c-.18 1.74-.36 3.4-.53 5.05z"/><path d="m1568.21 294.1v-2.36h-2.36v-2.36h-2.36v-7.09h2.36v-2.36h2.36v-2.37h9.46v2.37h2.33v2.36h-4.73v-2.36h-4.72v2.36h-2.37v7.09h2.37v2.36h4.72v-2.36h4.73v2.36h-2.36v2.36z"/><path d="m1584.75 294.1v-2.36h-2.36v-11.81h2.36v-2.37h11.82v2.37h2.36v11.81h-2.36v2.36zm2.37-2.36h7.08v-11.81h-7.08z"/><path d="m1601.29 294.1v-16.54h11.82v2.37h2.36v2.36h2.36v7.09h-2.36v2.36h-2.36v2.36zm4.73-2.36h4.72v-2.36h2.37v-7.09h-2.37v-2.36h-4.74z"/><path d="m1620.19 294.1v-16.54h16.54v2.37h-11.81v4.72h9.45v2.35h-9.45v4.73h11.81v2.36z"/><path d="m1648.55 284.65v-2.36h16.54v2.36zm0 4.73v-2.38h16.54v2.37z"/><path d="m1679.26 294.1v-16.54h4.74v14.18h9.45v2.36z"/><path d="m1698.17 294.1v-2.36h-2.37v-11.81h2.37v-2.37h11.83v2.37h2.36v11.81h-2.36v2.36zm2.36-2.36h7.09v-11.81h-7.09z"/><path d="m1721.79 294.1v-2.36h-2.36v-2.36h-2.36v-2.38h-2.36v-9.45h4.72v7.09h2.36v2.36h2.37v-2.36h2.36v-7.09h4.72v9.45h-2.36v2.37h-2.36v2.36h-2.36v2.36z"/><path d="m1733.61 294.1v-16.54h16.54v2.37h-11.82v4.72h9.45v2.35h-9.45v4.73h11.82v2.36z"/></g><g opacity=".4"><path d="m1807.68 172.6h-43v-58.22h43v15.77.61a3.46 3.46 0 0 0 .53.09h3.12v3.72h-3.73v3.77h-3.79v-20.16h-35.38v50.59h35.38v-11.29a1.88 1.88 0 0 0 -.45-.12c-1.1 0-2.19 0-3.29 0v-3.77h3.93v-3.76h3.75v3.8 18.37c-.03.19-.06.39-.07.6z" fill="#b3b3b3"/><path d="m1822.92 130.85v7.51h-3.8q0-3.75 0-7.5z" fill="#666"/><path d="m1822.92 130.85h-3.77v-.14h3.75z" fill="#969696"/><path d="m1803.91 157.48v11.29h-35.38v-50.59h35.38v20.18c-1.07 0-2.15 0-3.22 0a2.94 2.94 0 0 0 -.58.1 5 5 0 0 0 -.06.54v3.09c-1 0-2.1 0-3.16 0a2.9 2.9 0 0 0 -.57.12v3.79h-3.73a2.93 2.93 0 0 0 -.13.57v3.16h-.73l-2.92.07a3.26 3.26 0 0 0 -.09.53v3.27h-3.64l-.09.09v7.51h-11.36v3.8h22.71v-3.79h3.75a2.19 2.19 0 0 0 .12-.49c0-1.08 0-2.16 0-3.24zm-30.32-34.24v3.76h25.24v-3.75zm25.26 12.61v-3.72h-25.27v3.72z" fill="#ccc"/><path d="m1807.7 149.83h-3.7v3.76h-3.78v3.77l-3.86.07h-3.79v-3.93-3.65h3.75v-3.85h3.88v-3.76h3.65l.09-.09v-3.64-.12h3.78v-3.77h7.63v3.9 3.62l-.11.09h-3.65v3.77a.09.09 0 0 0 0 .06l-.1-.05h-3.68v3.71a.08.08 0 0 0 0 .1.06.06 0 0 0 -.11.01z" fill="#808080"/><path d="m1815.29 142.11c0-1.21 0-2.41 0-3.62h3.72v3.63c-.62 0-1.23 0-1.85 0s-1.11 0-1.66.08h-.1-.13z" fill="#666"/><path d="m1819 142.11c0-1.21 0-2.42 0-3.63h.13v3.24a2.19 2.19 0 0 1 -.12.49.28.28 0 0 0 -.01-.1z" fill="#b3b3b3"/><path d="m1819 130.81h.1v7.5h-3.72v-3.77h-3.79v-3.74h.62z" fill="#e6e6e6"/><path d="m1796.3 161.22v3.78h-22.71v-3.79h11.41v-7.51l.09-.09h3.64v.61 6.37.65h7.57z" fill="#666"/><path d="m1773.59 123.24h25.24v3.76h-25.24z" fill="#b3b3b3"/><path d="m1798.85 135.85h-25.27v-3.72h25.27z" fill="#b3b3b3"/><path d="m1785 153.62-.09.09z" fill="#1f1202"/><path d="m1796.33 157.58v3.65h-7.58v-.65c0-2.13 0-4.25 0-6.37 0-.2 0-.41 0-.61h.12 3.64a.14.14 0 0 0 .09 0v3.81h3.79z" fill="#e6e6e6"/><g fill="#666"><path d="m1792.54 149.85v-.13-3.62h3.73v3.76z"/><path d="m1815.28 146h-3.2a5.35 5.35 0 0 0 -.55 0v-3.8h3.65.12z"/><path d="m1800.05 142.21h.13v3.79h-3.76v-3.73z"/><path d="m1792.44 153.58h-3.64v-3.73h3.75v3.65z"/><path d="m1800.16 142.23c0-1.25 0-2.5 0-3.76h3.72v3.64l-.09.09z"/><path d="m1811.45 146v3.68h-3.65v-3.68z"/><path d="m1796.33 157.58v-.16l3.86-.07-.09.11v3.64h-3.61c0-1 0-2 0-3a3.35 3.35 0 0 0 -.16-.52z"/></g><path d="m1815.3 142.23h-.12l.11-.09z" fill="#e68a0f"/><path d="m1792.44 153.58.09-.09v.12a.14.14 0 0 1 -.09-.03z" fill="#1f1202"/><path d="m1803.81 142.2.09-.09z" fill="#1f1202"/><path d="m1819 130.81h-6.88c-.21 0-.41 0-.62 0v-.13-3.62h7.5z" fill="#666"/></g><g opacity=".8"><path d="m1670.76 490.58h-4.63c0-.18 0-.36 0-.54v-45.81c0-.14 0-.29 0-.44h4.63z" fill="#808080" opacity=".5"/><path d="m1670.76 443.79h-4.63a6.23 6.23 0 0 0 -.09.74v45 .44c0 .39-.14.53-.52.52-1 0-2 0-3 0h-75a7.35 7.35 0 0 1 -.79-.09h78.27a3.38 3.38 0 0 0 .45 0 .49.49 0 0 0 .49-.52v-45.24c0-.14 0-.27 0-.4 0-.33-.13-.45-.45-.45h-3.49c-.37 0-.51.15-.48.5v.45 40.39a6.43 6.43 0 0 1 -.08.74v-41.5c0-.66 0-.67-.66-.67h-8.68v-.11-4.59h5 8.32c.74 0 .74 0 .74.72v3.38c0 .6 0 .6.63.61h4z" fill="#b3b3b3" opacity=".5"/><path d="m1661.42 485.87a6.43 6.43 0 0 0 .08-.74v-40.39c0-.15 0-.3 0-.45 0-.35.11-.51.48-.5h3.52c.32 0 .47.12.45.45v.4 45.23a.49.49 0 0 1 -.49.52 3.38 3.38 0 0 1 -.45 0h-78.35c0-.27-.08-.55-.08-.83v-44.9a2.08 2.08 0 0 0 0-.35c0-.38.13-.53.52-.52h3.42c.58 0 .6 0 .6.61v.44q0 20.15 0 40.29a6.43 6.43 0 0 0 .08.74h32c.72 0 .72 0 .72-.75v-40.45c0-.17 0-.33 0-.49s.12-.4.4-.4h3.91c.29 0 .41.13.4.41s0 .33 0 .49v40.38.31c0 .38.12.52.51.52z" fill="#b3b3b3" opacity=".5"/><path d="m1666.13 490.58v4.05c0 .65 0 .65-.64.65h-31.49c-.63 0-.63 0-.63.64v4h-14c0-.19 0-.36 0-.54 0-1.21 0-2.43 0-3.64 0-.33-.09-.47-.43-.44a2.67 2.67 0 0 1 -.4 0h-31.31c-.64 0-.64 0-.64-.65 0-1.35 0-2.7 0-4.05h.09.67 78.89z" fill="#808080" opacity=".5"/><path d="m1586.49 490.58c-1.39 0-2.79 0-4.18 0-.44 0-.54-.14-.54-.55 0-7.45 0-14.91 0-22.36q0-11.94 0-23.87h4.52a7.77 7.77 0 0 1 .08.83q0 22.47 0 44.93c0 .25 0 .5.07.74v.29z" fill="#808080" opacity=".5"/><path d="m1623.94 439.08v4.53h-36.73c-.61 0-.63 0-.63-.62 0-1.08 0-2.16 0-3.25 0-.66 0-.66.67-.66z" fill="#b3b3b3" opacity=".5"/><path d="m1652.07 471.81h-4.71v-25.25c0-.2.07-.41.07-.61 0-1.29 0-2.58 0-3.88 0-.36.1-.52.45-.51h4.17v5 25.25z" fill="#666" opacity=".5"/><path d="m1647.34 443.71h-18.15c-.53 0-.56-.06-.55-.59 0-1.16 0-2.31 0-3.47 0-.53.07-.65.57-.65h17.79.4v4.59z" fill="#b3b3b3" opacity=".5"/><path d="m1647.35 448.41v4.72h-13.16c-.89 0-.89 0-.89-.91v-3.16c0-.62 0-.64.66-.64z" fill="#b3b3b3" opacity=".5"/><path d="m1647.35 457.76v4.72h-13.43c-.61 0-.62 0-.62-.62v-3.51c0-.56.07-.6.63-.55h.71 11.36c.47.03.91-.02 1.35-.04z" fill="#b3b3b3" opacity=".5"/><path d="m1647.35 467.18v4.63h-1.28-12.07c-.69.05-.69.05-.69-.65s0-1.6 0-2.4c0-.37 0-.74 0-1.11s.11-.52.48-.5.77 0 1.16 0z" fill="#b3b3b3" opacity=".5"/><path d="m1647.37 446.15q0-3.57 0-7.14h4.67v7.14a1.73 1.73 0 0 1 -.42.14h-3.85a2.3 2.3 0 0 1 -.4-.14z" fill="#666" opacity=".5"/><path d="m1652.08 453.13v-4.72h4.09c.42 0 .57.14.56.56v3.64c0 .38-.13.53-.52.52z" fill="#b3b3b3" opacity=".5"/><path d="m1652.08 462.48v-4.72h4.26c.27 0 .38.1.38.36v3.95c0 .37-.23.39-.5.39z" fill="#b3b3b3" opacity=".5"/><path d="m1652.07 471.81v-4.63h2.66 1.55c.3 0 .42.12.42.42v3.77c0 .36-.16.46-.48.46h-2.93z" fill="#b3b3b3" opacity=".5"/><path d="m1623.94 439.08h-36.69c-.67 0-.67 0-.67.66v3.25c0 .6 0 .62.63.62h36.73a4.69 4.69 0 0 1 -.64.09h-31.3c-.79 0-.79 0-.79.76v41.4a6.43 6.43 0 0 1 -.08-.74q0-20.14 0-40.29v-.44c0-.58 0-.61-.6-.61h-3.42c-.39 0-.55.14-.52.52a2.08 2.08 0 0 1 0 .35v44.91c0 .28.06.56.08.83l-.09.16h-.09v-.29c0-.16 0-.32 0-.48q0-17.94 0-35.88c0-3.38 0-6.76 0-10.14v-.1c0-1.41 0-2.82 0-4.23 0-.36.13-.51.5-.49s.68 0 1 0h35.22a6.06 6.06 0 0 1 .73.14z" fill="#b3b3b3" opacity=".5"/><path d="m1586.49 443.7v.1h-4.69a2.59 2.59 0 0 1 .54-.11z" fill="#808080" opacity=".5"/><path d="m1586.57 490.56.09-.16a7.35 7.35 0 0 0 .79.09h75 3c.38 0 .56-.13.52-.52 0-.15 0-.29 0-.44v-45a6.23 6.23 0 0 1 .09-.74v.44 45.82.54h-78.89z" fill="#b5b5b5" opacity=".5"/><g fill="#b3b3b3"><path d="m1607.62 448.42h11c.64 0 .66 0 .66.64v3.47c0 .55 0 .6-.57.6h-22.37c-.41 0-.55-.13-.54-.53 0-1.21 0-2.41 0-3.61 0-.55 0-.57.58-.57z" opacity=".5"/><path d="m1607.53 481.23h-11.07c-.62 0-.62 0-.63-.62 0-1.18 0-2.37 0-3.55 0-.41.13-.54.54-.54h22.41c.41 0 .54.13.54.54v3.51c0 .6-.07.66-.66.66z" opacity=".5"/><path d="m1607.58 462.48h-11.12c-.62 0-.62 0-.63-.62 0-1.17 0-2.34 0-3.51 0-.4.07-.63.55-.53a3.18 3.18 0 0 0 .62 0h20.94a4.68 4.68 0 0 0 .84 0c.39-.06.52.12.52.46v1.87s0 1.25 0 1.87c0 .36-.13.49-.5.49h-11.24z" opacity=".5"/><path d="m1607.59 467.18h11c.63 0 .69.05.7.68v3.24c0 .71 0 .73-.71.73h-18.81q-1.71 0-3.42.06c-.42 0-.55-.15-.54-.55 0-1.17 0-2.34 0-3.51 0-.65 0-.65.64-.65z" opacity=".5"/><path d="m1645 481.23h-11c-.73 0-.73 0-.73-.75v-3.33c0-.62 0-.62.62-.62h21.62.75s.42.13.42.43v4c0 .11-.15.25-.26.31a1.07 1.07 0 0 1 -.4 0z" opacity=".5"/></g><path d="m1586.31 443.8h.17v10.14q0 17.94 0 35.88v.48c0-.24-.07-.49-.07-.74q0-22.47 0-44.93a7.77 7.77 0 0 0 -.1-.83z" fill="#555" opacity=".5"/></g><g opacity=".4"><path d="m314.37 677.48a2.3 2.3 0 0 1 -1.07-2.2q0-23.09 0-46.17c0-1.76.47-2.22 2.24-2.22h27.18c1.74 0 2.23.49 2.23 2.25v7.21h7.18c1.81 0 2.3.49 2.3 2.3v27.08c0 1.79-.5 2.28-2.33 2.28h-7.1v5.66 1.78a2.35 2.35 0 0 1 -1 2zm27.32-37.88h-15.64v25.15h15.64zm-25.14 0v6.2h6.17v-6.2zm15.63-3.27v-6.19h-6.18v6.19zm-15.64 0h6.18v-6.16h-6.18zm6.19 38v-6.2h-6.15v6.2zm3.32-6.22v6.19h6.16v-6.19zm19-28.47v6.17h6.18v-6.17zm-22.27 19h-6.21v6.16h6.21zm22.22 6.11h6.16v-6.16h-6.16zm-22.3-9.5v-6.14h-6.16v6.14zm28.49-6.14h-6.15v6.15h6.15zm-15.67-12.84h6.15v-6.15h-6.15zm6.15 38v-6.17h-6.13v6.15z" fill="#b3b3b3"/><path d="m200.29 658.56h-6.86c-2.32 0-2.64-.33-2.64-2.69v-6.74h-6.28v26c0 1.92-.44 2.38-2.32 2.38h-8.4c-1.39 0-2-.57-2-2q0-23.31 0-46.6c0-1.46.57-2 2-2h8.61c1.47 0 2 .54 2 2v7.45h7.16c1.87 0 2.33.46 2.33 2.37v7h6.29v-16.56c0-1.79.46-2.25 2.2-2.26h8.4c1.49 0 2.05.53 2.05 2v46.6c0 1.46-.55 2-2.05 2h-8.5c-1.61 0-2.1-.5-2.1-2.15 0-5.21 0-10.42 0-15.64zm3.25-28.45v6.2h6.14v-6.2zm6.2 38h-6.19v6.13h6.19zm-6.21-9.5v6.18h6.16v-6.18zm-22.29 6.2v-6.17h-6.17v6.17zm-6.14 3.29v6.16h6.15v-6.16zm0-31.77h6.16v-6.18h-6.16zm0 3.3v6.16h6.18v-6.16zm34.65 6.18v-6.16h-6.18v6.16zm-25.13-6.19v6.15h6.12v-6.15zm25.11 15.67v-6.16h-6.15v6.16zm-9.46-6.14h-6.15v6.13h6.15zm-19 0h-6.2v6.12h6.2z" fill="#b3b3b3"/><g fill="#666"><path d="m252.46 638c-.27-.46-.43-1.15-.83-1.34a1.24 1.24 0 0 1 -.76-1.38c0-1.7 0-3.4 0-5.16h6.28v5.87c0 .15-.22.3-.34.45l-1.23 1.56z"/><path d="m305.41 632.35a1.84 1.84 0 0 0 -1.57 2.21c.05.55 0 1.1 0 1.72h-6.23v-6.18h7.79z"/><path d="m297.62 645.77v-6.18h6.16v6.18z"/><path d="m303.78 674.25h-6.15v-6.19h6.15z"/><path d="m294.33 630.13v6.16h-6.16v-6.16z"/><path d="m275.32 636.3h-6.17v-6.15h6.17z"/><path d="m275.33 639.61v6.15h-6.19v-6.15z"/><path d="m288.14 664.74v-6.13h6.18v6.13z"/><path d="m275.32 664.76h-6.16v-6.15h6.16z"/><path d="m275.31 674.25h-6.15v-6.16h6.15z"/><path d="m269.17 649.1h6.12v6.15h-6.12z"/><path d="m294.33 649.13v6.09h-6.18v-6.09z"/><path d="m297.6 655.25v-6.11h6.19v6.11z"/><path d="m278.68 630.12h6.12v6.16h-6.12z"/><path d="m278.67 649.12h6.13v6.13h-6.13z"/><path d="m316.55 639.58h6.17v6.2h-6.17z"/><path d="m332.18 636.31h-6.18v-6.19h6.14z"/><path d="m316.54 636.3v-6.16h6.18v6.16z"/><path d="m322.73 674.28h-6.15v-6.2h6.15z"/><path d="m326.05 668.06h6.16v6.19h-6.16z"/><path d="m345 639.59h6.18v6.17h-6.18z"/><path d="m322.75 658.59v6.16h-6.21v-6.16z"/><path d="m345 664.75v-6.16h6.16v6.16z"/><path d="m322.71 655.25h-6.16v-6.14h6.16z"/><path d="m351.2 649.11v6.15h-6.15v-6.15z"/><path d="m335.53 636.27v-6.15h6.15v6.15z"/><path d="m341.68 674.25h-6.13v-6.15h6.13z"/><path d="m228.64 636.33h-6.18v-6.16h6.18z"/><path d="m232 630.13h6.13v6.2h-6.13z"/><path d="m228.63 674.28h-6.15v-6.15h6.15z"/><path d="m232 668.09h6.16v6.16h-6.16z"/><path d="m228.67 658.66v6.12h-6.2v-6.12z"/><path d="m222.44 645.78v-6.13h6.2v6.13z"/><path d="m241.43 636.3v-6.16h6.15v6.16z"/><path d="m250.94 668.1h6.18v6.15h-6.18z"/><path d="m238.11 655.29h-6.11v-6.12h6.14z"/><path d="m247.6 668.13v6.13h-6.12v-6.13z"/><path d="m222.47 655.25v-6.1h6.16v6.1z"/><path d="m241.47 649.15h6.12v6.12h-6.12z"/><path d="m203.54 630.11h6.14v6.2h-6.14z"/><path d="m209.74 668.11v6.13h-6.19v-6.13z"/><path d="m203.53 658.61h6.16v6.18h-6.16z"/><path d="m181.24 664.81h-6.17v-6.17h6.17z"/><path d="m175.1 668.1h6.15v6.16h-6.15z"/><path d="m175.06 636.33v-6.18h6.16v6.18z"/><path d="m175.06 639.63h6.18v6.16h-6.18z"/><path d="m209.71 645.81h-6.18v-6.16h6.18z"/><path d="m184.58 639.62h6.12v6.15h-6.12z"/><path d="m209.69 655.29h-6.15v-6.16h6.15z"/><path d="m200.23 649.15v6.13h-6.15v-6.13z"/><path d="m181.26 649.14v6.12h-6.2v-6.12z"/></g><path d="m258.06 664.86h-26.06v-6.3h16.75c1.62 0 2.15-.53 2.16-2.14 0-2.76 0-5.52 0-8.28 0-1.8-.49-2.28-2.33-2.28h-16.58v-6.28h18.42a5 5 0 0 0 .59 0h.05 6.47c.4 0 .87 0 1.45-.06 1.05-.07 1.42-.74 1.42-2.28v-8.18c0-1.62-.53-2.15-2.13-2.15h-36.97c-1.54 0-2.06.53-2.07 2.08q0 23.24 0 46.48c0 1.48.53 2 2 2h37c1.53 0 2.07-.55 2.08-2.09v-8.28c.05-1.79-.41-2.24-2.25-2.24zm-16.59-15.71h6.12v6.12h-6.12zm-9.5 0h6.14v6.12h-6.11zm18.91-19h6.28v5.87c0 .09-.09.19-.19.29h-5.85a1.47 1.47 0 0 1 -.24-1c.02-1.71 0-3.41 0-5.17zm-9.45 0h6.15v6.16h-6.15zm-9.47 0h6.13v6.2h-6.09zm-9.5 0h6.19v6.16h-6.19zm0 9.48h6.2v6.13h-6.2zm0 9.5h6.16v6.1h-6.16zm6.16 25.13h-6.15v-6.15h6.15zm0-9.5h-6.2v-6.12h6.2zm9.44 9.47h-6.06v-6.16h6.16zm9.49 0h-6.12v-6.13h6.12zm9.52 0h-6.18v-6.13h6.18z" fill="#b3b3b3"/><path d="m307 667.11c0-1.85-.44-2.29-2.26-2.3h-7.15v-6.28h7.15c1.76 0 2.26-.49 2.26-2.22v-21.69c0-.13 0-.24 0-.35v-5.79a1.34 1.34 0 0 0 0-.2c-.12-.91-.8-1.38-2-1.39h-36.83c-1.8 0-2.27.47-2.27 2.31q0 23 0 46a2.44 2.44 0 0 0 1 2.32h10.71a2.8 2.8 0 0 0 1-2.46c0-5.45 0-10.9 0-16.42h6.28v7c0 2 .44 2.4 2.4 2.4h7.09v7.31a2.12 2.12 0 0 0 1.12 2.16h10.5a2.29 2.29 0 0 0 1.07-2.19c-.07-2.76-.07-5.48-.07-8.21zm-37.88-37h6.17v6.15h-6.17zm6.16 44.1h-6.15v-6.16h6.15zm0-9.49h-6.16v-6.15h6.16zm-6.15-9.51v-6.11h6.12v6.15zm6.16-9.49h-6.19v-6.15h6.19zm3.35-15.64h6.12v6.16h-6.12zm6.12 25.13h-6.13v-6.13h6.13zm-6.16-9.47v-6.19h15.7v6.19zm15.68 19h-6.18v-6.13h6.18zm0-9.52h-6.18v-6.09h6.18zm0-18.93h-6.16v-6.16h6.16zm3.29-6.19h6.23v3.9a3 3 0 0 0 0 .6v.31 1.41h-6.23zm6.16 9.49v6.18h-6.16v-6.18zm-6.18 9.55h6.19v6.11h-6.14zm6.18 25.11h-6.15v-6.19h6.15z" fill="#b3b3b3"/></g><g opacity=".25"><path d="m116.65 795.11h5.41v5.41h-5.41z" fill="#b3b3b3"/><path d="m122.07 795.11h5.41v5.41h-5.41z" fill="#b3b3b3"/><path d="m138.08 832.59v5.41h-5.37v5.38h-5.44v5.39h-10.41v-5.39h-5.44v-5.38h-5.37v-5.39h-5.44v-5.41h-5.44v-5.39h-5.44v-5.25h-5.42v-16.13h5.37v-5.32h5.41v-5.41h.02v-5.35h16.09v5.38h5.42v5.42h-5.42v-5.39h-16.06v5.35h-5.41v5.32h5.36v10.72h5.35v5.25h5.44v5.39h5.44v5.41h5.44v5.39h5.44v5.38h10.47v-5.38z" fill="#b3b3b3"/><path d="m138.11 827.2h5.41v5.41h-5.41z" fill="#b3b3b3"/><path d="m148.93 800.37v10.7h-5.41v-5.29h-5.31v-10.78h5.41v5.37z" fill="#b3b3b3"/><path d="m143.55 821.79h5.41v5.41h-5.41z" fill="#b3b3b3"/><path d="m159.81 795.11v21.45h-5.41v5.25h-5.41v-5.41h5.41v-21.29h-5.41v-5.35h-16.06v5.39h-5.42v-5.42h5.42v-5.38h16.08v5.35h5.39v5.41z" fill="#b3b3b3"/><path d="m95.09 795.11h5.41v-5.35h10.7v5.39h5.42v5.37h10.86v-5.37h5.45v-5.39h16.08v5.35h5.39v21.45h-5.41v5.25h-5.44v5.39h-5.44v5.41h-5.44v5.36h-10.51v-5.38h-5.4v-5.39h-5.44v-5.41h-5.44v-5.39h-5.44v-5.25h-5.35z" fill="#ccc"/><g fill="#b3b3b3"><path d="m132.67 832.59h5.41v5.41h-5.41z"/><path d="m138.11 827.2h5.41v5.41h-5.41z"/><path d="m121.86 843.36h5.41v5.41h-5.41z"/><path d="m127.29 837.97h5.41v5.41h-5.41z"/><path d="m143.55 821.79h5.41v5.41h-5.41z"/><path d="m122.07 795.11h5.41v5.41h-5.41z"/><path d="m127.51 789.73h5.41v5.41h-5.41z"/><path d="m148.99 816.4h5.41v5.41h-5.41z"/><path d="m154.4 811.15h5.41v5.41h-5.41z"/><path d="m154.4 805.84h5.41v5.41h-5.41z"/><path d="m154.4 800.43h5.41v5.41h-5.41z"/><path d="m154.4 795.11h5.41v5.41h-5.41z"/></g><path d="m138.21 800.37h5.41v5.41h-5.41z" fill="#666"/><path d="m138.21 795h5.41v5.41h-5.41z" fill="#666"/><path d="m143.52 800.37h5.41v5.41h-5.41z" fill="#666"/><path d="m143.52 805.66h5.41v5.41h-5.41z" fill="#666"/><path d="m148.99 789.7h5.41v5.41h-5.41z" fill="#b3b3b3"/><path d="m138.25 784.35h5.41v5.41h-5.41z" fill="#b3b3b3"/><path d="m132.92 784.35h5.41v5.41h-5.41z" fill="#b3b3b3"/><path d="m143.6 784.35h5.41v5.41h-5.41z" fill="#b3b3b3"/><path d="m106.05 832.59h5.41v5.41h-5.41z" fill="#b3b3b3"/><path d="m100.61 827.2h5.41v5.41h-5.41z" fill="#b3b3b3"/><path d="m116.86 843.36h5.41v5.41h-5.41z" fill="#b3b3b3"/><path d="m111.42 837.97h5.41v5.41h-5.41z" fill="#b3b3b3"/><path d="m95.17 821.79h5.41v5.41h-5.41z" fill="#b3b3b3"/><path d="m116.65 795.11h5.41v5.41h-5.41z" fill="#b3b3b3"/><path d="m111.2 789.73h5.41v5.41h-5.41z" fill="#b3b3b3"/><path d="m89.73 816.4h5.41v5.41h-5.41z" fill="#b3b3b3"/><path d="m111.44 832.59h5.41v5.41h-5.41z" fill="#999"/><path d="m106 827.2h5.41v5.41h-5.41z" fill="#999"/><path d="m116.81 837.97h5.41v5.41h-5.41z" fill="#999"/><path d="m100.55 821.79h5.41v5.41h-5.41z" fill="#999"/><path d="m95.12 816.4h5.41v5.41h-5.41z" fill="#999"/><path d="m84.31 811.15h5.41v5.41h-5.41z" fill="#b3b3b3"/><path d="m84.31 805.84h5.41v5.41h-5.41z" fill="#b3b3b3"/><path d="m84.31 800.43h5.41v5.41h-5.41z" fill="#b3b3b3"/><path d="m84.31 795.11h5.36v5.32h-5.36z" fill="#b3b3b3"/><path d="m89.73 795.11v5.41h-5.42v-.09h5.37v-5.32z" fill="#b3b3b3"/><path d="m89.73 789.7h5.36v5.41h-5.36z" fill="#b3b3b3"/><path d="m95.14 789.7v5.41h-5.41 5.36v-5.41z" fill="#b3b3b3"/><path d="m89.68 811.15h5.41v5.41h-5.41z" fill="#999"/><path d="m116.79 832.59h5.41v5.41h-5.41z" fill="#999"/><path d="m111.35 827.2h5.41v5.41h-5.41z" fill="#999"/><path d="m122.16 837.97h5.41v5.41h-5.41z" fill="#999"/><path d="m105.9 821.79h5.41v5.41h-5.41z" fill="#999"/><path d="m100.46 816.4h5.41v5.41h-5.41z" fill="#999"/><path d="m95.03 811.15h5.41v5.41h-5.41z" fill="#999"/><path d="m89.68 805.84h5.41v5.41h-5.41z" fill="#999"/><path d="m89.68 800.43h5.41v5.41h-5.41z" fill="#999"/><path d="m89.73 795.11h5.36v5.31h-5.36z" fill="#b3b3b3"/><path d="m89.73 795.11v5.32h5.36v.09h-5.41v-5.41h5.41z" fill="#999"/><path d="m95.14 789.76h5.36v5.35h-5.36z" fill="#b3b3b3"/><path d="m100.5 789.7v.06h-5.36v5.35h-.05v-5.41z" fill="#999"/><path d="m100.46 784.35h5.41v5.41h-5.41z" fill="#b3b3b3"/><path d="m105.79 784.35h5.41v5.41h-5.41z" fill="#b3b3b3"/><path d="m95.11 784.35h5.41v5.41h-5.41z" fill="#b3b3b3"/></g><g opacity=".8"><g fill="#b3b3b3"><path d="m1792 973.37v-4.9c.22 0 .43-.06.65-.06h28.35c.22 0 .44 0 .66.06v4.9z" opacity=".4"/><path d="m1773.73 950.22h-4.9v-29.68h4.89c0 .26 0 .53.06.79v4.12.81q0 11.54 0 23.08v.88z" opacity=".4"/><path d="m1792 902.3v-4.86h29.68v4.84c-.22 0-.44.06-.66.06h-28.38c-.22 0-.44 0-.66-.06z" opacity=".4"/><path d="m1839.91 920.54h4.86v29.68h-4.84c0-.29-.06-.58-.06-.88v-23.08c0-.27 0-.54 0-.81s0-.58 0-.88l.06-4z" opacity=".4"/><path d="m1783.68 907.34v-5h8.3v5l-3.27.05h-5z" opacity=".4"/><path d="m1821.66 902.3h8.3v5h-5l-3.27-.05v-5z" opacity=".4"/><path d="m1773.73 920.54v-8.29h5v5 3.26h-5z" opacity=".4"/><path d="m1834.87 912.25h5v8.29h-5l-.05-3.26v-5z" opacity=".4"/><path d="m1839.91 950.22v8.3h-5v-8.3z" opacity=".4"/><path d="m1830 963.43v5h-8.3v-5.05h8.3z" opacity=".4"/><path d="m1778.78 912.25v-4.91h4.88v4.91h-4.89z" opacity=".4"/><path d="m1830 907.34h4.91v4.88h-4.91v-4.91z" opacity=".4"/><path d="m1834.87 958.52v4.91h-4.87v-4.89h4.9z" opacity=".4"/><path d="m1792 968.47h-8.31v-5h8.31v5.05z" opacity=".4"/><path d="m1773.8 950.54-.07-.32h5v8.3l-4.89-.06c0-1.79 0-3.57 0-5.36.03-.86-.02-1.71-.04-2.56z" opacity=".4"/><path d="m1783.67 963.43h-4.9v-4.89h4.89v4.89z" opacity=".4"/></g><path d="m1773.8 950.54c0 .85.07 1.7.07 2.56v5.36c0-.06-.11-.11-.11-.17z" fill="#060605" opacity=".4"/><path d="m1783.66 963.43v-4.89h-4.89v-8.32h-5c0-.29 0-.58 0-.88q0-11.54 0-23.08c0-.27 0-.54 0-.81h4.92v-4.94c0-1.09 0-2.17 0-3.26h4.88v-5h5v-4.89l3.27-.05h20.62 9.12l3.27.05v4.89h5v5h4.89c0 1.09 0 2.17.05 3.26v4.94h4.91v.81 23.08c0 .3 0 .59.06.88h-5v8.32h-4.76v4.89h-8.31v5.05c-.22 0-.44-.06-.66-.06h-28.38c-.22 0-.43 0-.65.06v-5.05zm1.61-39.65h10v9.9h4.91v-9.88h-4.93v-4.89h-9.94v4.86h-4.86v9.89h4.91c0-2.43 0-4.8 0-7.17-.03-.89-.07-1.8-.09-2.71zm43.08 0v-4.89h-9.94v4.9h-4.94v9.88h4.92v-9.87h10c0 .27-.06.54-.06.8v9.12h4.89v-9.9zm-13.35 39.62a4.78 4.78 0 0 0 .13-.74c0-1.37 0-2.74 0-4.16h5v-4.92h1.63l3.22-.09a3.53 3.53 0 0 0 .1-.55q0-6.82 0-13.65c0-.19 0-.39 0-.57h-36.31v.42 13.86a2.08 2.08 0 0 0 .11.48 6.9 6.9 0 0 0 .78.09h4.11v5h4.9v4a6.79 6.79 0 0 0 .12.89 2.2 2.2 0 0 0 .37.05h15.59a2.23 2.23 0 0 0 .25-.11z" fill="#999" opacity=".4"/><path d="m1778.74 920.51v4.94h-4.92c0-1.37 0-2.74 0-4.12 0-.26 0-.53-.06-.79z" fill="#ccc" opacity=".4"/><path d="m1821.69 907.3h-9.12-20.62c0-1.67 0-3.35 0-5 .22 0 .44.06.66.06h28.39c.22 0 .44 0 .66-.06z" fill="#ccc" opacity=".4"/><path d="m1839.82 925.45h-4.91v-4.94h5l-.06 4c.01.36-.01.65-.03.94z" fill="#ccc" opacity=".4"/><path d="m1788.68 907.35v4.89h-5v-4.91z" fill="#ccc" opacity=".4"/><path d="m1830 912.24h-5v-4.89h5z" fill="#ccc" opacity=".4"/><path d="m1783.67 912.23v5h-4.88c0-1.68 0-3.35 0-5z" fill="#ccc" opacity=".4"/><path d="m1834.86 917.25h-4.86v-5h4.91z" fill="#ccc" opacity=".4"/><path d="m1788.74 953.48a2.08 2.08 0 0 1 -.11-.48v-13.87c0-.12 0-.24 0-.42h36.37v.57q0 6.83 0 13.65a3.53 3.53 0 0 1 -.1.55h-4.83q0-4.14 0-8.29v-1.5h-26.42v2q0 3.88 0 7.77z" fill="#b3b3b3" opacity=".4"/><path d="m1815 963.4a2.23 2.23 0 0 1 -.36.05h-15.64a2.2 2.2 0 0 1 -.37-.05v-4.85h.8 13.57 2z" fill="#ccc" opacity=".4"/><path d="m1795.23 923.82h4.93v9.88h-4.91v-9.9z" fill="#ccc" opacity=".4"/><path d="m1818.39 923.8v9.89h-4.92v-9.88h4.92z" fill="#ccc" opacity=".4"/><path d="m1828.35 923.8h4.85v9.9h-4.89v-9.12c0-.26 0-.53.06-.8z" fill="#ccc" opacity=".4"/><path d="m1818.41 923.81v-4.9h9.94v4.89h-10z" fill="#ccc" opacity=".4"/><path d="m1785.29 923.79v-4.86h9.94v4.89h-10z" fill="#ccc" opacity=".4"/><path d="m1785.27 923.78c0 .91.06 1.82.06 2.73v7.17h-4.91v-9.89h4.84z" fill="#ccc" opacity=".4"/><path d="m1798.66 958.55v4.85a6.79 6.79 0 0 1 -.12-.89c0-1.3 0-2.6 0-4h-4.9v-5h-4.11a6.9 6.9 0 0 1 -.78-.09h9.83v1.38c.02 1.29.05 2.52.08 3.75z" fill="#ccc" opacity=".4"/><path d="m1815 963.4c0-1.61 0-3.23 0-4.85v-5.07h9.92l-3.22.09c-.52 0-1 0-1.63 0v4.92h-5v4.16a4.78 4.78 0 0 1 -.07.75z" fill="#ccc" opacity=".4"/><path d="m1820.08 953.48h-5.08v5.07c-.66 0-1.33 0-2 0h-13.54c-.27 0-.54 0-.8 0 0-1.23-.06-2.46-.08-3.69 0-.41 0-.83 0-1.38h-5q0-3.88 0-7.77c0-.66 0-1.32 0-2h26.42v1.5q.06 4.14.08 8.27z" fill="#666" opacity=".4"/></g><g fill="#b3b3b3" opacity=".8"><path d="m310.41 918.95h6.58v3.29h-6.58z" opacity=".5"/><path d="m307.12 922.24h3.29v36.19h-3.29z" opacity=".5"/><path d="m316.99 922.24h3.29v29.61h-3.29z" opacity=".5"/><path d="m320.28 935.4h6.58v3.29h-6.58z" opacity=".5"/><path d="m326.86 938.69h3.29v13.16h-3.29z" opacity=".5"/><path d="m330.15 938.69h6.58v3.29h-6.58z" opacity=".5"/><path d="m336.73 941.98h6.58v3.29h-6.58z" opacity=".5"/><path d="m336.73 945.27h3.29v9.87h-3.29z" opacity=".5"/><path d="m343.3 945.27h3.29v3.29h-3.29z" opacity=".5"/><path d="m346.59 948.56h3.29v23.03h-3.29z" opacity=".5"/><path d="m300.54 951.85h3.29v3.29h-3.29z" opacity=".5"/><path d="m290.67 948.56h9.87v3.29h-9.87z" opacity=".5"/><path d="m290.67 951.85h3.29v6.58h-3.29z" opacity=".5"/><path d="m293.96 958.43h3.29v3.29h-3.29z" opacity=".5"/><path d="m297.25 961.72h3.29v3.29h-3.29z" opacity=".5"/><path d="m300.54 965.01h3.29v6.58h-3.29z" opacity=".5"/><path d="m303.83 971.59h3.29v6.58h-3.29z" opacity=".5"/><path d="m310.41 981.46h29.61v3.29h-29.61z" opacity=".5"/><path d="m343.3 971.59h3.29v6.58h-3.29z" opacity=".5"/><path d="m303.83 955.14h3.29v3.29h-3.29z" opacity=".5"/><path d="m307.12 978.17h3.29v3.29h-3.29z" opacity=".5"/><path d="m340.01 978.17h3.29v3.29h-3.29z" opacity=".5"/><path d="m289.88 912.82h9.87v3.29h-9.87z" opacity=".5"/><path d="m296.46 916.11h3.29v6.58h-3.29z" opacity=".5"/><path d="m293.17 916.11h3.29v3.29h-3.29z" opacity=".5"/><path d="m289.88 919.4h3.29v3.29h-3.29z" opacity=".5"/><path d="m283.3 925.98h3.29v3.29h-3.29z" opacity=".5"/><path d="m276.72 925.98h3.29v6.58h-3.29z" opacity=".5"/><path d="m280.01 929.27h3.29v3.29h-3.29z" opacity=".5"/><path d="m276.72 932.56h9.87v3.29h-9.87z" opacity=".5"/></g><g opacity=".4"><path d="m1635.11 806.11v-1.44h-2.88v-5.75h2.88v-2.92h2.89v-5.75h-2.88v-2.88h-2.88v-2.87h-2.87v-5.76h2.87v-2.87h8.63v2.87h5.75v2.88h2.88v2.88h8.63v-2.88h5.75v-2.88h8.63v-2.87h34.49v2.87h5.75v2.88h5.75v2.88h2.88v2.87h2.87v8.63h-2.87v2.88h-2.88v2.87h-5.75v2.88h-8.63v2.88h-28.76v-2.88h-5.76v-2.88h-5.75v-2.87h-11.5v2.87h-2.88v2.88h-2.88v2.88h-11.5zm60.4-2.88v-1.44h2.88v-17.25h-2.88v-5.76h-5.75v8.63h2.87v2.88h2.88v5.71h-2.88v-2.88h-8.63v2.88h-2.88v2.88h5.75v-2.88h5.75v5.75h-2.87v2.88h5.75zm-20.13-7.23v-5.75h2.87v-8.63h2.88v2.88h2.87v-2.88h2.87v-2.88h-2.87v2.88h-2.88v-2.88h-8.63v2.88h-2.88v20.13h5.76zm-23-2.88v-5.75h-2.88v-2.87h-2.88v5.75h2.88v2.87h-2.88v5.76h5.76zm11.5-7.19v-1.43h2.88v-2.88h-2.88v2.88h-2.88v2.87h2.87zm-25.88-5.71v-1.44h-2.88v2.88h2.88zm66.15 0v-1.44h-2.88v2.88h2.88zm-120.8-23v-1.44h-2.88v-11.5h2.88v-2.88h2.87v-5.75h-2.87v-2.88h-2.88v-2.87h-2.88v-8.63h2.88v-2.88h11.53v2.88h5.75v2.87h2.87v2.86h14.38v-2.88h11.5v-2.87h5.75v-2.88h37.39v2.88h8.63v2.87h5.73v2.88h5.75v2.88h2.87v2.87h2.88v8.63h-2.88v2.88h-2.87v2.87h-5.75v2.87h-5.76v2.88h-8.63v2.87h-37.39v-2.85h-5.75v-2.9h-11.47v-2.88h-8.63v2.88h-2.88v2.88h-8.63v2.87h-5.75v2.88h-5.75zm74.78-5.75v-1.47h2.87v-5.75h-5.76v-5.75h2.88v-2.88h2.88v-5.75h-2.88v-8.63h-8.63v11.5h2.88v5.76h-2.88v2.87h-5.75v2.88h-5.74v2.87h8.62v-2.87h2.88v2.87h2.88v2.88h-2.88v2.88h8.63zm-5.75-5.75v-1.44h2.87v2.87h-2.87zm-48.9 2.87v-1.44h2.88v-17.26h-5.76v-2.89h-2.87v8.63h2.87v5.75h-2.87v5.75h2.87v2.87h2.88zm28.76-5.75v-7.19h2.88v-11.52h2.88v-2.87h-2.88v2.87h-8.63v25.87h5.75zm-20.13-11.5v-1.44h-2.88v2.87h2.88zm5.75 0v-1.44h2.88v-2.9h-2.88v2.88h-2.86v2.87h2.87zm66.16-2.88v-1.46h-2.88v2.88h2.86zm-20.14-2.88v-1.44h2.88v2.86h2.87v-2.88h-2.87v-2.87h-2.88v2.87h-2.88v2.88h2.87zm11.51 0v-1.44h-2.88v2.86h2.88zm-31.64-2.87v-1.44h-2.88v2.87h2.88z" fill="#b3b3b3"/><path d="m1635.11 806.11v-1.44h-2.88v-5.75h2.88v-2.92h2.89v-5.75h-2.88v-2.88h-2.88v-2.87h-2.87v-5.76h2.87v-2.87h8.63v2.87h5.75v2.88h2.88v2.88h8.63v-2.88h5.75v-2.88h8.63v-2.87h34.49v2.87h5.75v2.88h5.75v2.88h2.88v2.87h2.87v8.63h-2.87v2.88h-2.88v2.87h-5.75v2.88h-8.63v2.88h-28.76v-2.88h-5.76v-2.88h-5.75v-2.87h-11.5v2.87h-2.88v2.88h-2.88v2.88h-11.5zm43.14-13v-11.5h2.88v2.88h2.87v-2.88h2.87v8.63h2.88v2.87h-5.75v2.89h-2.88v2.88h5.75v-2.88h5.75v5.75h-2.87v2.88h5.75v-2.88h5.75v-17.21h-2.87v-5.76h-14.38v2.88h-2.88v-2.88h-8.63v2.88h-8.63v2.88h-2.86v2.87h2.87v-2.87h2.88v8.62h2.87v8.63h5.76v2.88h2.87zm14.38 0v-2.87h2.88v5.76h-2.88zm-43.14 7.2v-1.44h2.88v-2.87h2.87v-8.63h-5.75v-2.87h-2.88v-2.88h-2.87v8.63h2.87v2.87h-2.87v5.76h2.87v2.87h2.88zm17.26-2.88v-1.43h-2.88v2.88h2.88zm-28.75-17.21v-1.44h-2.88v2.88h2.88zm66.15 0v-1.44h-2.88v2.88h2.88zm-120.8-23v-1.44h-2.88v-11.5h2.88v-2.88h2.87v-5.75h-2.87v-2.88h-2.88v-2.87h-2.88v-8.63h2.88v-2.88h11.53v2.88h5.75v2.87h2.87v2.86h14.38v-2.88h11.5v-2.87h5.75v-2.88h37.39v2.88h8.63v2.87h5.73v2.88h5.75v2.88h2.87v2.87h2.88v8.63h-2.88v2.88h-2.87v2.87h-5.75v2.87h-5.76v2.88h-8.63v2.87h-37.39v-2.85h-5.75v-2.9h-11.47v-2.88h-8.63v2.88h-2.88v2.88h-8.63v2.87h-5.75v2.88h-5.75zm54.65-5.75v-1.47h-2.88v-11.5h2.88v-17.24h-5.76v2.87h-5.75v2.87h-2.88v8.63h2.88v2.88h-2.88v2.87h2.88v8.62h5.75v2.88h5.76zm20.13 0v-1.47h5.75v-5.75h-2.88v-8.63h2.87v-5.75h-2.87v-2.87h2.87v-2.88h2.88v2.88h2.87v-2.88h-2.87v-2.87h-2.88v2.87h-2.87v-2.87h-14.39v14.38h2.88v5.75h-5.75v2.88h-5.74v2.87h8.62v-2.87h2.88v2.87h2.88v2.87h-2.88v2.88h8.63zm-5.75-5.75v-1.44h2.87v-5.75h2.88v5.75h-2.88v2.87h-2.87zm-48.9 2.87v-1.44h2.88v-8.62h2.87v-5.76h2.88v-2.87h-11.51v-2.9h-5.75v8.63h2.88v5.75h-2.88v5.75h2.88v2.87h5.75zm14.38-17.25v-1.44h2.88v-2.9h-2.88v2.88h-2.86v2.87h2.87zm66.16-2.88v-1.46h-2.88v2.88h2.86zm-8.63-2.88v-1.44h-2.88v2.86h2.88zm-31.64-2.87v-1.44h-2.88v2.87h2.88z" fill="#b3b3b3"/><path d="m1635.11 806.11v-1.44h-2.88v-5.75h2.88v-2.92h2.89v-5.75h-2.88v-2.88h-2.88v-2.87h-2.87v-5.76h2.87v-2.87h8.63v2.87h5.75v2.88h2.88v2.88h8.63v-2.88h5.75v-2.88h8.63v-2.87h34.49v2.87h5.75v2.88h5.75v2.88h2.88v2.87h2.87v8.63h-2.87v2.88h-2.88v2.87h-5.75v2.88h-8.63v2.88h-28.76v-2.88h-5.76v-2.88h-5.75v-2.87h-11.5v2.87h-2.88v2.88h-2.88v2.88h-11.5zm8.63-2.88v-1.44h5.75v-2.87h2.88v-2.92h11.5v2.88h2.88v-5.76h2.87v8.63h5.76v2.88h11.5v-2.88h-8.63v-8.63h2.88v5.76h8.63v-2.88h2.87v5.75h-2.87v2.88h5.75v-2.88h2.88v2.88h5.75v-2.88h8.63v-2.87h5.75v-2.88h2.88v-8.63h-2.88v-2.87h-5.75v-2.88h-5.77v-2.88h-34.5v2.88h-8.63v2.88h-5.75v2.87h-8.63v-2.87h-2.88v-2.88h-5.75v-2.88h-5.75v2.88h-2.88v2.88h2.88v2.87h5.75v2.88h2.88v2.87h-2.88v5.76h-5.75v2.87h5.75v2.88h2.88zm48.89-10.07v-2.87h2.88v5.71h-2.88zm14.39-2.87v-2.88h5.75v5.75h-5.77zm-71.91-7.19v-1.44h2.89v2.88h-2.88zm-51.77-25.89v-1.44h-2.88v-11.5h2.88v-2.88h2.87v-5.75h-2.87v-2.88h-2.88v-2.87h-2.88v-8.63h2.88v-2.88h11.54v2.88h5.75v2.87h2.87v2.87h14.38v-2.88h11.5v-2.87h5.75v-2.88h37.39v2.88h8.63v2.87h5.73v2.88h5.75v2.88h2.87v2.87h2.88v8.63h-2.88v2.88h-2.87v2.87h-5.75v2.87h-5.76v2.88h-8.63v2.87h-37.39v-2.85h-5.75v-2.9h-11.47v-2.88h-8.63v2.88h-2.88v2.88h-8.63v2.87h-5.75v2.88h-5.75zm5.75-2.87v-1.44h5.75v-2.9h8.63v-2.88h2.88v-8.62h2.87v5.75h5.78v2.87h8.62v-5.75h2.88v8.63h5.75v2.88h14.38v-2.88h-11.5v-8.63h5.75v2.88h-2.88v2.87h14.38v2.88h-2.88v2.88h8.63v-2.88h2.87v2.88h8.62v-2.88h8.63v-2.88h5.75v-2.87h5.75v-5.75h2.87v-5.76h-2.87v-2.87h-5.75v-2.87h-5.76v-2.88h-8.63v-2.87h-37.39v2.87h-5.75v2.88h-11.47v2.88h-14.39v-2.88h-2.87v-2.88h-5.74v-2.87h-5.76v2.87h-5.75v2.88h5.75v2.88h-2.87v2.87h8.63v2.88h-2.88v2.88h2.88v2.87h-5.76v2.88h2.88v2.87h-5.75v2.87h5.75v2.88h-5.75v2.87h5.75zm63.28-8.63v-1.44h2.87v-5.75h2.88v5.75h-2.88v2.87h-2.87zm-28.77-8.63v-1.44h2.88v2.88h-2.88zm51.78 0v-1.44h-2.88v-2.88h2.88v-2.87h5.75v5.75h-2.88v2.88h-2.87z" fill="#666"/><path d="m1635.11 806.11v-1.44h-2.88v-5.75h2.88v-2.92h2.89v-5.75h-2.88v-2.88h-2.88v-2.87h-2.87v-5.76h2.87v-2.87h8.63v2.87h5.75v2.88h2.88v2.88h8.63v-2.88h5.75v-2.88h8.63v-2.87h34.49v2.87h5.75v2.88h5.75v2.88h2.88v2.87h2.87v8.63h-2.87v2.88h-2.88v2.87h-5.75v2.88h-8.63v2.88h-28.76v-2.88h-5.76v-2.88h-5.75v-2.87h-11.5v2.87h-2.88v2.88h-2.88v2.88h-11.5zm8.63-2.88v-1.44h5.75v-2.87h2.88v-2.92h11.5v2.88h2.88v-5.76h2.87v8.63h5.76v2.88h11.5v-2.88h2.88v2.88h5.75v-2.88h2.88v2.88h5.75v-2.88h8.63v-2.87h5.75v-2.88h2.88v-8.63h-2.88v-2.87h-5.75v-2.88h-5.77v-2.88h-34.5v2.88h-8.63v2.88h-5.75v2.87h-8.63v-2.87h-2.88v-2.88h-5.75v-2.88h-8.63v5.76h2.88v2.87h2.89v2.88h2.87v5.75h-2.87v2.88h-2.88v5.75h8.63zm63.26-12.94v-2.88h5.75v5.75h-5.75zm-123.68-33.08v-1.44h-2.88v-11.5h2.88v-2.88h2.87v-5.75h-2.87v-2.88h-2.88v-2.87h-2.88v-8.63h2.88v-2.88h11.56v2.88h5.75v2.87h2.87v2.87h14.38v-2.88h11.5v-2.87h5.75v-2.88h37.39v2.88h8.63v2.87h5.73v2.88h5.75v2.88h2.87v2.87h2.88v8.63h-2.88v2.88h-2.87v2.87h-5.75v2.87h-5.76v2.88h-8.63v2.87h-37.39v-2.85h-5.75v-2.9h-11.47v-2.88h-8.63v2.88h-2.88v2.88h-8.63v2.87h-5.75v2.88h-5.75zm5.75-2.87v-1.44h5.75v-2.9h8.63v-2.88h2.88v-8.62h2.87v5.75h5.8v2.87h8.62v-5.75h2.88v8.63h5.75v2.88h14.38v-2.88h2.88v2.88h8.63v-2.88h2.86v2.88h8.62v-2.88h8.63v-2.88h5.75v-2.87h5.75v-5.75h2.87v-5.76h-2.87v-2.87h-5.75v-2.87h-5.76v-2.88h-8.63v-2.87h-37.39v2.87h-5.75v2.88h-11.47v2.88h-14.39v-2.88h-2.87v-2.88h-5.74v-2.87h-11.51v8.63h2.88v2.87h2.87v2.88h2.88v5.75h-2.88v2.88h-2.87v11.5h5.75zm34.51-17.26v-1.44h2.88v2.88h-2.88zm51.78 0v-1.44h-2.88v-2.88h2.88v-2.87h5.75v5.75h-2.88v2.88h-2.87z" fill="#b3b3b3"/><path d="m1675.38 729.89v2.87h-2.88v2.88h2.88v2.88h2.87v-2.88h2.88v-5.75z" fill="#666"/><path d="m1707.02 787.41h5.75v5.75h-5.75z" fill="#666"/><g fill="#b3b3b3"><path d="m1609.22 735.64-1.34-7.19h7.91l1.13-3.59 5.81.71.87 5.76-4.1 4.31z"/><path d="m1635.11 724.13v-4.11h11.5l-1.27 4.11z"/><path d="m1660.03 727.77.97-6.51 3.55-1.24 3.07 1.24 3.22 1.44 5.98 1.19 2.9 1.68 3.56.75.73.69v2.88h-2.88z"/><path d="m1639.04 781.66h-3.93v-2.88h4.9z"/><path d="m1660.03 788.31v-4.52l3.84-.69v-1.44h2.88v5.75z"/><path d="m1681.13 784.54v-5.11l1.44-.65h4.31v6.21z"/><path d="m1698.39 777.5 6.52 1.28.65 3.1-4.3-.22z"/></g></g></svg>